<svg width="32" height="32" viewBox="0 0 32 32" fill="none" xmlns="http://www.w3.org/2000/svg">
<path opacity="0.4" d="M16.0001 29.3337C23.3639 29.3337 29.3334 23.3641 29.3334 16.0003C29.3334 8.63653 23.3639 2.66699 16.0001 2.66699C8.63628 2.66699 2.66675 8.63653 2.66675 16.0003C2.66675 23.3641 8.63628 29.3337 16.0001 29.3337Z" fill="white"/>
<path d="M17.4133 16.0005L20.48 12.9338C20.8666 12.5471 20.8666 11.9071 20.48 11.5205C20.0933 11.1338 19.4533 11.1338 19.0666 11.5205L16 14.5871L12.9333 11.5205C12.5466 11.1338 11.9066 11.1338 11.52 11.5205C11.1333 11.9071 11.1333 12.5471 11.52 12.9338L14.5866 16.0005L11.52 19.0671C11.1333 19.4538 11.1333 20.0938 11.52 20.4805C11.72 20.6805 11.9733 20.7738 12.2266 20.7738C12.48 20.7738 12.7333 20.6805 12.9333 20.4805L16 17.4138L19.0666 20.4805C19.2666 20.6805 19.52 20.7738 19.7733 20.7738C20.0266 20.7738 20.28 20.6805 20.48 20.4805C20.8666 20.0938 20.8666 19.4538 20.48 19.0671L17.4133 16.0005Z" fill="white"/>
</svg>
