<svg width="16" height="17" fill="none" xmlns="http://www.w3.org/2000/svg"><path d="M8 15.667A7.173 7.173 0 01.833 8.5 7.173 7.173 0 018 1.333 7.173 7.173 0 0115.167 8.5 7.173 7.173 0 018 15.667zM8 2.333A6.174 6.174 0 001.833 8.5c0 3.4 2.767 6.167 6.167 6.167S14.167 11.9 14.167 8.5 11.4 2.333 8 2.333z" fill="#54555B"/><path d="M10.667 9H5.333a.504.504 0 01-.5-.5c0-.273.227-.5.5-.5h5.334c.273 0 .5.227.5.5s-.227.5-.5.5z" fill="#54555B"/><path d="M8 11.667a.504.504 0 01-.5-.5V5.834c0-.274.227-.5.5-.5s.5.226.5.5v5.333c0 .273-.227.5-.5.5z" fill="#54555B"/></svg>