<svg width="34" height="34" fill="none" xmlns="http://www.w3.org/2000/svg"><path d="M24.72 32.23c-1.6 0-3.286-.383-5.028-1.12-1.7-.723-3.415-1.714-5.086-2.918a44.215 44.215 0 01-4.774-4.066 42.333 42.333 0 01-4.066-4.76c-1.219-1.7-2.196-3.4-2.89-5.043-.737-1.757-1.105-3.457-1.105-5.058a8.54 8.54 0 01.58-3.13 7.566 7.566 0 011.899-2.75C5.34 2.31 6.587 1.772 7.92 1.772c.552 0 1.118.127 1.6.354.552.255 1.02.638 1.36 1.148l3.287 4.632c.297.41.524.808.68 1.204.184.425.283.85.283 1.261 0 .538-.156 1.063-.453 1.558-.213.383-.539.794-.95 1.204l-.963 1.006a.61.61 0 00.043.1c.17.297.51.807 1.161 1.572a53.09 53.09 0 001.998 2.182c.836.821 1.53 1.473 2.181 2.011.808.68 1.332 1.02 1.644 1.176l-.029.071 1.035-1.02c.439-.44.864-.765 1.275-.977.779-.482 1.77-.567 2.762-.156.368.155.765.368 1.19.665l4.703 3.344c.525.354.907.807 1.134 1.346a4.1 4.1 0 01.311 1.53c0 .68-.155 1.36-.453 1.997a6.598 6.598 0 01-1.133 1.7c-.808.893-1.686 1.53-2.706 1.941-.978.397-2.04.61-3.16.61zM7.92 3.895c-.78 0-1.503.34-2.197 1.02-.651.609-1.105 1.275-1.388 1.997a6.198 6.198 0 00-.44 2.352c0 1.317.312 2.748.936 4.222.637 1.501 1.53 3.06 2.663 4.618a39.181 39.181 0 003.84 4.505 39.882 39.882 0 004.518 3.853c1.53 1.12 3.103 2.026 4.661 2.678 2.423 1.034 4.69 1.275 6.56.496.722-.298 1.36-.751 1.94-1.403.326-.354.581-.737.794-1.19a2.51 2.51 0 00.255-1.09c0-.227-.043-.454-.156-.709-.043-.085-.128-.24-.397-.425l-4.703-3.343a4.068 4.068 0 00-.78-.44c-.311-.127-.439-.255-.92.043-.284.142-.539.354-.822.638l-1.077 1.062c-.552.538-1.402.666-2.054.425l-.382-.17c-.581-.312-1.261-.793-2.012-1.43a44.38 44.38 0 01-2.31-2.14 49.472 49.472 0 01-2.11-2.295c-.666-.78-1.147-1.445-1.445-1.998l-.17-.425c-.085-.325-.113-.51-.113-.708 0-.51.184-.963.538-1.317l1.063-1.105a4.14 4.14 0 00.637-.794.909.909 0 00.156-.481c0-.114-.043-.284-.113-.454a4.068 4.068 0 00-.454-.75L9.152 4.49a1.306 1.306 0 00-.525-.44 1.774 1.774 0 00-.708-.155zm11.842 17.368l-.226.963.382-.991c-.07-.014-.127 0-.156.028zm6.446-7.45a1.07 1.07 0 01-1.062-1.063c0-.51-.51-1.572-1.36-2.48-.836-.892-1.757-1.416-2.536-1.416a1.07 1.07 0 01-1.063-1.062 1.07 1.07 0 011.063-1.063c1.374 0 2.82.737 4.08 2.083 1.176 1.26 1.94 2.805 1.94 3.938a1.07 1.07 0 01-1.062 1.063zm4.959 0a1.07 1.07 0 01-1.063-1.063c0-4.887-3.966-8.854-8.854-8.854a1.07 1.07 0 01-1.063-1.063c0-.58.482-1.062 1.063-1.062 6.05 0 10.98 4.93 10.98 10.979a1.07 1.07 0 01-1.063 1.063z" fill="#262626"/></svg>