<svg width="24" height="25" fill="none" xmlns="http://www.w3.org/2000/svg"><rect x=".5" y="1.28" width="23" height="23" rx="11.5" fill="#F0F0F0"/><path d="M14 18.655h-4c-1.825 0-2.875-1.05-2.875-2.875v-5c0-1.825 1.05-2.875 2.875-2.875h4c1.825 0 2.875 1.05 2.875 2.875v5c0 1.825-1.05 2.875-2.875 2.875zm-4-10c-1.43 0-2.125.695-2.125 2.125v5c0 1.43.695 2.125 2.125 2.125h4c1.43 0 2.125-.695 2.125-2.125v-5c0-1.43-.695-2.125-2.125-2.125h-4z" fill="#54555B"/><path d="M15.25 11.905h-1c-.76 0-1.375-.615-1.375-1.375v-1c0-.205.17-.375.375-.375s.375.17.375.375v1c0 .345.28.625.625.625h1c.205 0 .375.17.375.375s-.17.375-.375.375z" fill="#54555B"/><path d="M12 14.155h-2a.378.378 0 01-.375-.375c0-.205.17-.375.375-.375h2c.205 0 .375.17.375.375s-.17.375-.375.375zm2 2h-4a.378.378 0 01-.375-.375c0-.205.17-.375.375-.375h4c.205 0 .375.17.375.375s-.17.375-.375.375z" fill="#292D32"/><rect x=".5" y="1.28" width="23" height="23" rx="11.5" stroke="#E8E8E8"/></svg>