<svg width="17" height="17" fill="none" xmlns="http://www.w3.org/2000/svg"><g fill="#333"><path d="M14.5 6.916c-1.54-2.42-3.793-3.813-6.167-3.813-1.187 0-2.34.346-3.393.993-1.054.653-2 1.607-2.774 2.82-.666 1.047-.666 2.747 0 3.793 1.54 2.427 3.794 3.814 6.167 3.814 1.187 0 2.34-.347 3.393-.994 1.054-.653 2-1.607 2.774-2.82.666-1.04.666-2.746 0-3.793zm-6.167 4.593A2.69 2.69 0 015.64 8.816a2.69 2.69 0 012.693-2.693 2.69 2.69 0 012.694 2.693 2.69 2.69 0 01-2.694 2.693z"/><path d="M8.333 6.91a1.903 1.903 0 101.907 1.907c0-1.048-.86-1.908-1.907-1.908z"/></g></svg>