<svg width="30" height="31" fill="none" xmlns="http://www.w3.org/2000/svg"><g clip-path="url(#clip0_672_97580)"><mask id="a" fill="#fff"><path d="M15.964 24.851a1.241 1.241 0 002.48 0c0-.683-.556-1.24-1.24-1.24-.684 0-1.24.557-1.24 1.24zm1.6 0a.36.36 0 11-.72 0 .36.36 0 01.72 0z"/></mask><path d="M15.964 24.851a1.241 1.241 0 002.48 0c0-.683-.556-1.24-1.24-1.24-.684 0-1.24.557-1.24 1.24zm1.6 0a.36.36 0 11-.72 0 .36.36 0 01.72 0z" fill="#54555B"/><path d="M14.964 24.851a2.241 2.241 0 002.24 2.24v-2a.241.241 0 01-.24-.24h-2zm2.24 2.24a2.241 2.241 0 002.24-2.24h-2a.24.24 0 01-.24.24v2zm2.24-2.24a2.241 2.241 0 00-2.24-2.24v2c.131 0 .24.109.24.24h2zm-2.24-2.24a2.241 2.241 0 00-2.24 2.24h2c0-.131.109-.24.24-.24v-2zm-.64 2.24a.64.64 0 01.64-.64v2c.75 0 1.36-.61 1.36-1.36h-2zm.64-.64a.64.64 0 01.641.64h-2c0 .75.609 1.36 1.36 1.36v-2zm.641.64a.64.64 0 01-.64.641v-2a1.36 1.36 0 00-1.36 1.36h2zm-.64.641a.64.64 0 01-.642-.64h2a1.36 1.36 0 00-1.359-1.36v2z" fill="#54555B" mask="url(#a)"/><mask id="b" fill="#fff"><path d="M18.892 2.778a.44.44 0 100-.881h-1.78a.44.44 0 100 .88h1.78z"/></mask><path d="M18.892 2.778a.44.44 0 100-.881h-1.78a.44.44 0 100 .88h1.78z" fill="#54555B"/><path d="M18.892 3.778a1.44 1.44 0 001.44-1.44h-2c0-.31.25-.56.56-.56v2zm1.44-1.44a1.44 1.44 0 00-1.44-1.441v2a.56.56 0 01-.56-.56h2zM18.892.896h-1.78v2h1.78v-2zm-1.78 0a1.44 1.44 0 00-1.441 1.44h2c0 .31-.25.56-.56.56v-2zm-1.441 1.44c0 .796.645 1.44 1.44 1.44v-2c.31 0 .56.251.56.56h-2zm1.44 1.44h1.78v-2h-1.78v2z" fill="#54555B" mask="url(#b)"/><path d="M15.616 2.397a.056.056 0 110-.113s0 0 0 0 0 0 0 0a.056.056 0 010 .113s0 0 0 0z" fill="#54555B" stroke="#54555B"/><mask id="c" fill="#fff"><path d="M25.123.5H9.285a2.34 2.34 0 00-2.337 2.336V7.84a.44.44 0 10.881 0V2.836c0-.802.653-1.455 1.456-1.455h15.838c.803 0 1.456.653 1.456 1.455v22.102c0 .802-.653 1.455-1.456 1.455H10.481c.44-.903.64-1.877.595-2.9h14.388a.44.44 0 00.44-.44V18.3a.44.44 0 00-.88 0v4.313H10.977a7.54 7.54 0 00-.136-.616 8.913 8.913 0 00-1.249-2.703c.142-.59.567-2.387.867-3.975.201-1.065-.16-1.763-.499-2.162a1.278 1.278 0 00-.576-.387V4.19h15.638v12.35a.44.44 0 10.881 0V3.75a.44.44 0 00-.44-.44H8.944a.44.44 0 00-.44.44v9.05a1.28 1.28 0 00-.654.592l-.021.041V9.6a.44.44 0 10-.88 0v5.51l-2.243 4.268a4.184 4.184 0 00-.418 2.637l.267 1.564a5.66 5.66 0 01-.547 3.53l-1.418 2.75a.44.44 0 00.391.642h10.281a.44.44 0 00.364-.192l.805-1.177c.595-.145 2.52-.686 3.667-1.857h7.026a2.339 2.339 0 002.337-2.336V2.836A2.34 2.34 0 0025.123.5zM14.075 28.309a.44.44 0 00-.275.182l-.771 1.128H3.703l1.088-2.105a6.547 6.547 0 00.632-4.084l-.267-1.563a3.298 3.298 0 01.33-2.08l3.144-5.985c.12-.247.489-.29.66-.075.312.367.414.848.305 1.429-.359 1.899-.9 4.105-.905 4.127a.442.442 0 00.08.376c.009.01.836 1.087 1.228 2.59.51 1.961.073 3.707-1.302 5.19a.44.44 0 10.646.6c.229-.248.434-.503.618-.765h6.726c-1.159.726-2.593 1.031-2.611 1.035z"/></mask><path d="M25.123.5H9.285a2.34 2.34 0 00-2.337 2.336V7.84a.44.44 0 10.881 0V2.836c0-.802.653-1.455 1.456-1.455h15.838c.803 0 1.456.653 1.456 1.455v22.102c0 .802-.653 1.455-1.456 1.455H10.481c.44-.903.64-1.877.595-2.9h14.388a.44.44 0 00.44-.44V18.3a.44.44 0 00-.88 0v4.313H10.977a7.54 7.54 0 00-.136-.616 8.913 8.913 0 00-1.249-2.703c.142-.59.567-2.387.867-3.975.201-1.065-.16-1.763-.499-2.162a1.278 1.278 0 00-.576-.387V4.19h15.638v12.35a.44.44 0 10.881 0V3.75a.44.44 0 00-.44-.44H8.944a.44.44 0 00-.44.44v9.05a1.28 1.28 0 00-.654.592l-.021.041V9.6a.44.44 0 10-.88 0v5.51l-2.243 4.268a4.184 4.184 0 00-.418 2.637l.267 1.564a5.66 5.66 0 01-.547 3.53l-1.418 2.75a.44.44 0 00.391.642h10.281a.44.44 0 00.364-.192l.805-1.177c.595-.145 2.52-.686 3.667-1.857h7.026a2.339 2.339 0 002.337-2.336V2.836A2.34 2.34 0 0025.123.5zM14.075 28.309a.44.44 0 00-.275.182l-.771 1.128H3.703l1.088-2.105a6.547 6.547 0 00.632-4.084l-.267-1.563a3.298 3.298 0 01.33-2.08l3.144-5.985c.12-.247.489-.29.66-.075.312.367.414.848.305 1.429-.359 1.899-.9 4.105-.905 4.127a.442.442 0 00.08.376c.009.01.836 1.087 1.228 2.59.51 1.961.073 3.707-1.302 5.19a.44.44 0 10.646.6c.229-.248.434-.503.618-.765h6.726c-1.159.726-2.593 1.031-2.611 1.035z" fill="#54555B"/><path d="M10.48 26.393l-.899-.437-.699 1.437h1.599v-1zm.595-2.9v-1H10.03l.046 1.045 1-.044zm13.948-.88v1h1v-1h-1zm-14.045 0l-.985.174.146.826h.84v-1zm-.136-.616l-.967.256.967-.256zm-1.249-2.703l-.972-.233-.105.436.256.369.821-.572zm.867-3.975l.983.186-.983-.186zm-.499-2.162l-.762.648.762-.648zm-.576-.387h-1v.725l.688.225.312-.95zm0-8.58v-1h-1v1h1zm15.638 0h1v-1h-1v1zM8.503 12.8l.376.928.625-.253V12.8h-1zm-.653.592l-.885-.465.885.466zm-.021.041h-1l1.885.465-.885-.465zm-.88 1.676l.884.465.115-.218v-.247h-1zm-2.243 4.27l.885.464-.885-.465zm-.418 2.636l.985-.168-.985.168zm.267 1.564l-.985.169.985-.169zm-.547 3.53l.889.46-.889-.46zm-1.418 2.75l-.888-.46.888.46zm.015.43l.854-.52-.854.52zm11.02.02l.826.565-.825-.565zm.806-1.177l-.236-.972-.373.09-.216.317.825.565zm3.667-1.857v-1h-.42l-.294.3.714.7zM27.46 2.836h1-1zM14.075 28.31l.202.98.002-.001-.204-.98zm-.275.182l-.825-.564.825.564zm-.771 1.128v1h.527l.298-.435-.825-.565zm-9.326 0l-.888-.459-.754 1.46h1.642v-1zm1.088-2.105l.888.459-.888-.459zm.632-4.084l-.985.17.985-.17zm-.267-1.563l.986-.169-.986.169zm.33-2.08l.885.466-.886-.465zm3.144-5.985l.885.465.008-.014.007-.015-.9-.436zm.66-.075l-.783.622.01.013.011.013.762-.648zm.305 1.429l-.983-.186.983.186zm-.905 4.127l.971.239v-.001l-.971-.238zm.08.376l-.79.614.002.001.788-.615zm1.228 2.59l.968-.252-.968.253zm-1.302 5.19l.733.68-.733-.68zm.024.623l.68-.734-.68.734zm.622-.024l-.734-.68.734.68zm.618-.764v-1h-.52l-.298.426.818.574zm6.726 0l.531.847 2.95-1.847h-3.48v1zM25.123-.5H9.285v2h15.838v-2zM9.285-.5a3.34 3.34 0 00-3.337 3.336h2c0-.736.6-1.336 1.337-1.336v-2zM5.948 2.836V7.84h2V2.836h-2zm0 5.003c0 .795.645 1.44 1.44 1.44v-2c.31 0 .56.25.56.56h-2zm1.44 1.44a1.44 1.44 0 001.441-1.44h-2c0-.31.25-.56.56-.56v2zm1.441-1.44V2.836h-2V7.84h2zm0-5.003c0-.25.205-.455.456-.455v-2a2.457 2.457 0 00-2.456 2.455h2zm.456-.455h15.838v-2H9.285v2zm15.838 0c.25 0 .456.205.456.455h2c0-1.355-1.1-2.455-2.456-2.455v2zm.456.455v22.102h2V2.836h-2zm0 22.102c0 .25-.206.455-.456.455v2c1.355 0 2.456-1.1 2.456-2.455h-2zm-.456.455H10.481v2h14.642v-2zM11.38 26.831a6.952 6.952 0 00.694-3.381l-1.998.088a4.951 4.951 0 01-.495 2.418l1.799.875zm-.305-2.337h14.389v-2H11.076v2zm14.389 0a1.44 1.44 0 001.44-1.44h-2c0-.31.25-.56.56-.56v2zm1.44-1.44V18.3h-2v4.754h2zm0-4.754a1.44 1.44 0 00-1.44-1.44v2a.56.56 0 01-.56-.56h2zm-1.44-1.44a1.44 1.44 0 00-1.44 1.44h2a.56.56 0 01-.56.56v-2zm-1.44 1.44v4.313h2V18.3h-2zm1 3.313H10.977v2h14.045v-2zm-13.061.826a8.458 8.458 0 00-.154-.698l-1.934.512c.048.18.087.358.118.534l1.97-.348zm-.154-.698a9.907 9.907 0 00-1.395-3.018l-1.642 1.143a7.913 7.913 0 011.103 2.387l1.934-.512zm-1.243-2.213c.142-.592.572-2.41.877-4.023l-1.966-.371a90.416 90.416 0 01-.856 3.927l1.945.467zm.877-4.023c.266-1.408-.219-2.405-.72-2.995L9.2 13.805c.176.207.415.607.278 1.329l1.966.371zm-.72-2.995a2.279 2.279 0 00-1.027-.69l-.623 1.9a.278.278 0 01.126.085l1.524-1.295zm-.338.26V4.19h-2v8.58h2zm-1-7.58h15.638v-2H9.385v2zm14.638-1v12.35h2V4.19h-2zm0 12.349c0 .795.645 1.44 1.44 1.44v-2c.31 0 .56.25.56.56h-2zm1.44 1.44a1.44 1.44 0 001.441-1.44h-2c0-.31.25-.56.56-.56v2zm1.441-1.44V3.75h-2v12.789h2zm0-12.789a1.44 1.44 0 00-1.44-1.44v2a.56.56 0 01-.56-.56h2zm-1.44-1.44H8.944v2h16.52v-2zm-16.52 0a1.44 1.44 0 00-1.44 1.44h2c0 .31-.25.56-.56.56v-2zm-1.44 1.44v9.05h2V3.75h-2zm.624 8.124a2.28 2.28 0 00-1.163 1.053l1.77.93a.28.28 0 01.144-.13l-.75-1.853zm-1.163 1.053l-.021.041 1.77.93.021-.04-1.77-.93zm1.864.506V9.6h-2v3.833h2zm0-3.833a1.44 1.44 0 00-1.44-1.44v2a.56.56 0 01-.56-.56h2zm-1.44-1.44a1.44 1.44 0 00-1.44 1.44h2a.56.56 0 01-.56.56v-2zM5.949 9.6v5.51h2V9.6h-2zm.114 5.044l-2.243 4.27 1.77.93 2.243-4.27-1.77-.93zm-2.243 4.27a5.184 5.184 0 00-.518 3.27l1.971-.337a3.184 3.184 0 01.318-2.004l-1.77-.93zm-.518 3.27l.268 1.564 1.97-.338-.267-1.563-1.97.337zm.268 1.564a4.66 4.66 0 01-.45 2.903l1.777.918a6.66 6.66 0 00.644-4.159l-1.971.338zm-.45 2.903L1.7 29.399l1.778.918 1.419-2.748-1.777-.918zM1.7 29.399c-.23.446-.211.98.05 1.41l1.708-1.04a.56.56 0 01.02.547L1.7 29.4zm.05 1.41c.261.43.728.691 1.23.691v-2a.56.56 0 01.478.269l-1.708 1.04zm1.23.691h10.281v-2H2.981v2zm10.281 0c.476 0 .92-.235 1.19-.627l-1.652-1.13a.56.56 0 01.462-.243v2zm1.19-.627l.804-1.178-1.65-1.129-.806 1.178 1.651 1.129zm.215-.77a11.66 11.66 0 001.785-.597c.755-.324 1.657-.814 2.36-1.532l-1.428-1.4c-.444.453-1.079.819-1.72 1.094a9.664 9.664 0 01-1.47.491l.473 1.944zm3.431-1.829h7.026v-2h-7.026v2zm7.026 0a3.339 3.339 0 003.337-3.336h-2c0 .736-.6 1.336-1.337 1.336v2zm3.337-3.336V2.836h-2v22.102h2zm0-22.102A3.34 3.34 0 0025.123-.5v2c.736 0 1.336.6 1.337 1.336h2zM13.873 27.33a1.44 1.44 0 00-.898.597l1.65 1.13a.56.56 0 01-.348.231l-.404-1.959zm-.898.597l-.771 1.128 1.65 1.129.772-1.128-1.651-1.129zm.054.692H3.703v2h9.326v-2zm-8.437 1.46l1.087-2.106-1.777-.918-1.087 2.105 1.777.918zm1.087-2.106a7.547 7.547 0 00.73-4.711l-1.971.337c.2 1.17.01 2.4-.536 3.456l1.777.918zm.73-4.711l-.267-1.564-1.972.337.268 1.564 1.971-.337zm-.267-1.564a2.299 2.299 0 01.228-1.445l-1.77-.93a4.298 4.298 0 00-.43 2.712l1.972-.337zm.229-1.445l3.144-5.986-1.77-.93L4.6 19.323l1.77.93zm3.159-6.015a.612.612 0 01-.476.347.615.615 0 01-.547-.236l1.566-1.243a1.385 1.385 0 00-1.245-.509 1.389 1.389 0 00-1.098.769l1.8.872zm-1.002.137c.072.085.152.237.084.595l1.965.372c.152-.804.027-1.613-.525-2.262l-1.524 1.295zm.084.595c-.353 1.87-.888 4.054-.893 4.076l1.942.475.001-.003.001-.006.006-.021.019-.078a85.295 85.295 0 00.297-1.267c.182-.797.41-1.837.592-2.805l-1.965-.37zm-.893 4.075c-.106.429-.008.881.262 1.228l1.579-1.228a.559.559 0 01.101.477l-1.942-.477zm.263 1.23c-.027-.035.706.915 1.048 2.227l1.936-.505a8.932 8.932 0 00-1.407-2.953l-1.577 1.23zm1.048 2.227c.425 1.631.075 3.026-1.067 4.258l1.466 1.36c1.608-1.735 2.133-3.832 1.537-6.123l-1.936.505zM7.963 26.76a1.44 1.44 0 00.077 2.035l1.36-1.467a.56.56 0 01.03.792l-1.467-1.36zm.077 2.035a1.44 1.44 0 002.035-.077l-1.467-1.36a.56.56 0 01.791-.03l-1.36 1.467zm2.035-.077c.26-.28.494-.57.704-.87L9.142 26.7a6.254 6.254 0 01-.534.659l1.467 1.359zm-.115-.444h6.726v-2H9.96v2zm6.196-1.848c-1 .627-2.285.904-2.285.904l.408 1.958c.037-.008 1.62-.34 2.938-1.167l-1.061-1.694z" fill="#54555B" mask="url(#c)"/><mask id="d" fill="#fff"><path d="M23.385 14.31V7.6c0-.566-.46-1.027-1.027-1.027h-.965c-.821-.496-2.02-.97-3.262-.6a3.033 3.033 0 00-.927.459 3.031 3.031 0 00-.926-.458c-1.242-.371-2.441.103-3.262.599h-.965c-.566 0-1.027.46-1.027 1.027v6.71c0 .567.46 1.027 1.027 1.027h10.307c.566 0 1.027-.46 1.027-1.026zM13.58 7.263c1.761-1.012 2.845-.34 3.183-.059v5.462a3.102 3.102 0 00-.486-.192c-.98-.293-1.935-.059-2.697.297V7.262zm-1.676 7.049V7.6c0-.08.065-.146.146-.146h.65v6.059c-.011.336.396.56.674.372 1.886-1.19 3.041-.472 3.389-.183v.755H12.05a.146.146 0 01-.146-.146zm5.74-.608c.35-.292 1.505-1.006 3.388.182.279.188.686-.036.675-.372V11.15a.44.44 0 10-.88 0v1.621c-.762-.355-1.716-.59-2.697-.297a3.1 3.1 0 00-.486.191v-5.46c.337-.281 1.421-.954 3.183.058v2.126a.44.44 0 10.88 0V7.454h.65c.08 0 .146.065.146.146v6.71a.147.147 0 01-.146.147h-4.713v-.755z"/></mask><path d="M23.385 14.31V7.6c0-.566-.46-1.027-1.027-1.027h-.965c-.821-.496-2.02-.97-3.262-.6a3.033 3.033 0 00-.927.459 3.031 3.031 0 00-.926-.458c-1.242-.371-2.441.103-3.262.599h-.965c-.566 0-1.027.46-1.027 1.027v6.71c0 .567.46 1.027 1.027 1.027h10.307c.566 0 1.027-.46 1.027-1.026zM13.58 7.263c1.761-1.012 2.845-.34 3.183-.059v5.462a3.102 3.102 0 00-.486-.192c-.98-.293-1.935-.059-2.697.297V7.262zm-1.676 7.049V7.6c0-.08.065-.146.146-.146h.65v6.059c-.011.336.396.56.674.372 1.886-1.19 3.041-.472 3.389-.183v.755H12.05a.146.146 0 01-.146-.146zm5.74-.608c.35-.292 1.505-1.006 3.388.182.279.188.686-.036.675-.372V11.15a.44.44 0 10-.88 0v1.621c-.762-.355-1.716-.59-2.697-.297a3.1 3.1 0 00-.486.191v-5.46c.337-.281 1.421-.954 3.183.058v2.126a.44.44 0 10.88 0V7.454h.65c.08 0 .146.065.146.146v6.71a.147.147 0 01-.146.147h-4.713v-.755z" fill="#54555B"/><path d="M21.393 6.573l-.517.856.238.144h.279v-1zm-3.262-.6l-.286-.958.286.959zm-.927.459l-.592.806.592.434.592-.434-.592-.806zm-.926-.458l.286-.959-.286.959zm-3.262.599v1h.278l.239-.144-.517-.856zm9.342 8.764v-1 1zM13.58 7.263l-.498-.867-.502.288v.579h1zm3.183-.059h1v-.47l-.361-.3-.639.77zm0 5.462l-.443.896 1.443.714v-1.61h-1zm-.486-.192l.286-.958-.286.958zm-2.697.297h-1v1.57l1.423-.664-.423-.906zm-.88-5.316h1v-1h-1v1zm0 6.059l.999.031v-.031h-1zm.674.372l-.533-.846-.014.009-.012.008.56.829zm3.389-.183h1v-.47l-.361-.3-.64.77zm0 .755v1h1v-1h-1zm-4.713 0v-1 1zm5.594-.755l-.64-.769-.36.3v.47h1zm3.388.183l.56-.828-.013-.01-.013-.008-.534.846zm.675-.372h-1v.015l.001.016 1-.031zm-.88-.743l-.423.906 1.423.664v-1.57h-1zm-2.697-.297l-.286-.958.286.958zm-.486.191h-1v1.61l1.442-.713-.442-.896zm0-5.46l-.64-.77-.36.3v.47h1zm3.183.058h1v-.579l-.502-.288-.498.867zm.88.192v-1h-1v1h1zm-4.063 7.003h-1v1h1v-1zm6.74-.146V7.6h-2v6.71h2zm0-6.711a2.028 2.028 0 00-2.027-2.027v2c.005 0 .007 0 .009.002a.032.032 0 01.016.016c0 .002.002.004.002.009h2zm-2.027-2.027h-.965v2h.965v-2zm-.448.144c-.91-.549-2.42-1.193-4.065-.702l.572 1.917c.838-.25 1.726.055 2.459.497l1.034-1.712zm-4.065-.702c-.537.16-.948.401-1.233.61l1.184 1.613c.137-.1.344-.223.621-.306l-.572-1.917zm-.049.61a4.031 4.031 0 00-1.232-.61l-.573 1.917c.278.083.485.206.621.306l1.184-1.612zm-1.232-.61c-1.646-.491-3.156.153-4.065.702l1.034 1.712c.733-.443 1.62-.747 2.459-.497l.572-1.917zm-3.548.558h-.965v2h.965v-2zm-.965 0A2.028 2.028 0 0010.024 7.6h2c0-.005 0-.007.002-.01a.032.032 0 01.016-.015.021.021 0 01.009-.002v-2zM10.024 7.6v6.71h2V7.6h-2zm0 6.71c0 1.12.908 2.027 2.027 2.027v-2l-.01-.001a.032.032 0 01-.016-.016.02.02 0 01-.001-.01h-2zm2.027 2.027h10.307v-2H12.05v2zm10.307 0a2.028 2.028 0 002.027-2.026h-2c0 .005-.001.007-.002.009a.03.03 0 01-.006.01.03.03 0 01-.01.006.021.021 0 01-.01.002v2zm-8.28-8.208c.712-.408 1.2-.432 1.486-.391.302.043.49.176.561.235l1.278-1.54a3.136 3.136 0 00-1.554-.675c-.78-.112-1.715.033-2.766.637l.996 1.734zm1.686-.926v5.462h2V7.203h-2zm1.443 4.565a4.096 4.096 0 00-.643-.253l-.573 1.916c.123.037.232.082.33.13l.886-1.793zm-.643-.253c-1.304-.39-2.523-.063-3.406.349l.846 1.812c.64-.299 1.33-.441 1.988-.245l.572-1.916zM14.58 12.77V7.262h-2v5.508h2zm-1.676 1.54V7.6h-2v6.71h2zm0-6.71a.854.854 0 01-.854.854v-2c-.633 0-1.146.513-1.146 1.146h2zm-.854.854h.65v-2h-.65v2zm-.35-1v6.059h2v-6.06h-2zm0 6.027c-.02.608.342 1.068.745 1.29.404.222.985.283 1.49-.058l-1.12-1.657a.576.576 0 01.596-.036.576.576 0 01.288.524l-2-.063zm2.208 1.25c.779-.492 1.312-.535 1.62-.499.324.038.524.18.596.24l1.278-1.54a3.142 3.142 0 00-1.64-.686c-.828-.097-1.814.095-2.921.793l1.067 1.692zm1.855-1.03v.756h2v-.755h-2zm1-.244H12.05v2h4.713v-2zm-4.714 0c.473 0 .855.382.855.854h-2c0 .632.513 1.146 1.147 1.146l-.002-2zm6.233 1.015a1.15 1.15 0 01.598-.24c.308-.036.84.008 1.619.499l1.067-1.692c-1.105-.697-2.091-.89-2.919-.793a3.145 3.145 0 00-1.642.687l1.277 1.539zm2.19.241c.504.342 1.086.28 1.49.058.402-.222.764-.682.745-1.29l-1.999.063a.576.576 0 01.287-.524.576.576 0 01.598.037l-1.121 1.656zm2.236-1.2v-2.364h-2v2.364h2zm0-2.364a1.44 1.44 0 00-1.44-1.44v2a.56.56 0 01-.56-.56h2zm-1.44-1.44a1.44 1.44 0 00-1.441 1.44h2a.56.56 0 01-.56.56v-2zm-1.441 1.44v1.621h2v-1.62h-2zm1.422.715c-.883-.412-2.102-.738-3.405-.35l.572 1.917c.658-.196 1.347-.054 1.988.245l.845-1.812zm-3.405-.35a4.103 4.103 0 00-.643.254l.885 1.793a2.09 2.09 0 01.33-.13l-.572-1.916zm.8 1.15v-5.46h-2v5.46h2zm-.362-4.691c.07-.059.26-.192.562-.235.286-.042.774-.017 1.485.391l.996-1.734c-1.051-.604-1.986-.75-2.766-.637a3.135 3.135 0 00-1.554.676l1.277 1.539zm1.545-.711v2.126h2V7.262h-2zm0 2.126c0 .795.645 1.44 1.44 1.44v-2c.31 0 .56.25.56.56h-2zm1.44 1.44a1.44 1.44 0 001.44-1.44h-2c0-.31.251-.56.56-.56v2zm1.44-1.44V7.454h-2v1.934h2zm-1-.934h.65v-2h-.65v2zm.65 0a.854.854 0 01-.854-.854h2c0-.633-.513-1.146-1.146-1.146v2zm-.854-.854v6.71h2V7.6h-2zm0 6.71c0-.471.382-.853.854-.853v2c.633 0 1.146-.513 1.146-1.146h-2zm.854-.853h-4.713v2h4.713v-2zm-3.713 1v-.755h-2v.755h2z" fill="#54555B" mask="url(#d)"/><mask id="e" fill="#fff"><path d="M21.749 17.03H12.66a.44.44 0 100 .88h9.089a.44.44 0 100-.88z"/></mask><path d="M21.749 17.03H12.66a.44.44 0 100 .88h9.089a.44.44 0 100-.88z" fill="#54555B"/><path d="M21.749 16.03H12.66v2h9.089v-2zm-9.089 0a1.44 1.44 0 00-1.44 1.44h2c0 .31-.25.56-.56.56v-2zm-1.44 1.44c0 .796.645 1.44 1.44 1.44v-2c.31 0 .56.252.56.56h-2zm1.44 1.44h9.089v-2H12.66v2zm9.089 0a1.44 1.44 0 001.44-1.44h-2c0-.308.25-.56.56-.56v2zm1.44-1.44a1.44 1.44 0 00-1.44-1.44v2a.56.56 0 01-.56-.56h2z" fill="#54555B" mask="url(#e)"/><mask id="f" fill="#fff"><path d="M21.749 19.29H12.66a.44.44 0 100 .88h9.089a.44.44 0 100-.88z"/></mask><path d="M21.749 19.29H12.66a.44.44 0 100 .88h9.089a.44.44 0 100-.88z" fill="#54555B"/><path d="M21.749 18.29H12.66v2h9.089v-2zm-9.089 0a1.44 1.44 0 00-1.44 1.44h2a.56.56 0 01-.56.56v-2zm-1.44 1.44c0 .795.644 1.44 1.44 1.44v-2c.31 0 .56.25.56.56h-2zm1.44 1.44h9.089v-2H12.66v2zm9.089 0a1.44 1.44 0 001.44-1.44h-2c0-.31.25-.56.56-.56v2zm1.44-1.44a1.44 1.44 0 00-1.44-1.44v2a.56.56 0 01-.56-.56h2z" fill="#54555B" mask="url(#f)"/></g><defs><clipPath id="clip0_672_97580"><path fill="#fff" transform="translate(0 .5)" d="M0 0h30v30H0z"/></clipPath></defs></svg>