<svg width="13" height="13" fill="none" xmlns="http://www.w3.org/2000/svg"><path d="M6.886 1.264A5.254 5.254 0 006.5 1.25V.5a6 6 0 01.441.016l-.055.748zm1.503.338a5.25 5.25 0 00-.739-.224l.165-.732a6 6 0 01.844.256l-.27.7zm1.028.533a5.256 5.256 0 00-.33-.203l.37-.653a6 6 0 01.734.49l-.461.592a5.257 5.257 0 00-.313-.226zm1.375 1.342a5.242 5.242 0 00-.49-.597l.543-.517c.204.213.39.441.56.682l-.613.432zm.558 1.014a5.283 5.283 0 00-.16-.351l.67-.338a6.03 6.03 0 01.337.816l-.712.235a5.255 5.255 0 00-.135-.362zm.398 1.88a5.243 5.243 0 00-.075-.769l.739-.128c.05.29.079.584.086.879l-.75.018zm-.099 1.153a5.23 5.23 0 00.062-.381l.744.091a6.008 6.008 0 01-.172.866l-.723-.2c.034-.124.064-.25.09-.376zm-.713 1.785c.137-.218.26-.446.364-.681l.685.303c-.12.27-.258.53-.416.779l-.634-.401zm-.724.903c.092-.091.18-.185.263-.283l.568.49c-.096.111-.196.22-.3.324l-.53-.53z" fill="#FF4C13"/><path d="M6.5 1.25a5.25 5.25 0 103.712 8.962l.53.53A6 6 0 116.5.5v.75z" fill="#FF4C13"/><path d="M6.125 2.75c.207 0 .375.168.375.375v3.907l2.436 1.392a.375.375 0 11-.372.652l-2.625-1.5a.375.375 0 01-.189-.326V3.125c0-.207.168-.375.375-.375z" fill="#FF4C13"/></svg>