<svg width="17" height="17" fill="none" xmlns="http://www.w3.org/2000/svg"><path d="M11.833 14.667H5.167c-2.434 0-3.834-1.4-3.834-3.834V6.167c0-2.434 1.4-3.834 3.834-3.834h6.666c2.434 0 3.834 1.4 3.834 3.834v4.666c0 2.434-1.4 3.834-3.834 3.834zM5.167 3.333c-1.907 0-2.834.927-2.834 2.834v4.666c0 1.907.927 2.834 2.834 2.834h6.666c1.907 0 2.834-.927 2.834-2.834V6.167c0-1.907-.927-2.834-2.834-2.834H5.167z" fill="#54555B"/><path d="M8.5 9.08c-.56 0-1.127-.173-1.56-.527L4.853 6.887a.499.499 0 01.62-.78L7.56 7.773c.506.407 1.366.407 1.873 0l2.087-1.666a.492.492 0 01.7.08.492.492 0 01-.08.7l-2.087 1.666c-.427.354-.993.527-1.553.527z" fill="#54555B"/></svg>