<svg width="17" height="17" fill="none" xmlns="http://www.w3.org/2000/svg"><path d="M12.133 15.667c-.753 0-1.546-.18-2.366-.527-.8-.34-1.607-.806-2.394-1.373a20.805 20.805 0 01-2.246-1.913 19.917 19.917 0 01-1.914-2.24 12.46 12.46 0 01-1.36-2.374c-.346-.827-.52-1.627-.52-2.38 0-.52.094-1.013.274-1.473A3.56 3.56 0 012.5 2.094c.513-.507 1.1-.76 1.727-.76.26 0 .526.06.753.166.26.12.48.3.64.54l1.547 2.18c.14.194.246.38.32.567.086.2.133.4.133.593 0 .253-.073.5-.213.734-.1.18-.254.373-.447.566l-.453.474c.006.02.013.033.02.046.08.14.24.38.546.74.327.373.634.713.94 1.027.394.386.72.693 1.027.947.38.32.627.48.773.553L9.8 10.5l.487-.48a2.49 2.49 0 01.6-.46c.366-.226.833-.267 1.3-.073.173.073.36.173.56.313l2.213 1.573c.247.167.427.38.533.634.1.253.147.486.147.72 0 .32-.073.64-.213.94-.14.3-.314.56-.534.8-.38.42-.793.72-1.273.913a3.93 3.93 0 01-1.487.287zM4.227 2.333c-.367 0-.707.16-1.034.48-.306.287-.52.6-.653.94-.14.347-.207.714-.207 1.107 0 .62.147 1.293.44 1.987.3.706.72 1.44 1.254 2.173a18.45 18.45 0 001.806 2.12c.667.66 1.387 1.274 2.127 1.813.72.527 1.46.954 2.193 1.26 1.14.487 2.207.6 3.087.234.34-.14.64-.353.913-.66a2.16 2.16 0 00.374-.56c.08-.167.12-.34.12-.514a.796.796 0 00-.074-.333.504.504 0 00-.186-.2l-2.214-1.573a1.912 1.912 0 00-.366-.207c-.147-.06-.207-.12-.434.02a1.515 1.515 0 00-.386.3l-.507.5a.95.95 0 01-.967.2l-.18-.08a5.686 5.686 0 01-.946-.673c-.32-.274-.667-.594-1.087-1.007a23.28 23.28 0 01-.993-1.08c-.314-.367-.54-.68-.68-.94l-.08-.2a1.244 1.244 0 01-.054-.333c0-.24.087-.454.254-.62l.5-.52a1.93 1.93 0 00.3-.373.428.428 0 00.073-.227.62.62 0 00-.053-.213 1.912 1.912 0 00-.214-.354L4.807 2.614a.614.614 0 00-.247-.207.835.835 0 00-.333-.074zM9.8 10.507l-.107.453.18-.467c-.033-.006-.06 0-.073.014zM12.833 7a.504.504 0 01-.5-.5c0-.24-.24-.74-.64-1.167-.393-.42-.826-.666-1.193-.666a.504.504 0 01-.5-.5c0-.274.227-.5.5-.5.647 0 1.327.346 1.92.98.553.593.913 1.32.913 1.853 0 .273-.226.5-.5.5zm2.334 0a.504.504 0 01-.5-.5c0-2.3-1.867-4.167-4.167-4.167a.504.504 0 01-.5-.5c0-.273.227-.5.5-.5A5.175 5.175 0 0115.667 6.5c0 .274-.227.5-.5.5z" fill="#54555B"/></svg>