<svg width="30" height="31" fill="none" xmlns="http://www.w3.org/2000/svg"><g clip-path="url(#clip0_699_103195)" fill="#6F6F6F"><path d="M17.054 13.726c.09.17.26.27.45.27.08 0 .15-.02.231-.05.03-.01 2.976-1.512 4.429-1.963.26-.08.41-.36.32-.631a.507.507 0 00-.63-.331c-1.534.48-4.45 1.964-4.58 2.034a.5.5 0 00-.22.671zm.451-5.731c.08 0 .15-.02.23-.05.03-.01 2.976-1.513 4.429-1.964.26-.08.41-.36.32-.631a.507.507 0 00-.63-.331c-1.534.481-4.45 1.964-4.58 2.034a.5.5 0 00-.22.671c.09.17.26.271.45.271z"/><path d="M29.499 8.005c-.28 0-.501.22-.501.501v19.499a1.5 1.5 0 01-1.503 1.503H15.501v-1.152c.732-.25 2.625-.852 4.499-.852 4.359 0 7.315.962 7.345.972.15.05.32.02.45-.07a.49.49 0 00.211-.401V6.001c0-.23-.16-.44-.39-.491 0 0-.392-.09-1.063-.21a.5.5 0 00-.18.982l.631.12v20.932c-1.132-.301-3.647-.832-7.004-.832-2.174 0-4.319.711-4.98.962-.591-.26-2.365-.962-4.519-.962-3.447 0-6.283.571-7.505.852V6.392c1.002-.25 3.948-.892 7.505-.892 1.824 0 3.387.571 3.998.822V26c0 .18.1.35.25.43.16.091.351.091.502 0 .05-.03 5-2.985 9.398-4.458.2-.07.341-.26.341-.471v-20.5a.49.49 0 00-.22-.41.535.535 0 00-.461-.061c-3.998 1.503-8.047 4.018-8.087 4.048-.23.15-.3.451-.16.691a.51.51 0 00.691.16c.04-.02 3.558-2.214 7.235-3.697v19.41c-3.417 1.182-6.974 3.125-8.497 3.987V6.001c0-.19-.11-.36-.28-.451-.09-.04-2.135-1.052-4.72-1.052-4.52 0-7.996.982-8.136 1.022a.505.505 0 00-.361.481v22.004c0 .16.07.3.2.4.09.07.19.101.301.101.05 0 .09 0 .14-.02.03 0 3.497-.982 7.866-.982 1.824 0 3.387.571 3.998.822v1.172H2.505a1.501 1.501 0 01-1.503-1.503v-19.5c0-.28-.22-.5-.501-.5-.28 0-.501.22-.501.5v19.51a2.506 2.506 0 002.505 2.505h25a2.506 2.506 0 002.505-2.505V8.495c0-.28-.22-.5-.501-.5l-.01.01z"/><path d="M17.054 10.73c.09.17.26.271.45.271.08 0 .15-.02.231-.05.03-.01 2.976-1.513 4.429-1.964.26-.08.41-.36.32-.631a.507.507 0 00-.63-.331c-1.534.481-4.45 1.964-4.58 2.034a.5.5 0 00-.22.671zm0 5.992c.09.17.26.27.45.27.08 0 .15-.02.231-.05.03-.01 2.976-1.512 4.429-1.963.26-.08.41-.36.32-.631a.507.507 0 00-.63-.331c-1.534.48-4.45 1.964-4.58 2.034a.5.5 0 00-.22.671zm-4.94-7.945c-3.086-.722-6.593.2-6.743.24a.492.492 0 00-.35.611c.06.22.26.371.48.371.04 0 .09 0 .13-.02.03 0 3.407-.902 6.253-.23.27.06.54-.1.601-.371a.498.498 0 00-.37-.601zm0 3.006c-3.086-.722-6.593.2-6.743.24a.492.492 0 00-.35.611c.06.22.26.371.48.371.04 0 .09 0 .13-.02.03 0 3.407-.902 6.253-.23.27.06.54-.1.601-.371a.498.498 0 00-.37-.601zm4.94 7.946c.09.17.26.27.45.27.08 0 .15-.02.231-.05.03-.01 2.976-1.513 4.429-1.964.26-.08.41-.36.32-.631a.507.507 0 00-.63-.33c-1.534.48-4.45 1.963-4.58 2.033a.5.5 0 00-.22.672zm-4.94-4.951c-3.086-.721-6.593.2-6.743.241a.492.492 0 00-.35.611c.06.22.26.37.48.37.04 0 .09 0 .13-.02.03 0 3.407-.9 6.253-.23.27.06.54-.1.601-.37a.498.498 0 00-.37-.602zm0 6.002c-3.086-.72-6.593.201-6.743.241a.492.492 0 00-.35.611c.06.22.26.371.48.371.04 0 .09 0 .13-.02.03 0 3.407-.902 6.253-.23.27.06.54-.1.601-.371a.498.498 0 00-.37-.601zm0-3.006c-3.086-.721-6.593.2-6.743.24a.501.501 0 00.13.982c.04 0 .09 0 .13-.02.03 0 3.407-.9 6.253-.23.27.06.54-.1.601-.37a.498.498 0 00-.37-.602z"/></g><defs><clipPath id="clip0_699_103195"><path fill="#fff" transform="translate(0 .5)" d="M0 0h30v30H0z"/></clipPath></defs></svg>