<svg width="12" height="13" fill="none" xmlns="http://www.w3.org/2000/svg"><path d="M3.536 5.407L2.507 6.436A2.25 2.25 0 105.69 9.618l1.372-1.372a2.25 2.25 0 00-.621-3.622l-.44.44a.752.752 0 00-.116.15 1.5 1.5 0 01.646 2.503l-1.37 1.37a1.5 1.5 0 11-2.122-2.121l.594-.595a3.014 3.014 0 01-.096-.964z" fill="#fff"/><path d="M4.94 4.004a2.25 2.25 0 00.62 3.621l.582-.581a1.5 1.5 0 01-.672-2.51l1.37-1.371a1.5 1.5 0 112.121 2.121l-.594.594c.084.316.116.642.096.965l1.029-1.029A2.25 2.25 0 106.31 2.632L4.939 4.004z" fill="#fff"/></svg>