<svg width="56" height="56" fill="none" xmlns="http://www.w3.org/2000/svg"><g clip-path="url(#clip0_548_106129)"><path d="M28 0C12.229 0 0 11.557 0 27.16c0 8.162 3.346 15.218 8.792 20.09.455.406.735.98.749 1.596l.154 4.984a2.24 2.24 0 003.143 1.981l5.558-2.45a2.25 2.25 0 011.498-.112c2.555.7 5.271 1.078 8.106 1.078 15.771 0 28-11.557 28-27.16S43.771 0 28 0z" fill="url(#paint0_radial_548_106129)"/><path d="M11.186 35.105l8.225-13.048a4.2 4.2 0 016.076-1.12l6.545 4.907a1.68 1.68 0 002.023-.007l8.834-6.706c1.176-.896 2.716.518 1.932 1.77l-8.232 13.042a4.201 4.201 0 01-6.076 1.12l-6.545-4.907a1.68 1.68 0 00-2.023.007l-8.834 6.706c-1.176.896-2.716-.511-1.925-1.764z" fill="#fff"/></g><defs><radialGradient id="paint0_radial_548_106129" cx="0" cy="0" r="1" gradientUnits="userSpaceOnUse" gradientTransform="matrix(61.6 0 0 61.6 9.38 56)"><stop stop-color="#09F"/><stop offset=".6" stop-color="#A033FF"/><stop offset=".9" stop-color="#FF5280"/><stop offset="1" stop-color="#FF7061"/></radialGradient><clipPath id="clip0_548_106129"><path fill="#fff" d="M0 0h56v56H0z"/></clipPath></defs></svg>