<svg width="13" height="13" fill="none" xmlns="http://www.w3.org/2000/svg"><path d="M6.5 11.875A5.38 5.38 0 011.125 6.5 5.38 5.38 0 016.5 1.125 5.38 5.38 0 0111.875 6.5 5.38 5.38 0 016.5 11.875zm0-10A4.63 4.63 0 001.875 6.5 4.63 4.63 0 006.5 11.125 4.63 4.63 0 0011.125 6.5 4.63 4.63 0 006.5 1.875z" fill="#26AD60"/><path d="M8.355 8.465a.335.335 0 01-.19-.055l-1.55-.925c-.385-.23-.67-.735-.67-1.18v-2.05c0-.205.17-.375.375-.375s.375.17.375.375v2.05c0 .18.15.445.305.535l1.55.925c.18.105.235.335.13.515a.385.385 0 01-.325.185z" fill="#26AD60"/></svg>