<svg width="16" height="17" fill="none" xmlns="http://www.w3.org/2000/svg"><path d="M4.12 15.667c-.067 0-.14-.007-.2-.014l-1.447-.2c-.693-.093-1.32-.713-1.426-1.42l-.2-1.46c-.067-.466.133-1.073.466-1.413L4.24 8.233A5.521 5.521 0 015.707 2.96a5.559 5.559 0 017.84 0 5.506 5.506 0 011.62 3.92 5.537 5.537 0 01-6.893 5.373L5.34 15.18c-.28.293-.78.487-1.22.487zM9.62 2.34c-1.167 0-2.327.44-3.213 1.327a4.535 4.535 0 00-1.134 4.566.497.497 0 01-.126.5l-3.134 3.134c-.113.113-.206.406-.186.56l.2 1.46c.04.253.313.54.566.573l1.454.2c.16.027.453-.067.566-.18l3.147-3.14a.498.498 0 01.5-.12 4.52 4.52 0 004.56-1.127c.853-.853 1.327-2 1.327-3.213 0-1.22-.474-2.36-1.327-3.213a4.485 4.485 0 00-3.2-1.327z" fill="#333"/><path d="M6.127 14.193a.495.495 0 01-.353-.146L4.24 12.513a.503.503 0 010-.706.503.503 0 01.707 0L6.48 13.34a.503.503 0 010 .707c-.1.1-.226.146-.353.146zm3.539-5.86c-.826 0-1.5-.673-1.5-1.5 0-.826.674-1.5 1.5-1.5.827 0 1.5.674 1.5 1.5 0 .827-.673 1.5-1.5 1.5zm0-2c-.273 0-.5.227-.5.5 0 .274.227.5.5.5.274 0 .5-.226.5-.5 0-.273-.226-.5-.5-.5z" fill="#333"/></svg>