<svg width="12" height="13" fill="none" xmlns="http://www.w3.org/2000/svg"><path d="M11.626 1.955a.375.375 0 010 .53l-.782.782-1.5-1.5.782-.782a.375.375 0 01.53 0l.97.97zm-1.312 1.842l-1.5-1.5-5.11 5.11a.375.375 0 00-.09.147l-.604 1.81a.187.187 0 00.237.237l1.81-.603a.375.375 0 00.147-.09l5.11-5.11z" fill="#2F69FD"/><path fill-rule="evenodd" clip-rule="evenodd" d="M.75 10.625c0 .621.504 1.125 1.125 1.125h8.25c.621 0 1.125-.504 1.125-1.125v-4.5a.375.375 0 00-.75 0v4.5a.375.375 0 01-.375.375h-8.25a.375.375 0 01-.375-.375v-8.25c0-.207.168-.375.375-.375H6.75a.375.375 0 100-.75H1.875C1.254 1.25.75 1.754.75 2.375v8.25z" fill="#2F69FD"/></svg>