<svg width="30" height="31" fill="none" xmlns="http://www.w3.org/2000/svg"><g clip-path="url(#clip0_635_98089)" fill="#6F6F6F"><path d="M28.482 15.465h-.64v-1.043c0-2.238-.58-4.429-1.682-6.36l.148-.148c.382-.382.435-.981.127-1.425A13.944 13.944 0 0015 .5C10.45.5 6.175 2.739 3.566 6.49a1.114 1.114 0 00.126 1.424l.148.148a12.825 12.825 0 00-1.683 6.36v1.043h-.639A1.52 1.52 0 000 16.983v7.28a1.52 1.52 0 001.518 1.518h.673c.14.617.691 1.08 1.35 1.08h1.347c.763 0 1.384-.621 1.384-1.384v-1.099a.44.44 0 00-.88 0v1.099a.505.505 0 01-.504.504H3.54a.505.505 0 01-.504-.504v-9.713a.505.505 0 01.504-.498h1.348c.279 0 .505.226.505.504v6.557a.44.44 0 00.879 0V15.77c0-.762-.62-1.382-1.384-1.382H3.54c-.178 0-.348.034-.504.095v-.06c0-2.018.507-3.994 1.47-5.749a1.118 1.118 0 001.479-.345c2.034-3 5.404-4.792 9.015-4.792 3.61 0 6.98 1.791 9.015 4.792a1.118 1.118 0 001.48.344 11.95 11.95 0 011.469 5.75v.06a1.376 1.376 0 00-.504-.095h-1.348c-.763 0-1.384.62-1.384 1.383v9.707c0 .762.62 1.383 1.384 1.383h1.348c.658 0 1.21-.462 1.349-1.079h.673A1.52 1.52 0 0030 24.263v-7.28a1.52 1.52 0 00-1.518-1.518zM.879 24.263v-7.28a.64.64 0 01.639-.64h.639v8.56h-.639a.64.64 0 01-.64-.64zM24.92 7.94a.239.239 0 01-.177-.106A11.767 11.767 0 0015 2.657a11.766 11.766 0 00-9.743 5.177.238.238 0 01-.177.106.23.23 0 01-.186-.067l-.58-.58a.236.236 0 01-.027-.302A13.064 13.064 0 0115 1.38c4.263 0 8.268 2.098 10.713 5.612a.235.235 0 01-.026.302l-.58.58a.229.229 0 01-.187.067zm4.201 16.323a.64.64 0 01-.639.64h-.639v-4.097a.44.44 0 00-.879 0v4.67a.505.505 0 01-.504.505h-1.35a.505.505 0 01-.504-.504V15.77c0-.278.226-.504.505-.504h1.348c.276 0 .5.223.504.498v2.992a.44.44 0 10.88 0v-2.412h.638a.64.64 0 01.64.639v7.28z"/><path d="M11.448 12.338a.44.44 0 00-.44.44v4.143a.44.44 0 00.44.439h8.287a.44.44 0 00.44-.44v-4.143a.44.44 0 00-.44-.44h-8.287zm7.847 4.143h-7.407v-3.264h7.407v3.264z"/><path d="M22.779 14.08a.44.44 0 00-.879 0v9.859H10.56c-.947 0-1.801.404-2.4 1.049V13.132a2.404 2.404 0 012.4-2.4H21.9v1.298a.44.44 0 00.879 0v-1.738a.44.44 0 00-.44-.44H10.562a3.284 3.284 0 00-3.28 3.28V27.22a3.284 3.284 0 003.28 3.281H22.34a.44.44 0 00.439-.44V14.08zM21.9 27.22v.507H10.56a.508.508 0 010-1.015H21.9v.507zm-11.34 2.4a2.404 2.404 0 01-2.4-2.401 2.404 2.404 0 012.4-2.402H21.9v1.015H10.56c-.764 0-1.386.622-1.386 1.387 0 .764.622 1.386 1.387 1.386H21.9v1.015H10.56z"/></g><defs><clipPath id="clip0_635_98089"><path fill="#fff" transform="translate(0 .5)" d="M0 0h30v30H0z"/></clipPath></defs></svg>