<svg width="16" height="17" fill="none" xmlns="http://www.w3.org/2000/svg"><path d="M11.333 15.667H4.667c-2.94 0-3.834-.894-3.834-3.834V10.5c0-2.94.894-3.833 3.834-3.833h6.666c2.94 0 3.834.893 3.834 3.833v1.333c0 2.94-.894 3.834-3.834 3.834zm-6.666-8c-2.387 0-2.834.453-2.834 2.833v1.333c0 2.38.447 2.834 2.834 2.834h6.666c2.387 0 2.834-.454 2.834-2.834V10.5c0-2.38-.447-2.833-2.834-2.833H4.667z" fill="#54555B"/><path d="M4 7.667a.504.504 0 01-.5-.5V5.833c0-1.933.467-4.5 4.5-4.5 2.987 0 4.5 1.287 4.5 3.834 0 .273-.227.5-.5.5a.504.504 0 01-.5-.5c0-1.32-.4-2.834-3.5-2.834-2.907 0-3.5 1.4-3.5 3.5v1.334c0 .273-.227.5-.5.5zm4 5.666a2.17 2.17 0 01-2.167-2.166A2.17 2.17 0 018 9a2.17 2.17 0 012.167 2.167A2.17 2.17 0 018 13.333zM8 10c-.64 0-1.167.527-1.167 1.167S7.36 12.333 8 12.333s1.167-.526 1.167-1.166C9.167 10.527 8.64 10 8 10z" fill="#54555B"/></svg>