<svg width="16" height="17" fill="none" xmlns="http://www.w3.org/2000/svg"><path d="M10.16 15.347h-.087c-2.96 0-4.386-1.167-4.633-3.78a.501.501 0 111-.094c.194 2.094 1.18 2.874 3.64 2.874h.087c2.713 0 3.673-.96 3.673-3.674V6.327c0-2.714-.96-3.674-3.673-3.674h-.087c-2.473 0-3.46.794-3.64 2.927a.502.502 0 01-.546.453.5.5 0 01-.46-.54c.226-2.653 1.66-3.84 4.64-3.84h.086c3.274 0 4.674 1.4 4.674 4.674v4.346c0 3.274-1.4 4.674-4.674 4.674z" fill="#333"/><path d="M9.92 9H1.334a.504.504 0 01-.5-.5c0-.273.226-.5.5-.5H9.92a.5.5 0 110 1z" fill="#333"/><path d="M8.433 11.233a.495.495 0 01-.353-.146.503.503 0 010-.707L9.96 8.5 8.08 6.62a.503.503 0 010-.707.503.503 0 01.707 0l2.233 2.234a.503.503 0 010 .706l-2.233 2.234c-.1.1-.227.146-.354.146z" fill="#333"/></svg>