<svg width="30" height="31" fill="none" xmlns="http://www.w3.org/2000/svg"><g clip-path="url(#clip0_635_98097)" fill="#6F6F6F" stroke="#6F6F6F" stroke-width=".2"><path d="M27.45 29.6h-6.81v-2.67c0-.18-.12-.3-.3-.3s-.3.12-.3.3v2.67H13.2v-5.37h6.87v1.41c0 .18.12.3.3.3s.3-.12.3-.3v-1.71c0-.18-.12-.3-.3-.3h-.27v-.78h8.85c.18 0 .3-.12.3-.3v-6.21c0-.18-.12-.3-.3-.3s-.3.12-.3.3v2.16h-8.28v-1.29c0-.03 0-.09-.03-.12-.3-.63-.81-.93-1.5-.84a.98.98 0 00-.33-.45c-.12-.09-.3-.15-.48-.18a5.156 5.156 0 002.13-4.2c0-2.85-2.34-5.19-5.19-5.19-2.85 0-5.16 2.37-5.16 5.22 0 2.49 1.77 4.56 4.11 5.07v1.65l-.81-.99a1.04 1.04 0 00-.66-.3c-.27 0-.48.09-.66.27-.3.3-.36.75-.15 1.11l.12.24H1.35V4.64h27.3v10.14c0 .18.12.3.3.3s.3-.12.3-.3V2.48c0-.93-.75-1.68-1.68-1.68H2.43C1.5.8.75 1.55.75 2.48v20.1c0 .18.12.3.3.3h12.18v.78h-.33c-.18 0-.3.12-.3.3v5.64H2.34c-.18 0-.3.12-.3.3s.12.3.3.3h25.08c.18 0 .3-.12.3-.3s-.12-.3-.27-.3zm1.2-10.5v3.18h-9.09l.39-1.14h4.5c.18 0 .3-.12.3-.3s-.12-.3-.3-.3h-4.29l.15-.42c.03-.12.06-.21.06-.33v-.69h8.28zm-18.24-7.65c0-2.52 2.07-4.59 4.59-4.59s4.59 2.07 4.59 4.59c0 1.74-.99 3.27-2.43 4.05a.603.603 0 00-.24-.12c-.27-.12-.6-.12-.93 0l.03-2.73c0-.06 0-.12-.03-.21l1.26-.72c.09-.06.15-.15.15-.27 0-.12-.06-.21-.15-.27l-3.57-2.04a.272.272 0 00-.3 0c-.09.06-.15.15-.15.27v4.11c0 .12.06.21.15.27.09.06.21.06.3 0l.21-.12v2.25c-1.98-.48-3.48-2.31-3.48-4.47zm3.84.42c-.21.21-.3.45-.3.75v.33l-.06.03V9.92l2.67 1.53-.81.45-.03-.03c-.21-.21-.45-.33-.75-.33-.24.03-.51.12-.72.33zm-2.01 5.7c.06-.06.15-.12.24-.09.09 0 .18.03.21.09l1.32 1.65c.09.09.21.15.33.09.12-.06.21-.15.21-.27l.03-6.42c0-.24.21-.45.45-.45.24 0 .45.21.45.45l-.06 3.18c0 .12.06.21.15.27.09.06.21.06.3 0 .3-.18.63-.24.87-.15.06.03.18.09.21.21.06.15.21.24.36.21.57-.15.81-.09.9-.03.03.03.12.09.15.33.03.18.21.3.39.27.54-.15.87-.03 1.08.39l-.03 2.52c0 .03 0 .09-.03.12l-.87 2.58h-4.29l-2.43-4.53c-.06-.15-.06-.3.06-.42zM1.35 2.48c0-.6.48-1.08 1.08-1.08H27.6c.6 0 1.08.48 1.08 1.08v1.56H1.38V2.48h-.03zm0 16.62h10.77l.78 1.44H8.37c-.12-.45-.54-.81-1.05-.81s-.93.33-1.05.81h-.69c-.18 0-.3.12-.3.3s.12.3.3.3h.69c.12.45.54.81 1.05.81s.93-.33 1.05-.81h4.83l.6 1.14H1.35V19.1zm6.45 1.74c0 .27-.21.51-.51.51-.27 0-.51-.21-.51-.51 0-.27.21-.51.51-.51.3 0 .51.24.51.51zm6.03 2.25h5.67v.54h-5.67v-.54zM1.08 29.6H.6c-.18 0-.3.12-.3.3s.12.3.3.3h.48c.18 0 .3-.12.3-.3s-.12-.3-.3-.3zm28.32 0h-.78c-.18 0-.3.12-.3.3s.12.3.3.3h.78c.18 0 .3-.12.3-.3a.3.3 0 00-.3-.3z"/><path d="M3 20.12c-.18 0-.3.12-.3.3v.84c0 .18.12.3.3.3s.3-.12.3-.3v-.84a.3.3 0 00-.3-.3zm.78 0c-.18 0-.3.12-.3.3v.84c0 .18.12.3.3.3s.3-.12.3-.3v-.84a.3.3 0 00-.3-.3z"/></g><defs><clipPath id="clip0_635_98097"><path fill="#fff" transform="translate(0 .5)" d="M0 0h30v30H0z"/></clipPath></defs></svg>