<svg width="24" height="25" fill="none" xmlns="http://www.w3.org/2000/svg"><rect x=".5" y="1.096" width="23" height="23" rx="11.5" fill="#F0F0F0"/><path d="M12 18.476c-.74 0-1.485-.28-2.065-.835-1.475-1.42-3.105-3.685-2.49-6.38C8 8.816 10.135 7.72 12 7.72h.005c1.865 0 4 1.095 4.555 3.545.61 2.695-1.02 4.955-2.495 6.375a2.985 2.985 0 01-2.065.835zM12 8.47c-1.455 0-3.325.775-3.82 2.955-.54 2.355.94 4.385 2.28 5.67.865.835 2.22.835 3.085 0 1.335-1.285 2.815-3.315 2.285-5.67-.5-2.18-2.375-2.955-3.83-2.955z" fill="#54555B"/><path d="M11.375 13.97a.37.37 0 01-.265-.11l-.75-.75a.377.377 0 010-.53.377.377 0 01.53 0l.485.485 1.735-1.735a.377.377 0 01.53 0 .377.377 0 010 .53l-2 2a.37.37 0 01-.265.11z" fill="#54555B"/><rect x=".5" y="1.096" width="23" height="23" rx="11.5" stroke="#E8E8E8"/></svg>