<svg width="28" height="28" fill="none" xmlns="http://www.w3.org/2000/svg"><path d="M0 2.333A2.333 2.333 0 012.333 0h23.334A2.333 2.333 0 0128 2.333v23.334A2.333 2.333 0 0125.667 28H2.333A2.333 2.333 0 010 25.667V2.333z" fill="#E0E0E0" fill-opacity=".3"/><path fill-rule="evenodd" clip-rule="evenodd" d="M9.676 6.175a1.167 1.167 0 011.65 0l7 7a1.167 1.167 0 010 1.65l-7 7a1.167 1.167 0 01-1.65-1.65L15.85 14 9.676 7.825a1.167 1.167 0 010-1.65z" fill="#E0E0E0"/><path d="M2.333.5h23.334v-1H2.333v1zM27.5 2.333v23.334h1V2.333h-1zM25.667 27.5H2.333v1h23.334v-1zM.5 25.667V2.333h-1v23.334h1zM2.333 27.5A1.833 1.833 0 01.5 25.667h-1A2.833 2.833 0 002.333 28.5v-1zM27.5 25.667c0 1.012-.82 1.833-1.833 1.833v1a2.833 2.833 0 002.833-2.833h-1zM25.667.5c1.012 0 1.833.82 1.833 1.833h1A2.833 2.833 0 0025.667-.5v1zM2.333-.5A2.833 2.833 0 00-.5 2.333h1C.5 1.321 1.32.5 2.333.5v-1z" fill="#E0E0E0"/></svg>