<svg width="13" height="13" fill="none" xmlns="http://www.w3.org/2000/svg"><path d="M9.5 5.875a.378.378 0 01-.375-.375v-1c0-1.575-.445-2.625-2.625-2.625S3.875 2.925 3.875 4.5v1c0 .205-.17.375-.375.375a.378.378 0 01-.375-.375v-1c0-1.45.35-3.375 3.375-3.375S9.875 3.05 9.875 4.5v1c0 .205-.17.375-.375.375z" fill="#E20000"/><path d="M9 11.875H4c-2.205 0-2.875-.67-2.875-2.875V8c0-2.205.67-2.875 2.875-2.875h5c2.205 0 2.875.67 2.875 2.875v1c0 2.205-.67 2.875-2.875 2.875zm-5-6c-1.79 0-2.125.34-2.125 2.125v1c0 1.785.335 2.125 2.125 2.125h5c1.79 0 2.125-.34 2.125-2.125V8c0-1.785-.335-2.125-2.125-2.125H4z" fill="#E20000"/><path d="M4.5 9a.498.498 0 01-.19-.04.516.516 0 01-.165-.105.498.498 0 01-.105-.545.516.516 0 01.105-.165c.05-.045.1-.08.165-.105a.501.501 0 01.545.105c.045.05.08.105.105.165.025.06.04.125.04.19 0 .13-.055.26-.145.355A.526.526 0 014.5 9zm2 0a.526.526 0 01-.355-.145A.516.516 0 016 8.5c0-.065.01-.13.04-.19a.577.577 0 01.105-.165.5.5 0 01.545-.105c.03.01.06.025.09.045.025.015.05.04.075.06.045.05.08.105.105.165a.498.498 0 01-.105.545l-.075.06a.379.379 0 01-.09.045.302.302 0 01-.095.03A.613.613 0 016.5 9zm2 0a.516.516 0 01-.355-.145.577.577 0 01-.105-.165A.498.498 0 018 8.5c0-.13.055-.26.145-.355l.075-.06c.03-.02.06-.035.09-.045a.318.318 0 01.09-.03.509.509 0 01.455.135.498.498 0 01.105.545.516.516 0 01-.105.165A.526.526 0 018.5 9z" fill="#E20000"/></svg>