<svg width="56" height="56" fill="none" xmlns="http://www.w3.org/2000/svg"><path fill-rule="evenodd" clip-rule="evenodd" d="M0 28C0 12.536 12.536 0 28 0s28 12.536 28 28-12.536 28-28 28S0 43.464 0 28z" fill="#2F69FD"/><path fill-rule="evenodd" clip-rule="evenodd" d="M30.22 25.127v-.747h2.251v10.51h-1.288a.96.96 0 01-.964-.952 5.495 5.495 0 01-3.24 1.052c-3.033 0-5.492-2.444-5.492-5.457 0-3.014 2.459-5.457 5.492-5.457 1.21 0 2.332.391 3.24 1.05v.001zM20.902 21v.34c0 .636-.085 1.155-.5 1.764l-.05.057a10.73 10.73 0 00-.406.473l-7.23 9.021h8.186v1.277a.96.96 0 01-.964.958H9.333v-.602c0-.738.185-1.066.417-1.41l7.707-9.483H9.655V21h11.248zm14.3 13.89a.801.801 0 01-.803-.797V21h2.41v13.89h-1.607zm8.734-10.88c3.054 0 5.53 2.462 5.53 5.493 0 3.035-2.476 5.497-5.53 5.497-3.054 0-5.53-2.462-5.53-5.497 0-3.031 2.476-5.493 5.53-5.493zM26.98 32.743a3.22 3.22 0 003.231-3.21c0-1.771-1.446-3.209-3.231-3.209s-3.232 1.438-3.232 3.209c0 1.773 1.447 3.21 3.232 3.21zm16.958-.005a3.244 3.244 0 003.253-3.235c0-1.783-1.457-3.231-3.253-3.231-1.798 0-3.253 1.448-3.253 3.232a3.242 3.242 0 003.253 3.234z" fill="#fff"/></svg>