<svg width="17" height="17" fill="none" xmlns="http://www.w3.org/2000/svg"><path d="M8.5 15.673a3.98 3.98 0 01-2.753-1.113c-1.967-1.893-4.14-4.913-3.32-8.507.74-3.26 3.586-4.72 6.073-4.72h.007c2.486 0 5.333 1.46 6.073 4.727.813 3.593-1.36 6.607-3.327 8.5A3.98 3.98 0 018.5 15.673zm0-13.34c-1.94 0-4.433 1.034-5.093 3.94-.72 3.14 1.253 5.847 3.04 7.56a2.95 2.95 0 004.113 0c1.78-1.713 3.753-4.42 3.047-7.56-.667-2.906-3.167-3.94-5.107-3.94z" fill="#54555B"/><path d="M7.667 9.667a.494.494 0 01-.354-.147l-1-1a.503.503 0 010-.707.503.503 0 01.707 0l.647.647L9.98 6.147a.503.503 0 01.707 0 .503.503 0 010 .706L8.02 9.52c-.1.1-.227.147-.353.147z" fill="#54555B"/></svg>