<svg width="24" height="25" fill="none" xmlns="http://www.w3.org/2000/svg"><rect x=".5" y="1.28" width="23" height="23" rx="11.5" fill="#F0F0F0"/><path d="M14.5 17.905h-5c-1.825 0-2.875-1.05-2.875-2.875v-3.5c0-1.825 1.05-2.875 2.875-2.875h5c1.825 0 2.875 1.05 2.875 2.875v3.5c0 1.825-1.05 2.875-2.875 2.875zm-5-8.5c-1.43 0-2.125.695-2.125 2.125v3.5c0 1.43.695 2.125 2.125 2.125h5c1.43 0 2.125-.695 2.125-2.125v-3.5c0-1.43-.695-2.125-2.125-2.125h-5z" fill="#54555B"/><path d="M12 13.715c-.42 0-.845-.13-1.17-.395l-1.565-1.25a.374.374 0 01.465-.585l1.565 1.25c.38.305 1.025.305 1.405 0l1.565-1.25c.16-.13.4-.105.525.06.13.16.105.4-.06.525l-1.565 1.25c-.32.265-.745.395-1.165.395z" fill="#54555B"/><rect x=".5" y="1.28" width="23" height="23" rx="11.5" stroke="#E8E8E8"/></svg>