<svg width="48" height="48" fill="none" xmlns="http://www.w3.org/2000/svg"><path d="M24 45C12.402 45 3 35.598 3 24S12.402 3 24 3s21 9.402 21 21-9.402 21-21 21zm0 3c13.255 0 24-10.745 24-24S37.255 0 24 0 0 10.745 0 24s10.745 24 24 24z" fill="#FFB40B"/><path d="M15.765 17.358c-.022.41.315.74.724.74h2.473c.415 0 .744-.338.8-.748.267-1.969 1.617-3.403 4.026-3.403 2.056 0 3.942 1.028 3.942 3.504 0 1.904-1.124 2.78-2.895 4.113-2.018 1.466-3.618 3.18-3.504 5.96l.009.65a.75.75 0 00.75.74h2.433a.75.75 0 00.75-.75v-.316c0-2.152.819-2.78 3.028-4.456 1.828-1.39 3.732-2.933 3.732-6.17 0-4.532-3.827-6.722-8.017-6.722-3.801 0-7.967 1.772-8.25 6.858zm4.671 17.289c0 1.6 1.276 2.78 3.028 2.78 1.828 0 3.085-1.18 3.085-2.78 0-1.657-1.257-2.819-3.085-2.819-1.752 0-3.028 1.162-3.028 2.819z" fill="#FFB40B"/></svg>