<svg width="17" height="17" fill="none" xmlns="http://www.w3.org/2000/svg"><path d="M8.167 15.315c-3.767 0-6.834-3.067-6.834-6.833 0-3.767 3.067-6.834 6.834-6.834C11.933 1.648 15 4.715 15 8.482c0 3.766-3.067 6.833-6.833 6.833zm0-12.667a5.84 5.84 0 00-5.834 5.834 5.84 5.84 0 005.834 5.833A5.84 5.84 0 0014 8.482a5.84 5.84 0 00-5.833-5.834zm7 13.334a.495.495 0 01-.354-.147l-1.333-1.333a.503.503 0 010-.707.503.503 0 01.707 0l1.333 1.334a.503.503 0 010 .706c-.1.1-.227.147-.353.147z" fill="#54555B"/></svg>