<svg width="25" height="25" fill="none" xmlns="http://www.w3.org/2000/svg"><path d="M17.5 21.75h-10c-3.65 0-5.75-2.1-5.75-5.75V9c0-3.65 2.1-5.75 5.75-5.75h10c3.65 0 5.75 2.1 5.75 5.75v7c0 3.65-2.1 5.75-5.75 5.75zm-10-17C4.64 4.75 3.25 6.14 3.25 9v7c0 2.86 1.39 4.25 4.25 4.25h10c2.86 0 4.25-1.39 4.25-4.25V9c0-2.86-1.39-4.25-4.25-4.25h-10z" fill="#A4A4A4"/><path d="M12.5 13.37c-.84 0-1.69-.26-2.34-.79l-3.13-2.5a.748.748 0 01.93-1.17l3.13 2.5c.76.61 2.05.61 2.81 0l3.13-2.5c.32-.26.8-.21 1.05.12.26.32.21.8-.12 1.05l-3.13 2.5c-.64.53-1.49.79-2.33.79z" fill="#A4A4A4"/></svg>