<svg width="17" height="16" fill="none" xmlns="http://www.w3.org/2000/svg"><path d="M3.667 4.315a.5.5 0 01.5-.5h6a.5.5 0 110 1h-6a.5.5 0 01-.5-.5zm0 2a.5.5 0 01.5-.5h6a.5.5 0 110 1h-6a.5.5 0 01-.5-.5zm0 2a.5.5 0 01.5-.5h6a.5.5 0 110 1h-6a.5.5 0 01-.5-.5zm0 2a.5.5 0 01.5-.5h6a.5.5 0 110 1h-6a.5.5 0 01-.5-.5zm0 2a.5.5 0 01.5-.5h6a.5.5 0 110 1h-6a.5.5 0 01-.5-.5zm8.5-8.5a.5.5 0 000 1h1a.5.5 0 100-1h-1zm0 2a.5.5 0 000 1h1a.5.5 0 100-1h-1zm0 2a.5.5 0 000 1h1a.5.5 0 100-1h-1zm0 2a.5.5 0 000 1h1a.5.5 0 100-1h-1zm0 2a.5.5 0 000 1h1a.5.5 0 100-1h-1z" fill="#333"/><path d="M3.02.462a.5.5 0 00-.8.13l-.5 1a.5.5 0 00-.053.223v13h-.5a.5.5 0 000 1h15a.5.5 0 100-1h-.5v-13a.5.5 0 00-.053-.223l-.5-1a.5.5 0 00-.8-.13l-.647.646-.647-.646a.5.5 0 00-.707 0l-.646.646-.647-.646a.5.5 0 00-.707 0l-.646.646L9.02.462a.5.5 0 00-.707 0l-.646.646L7.02.462a.5.5 0 00-.707 0l-.646.646L5.02.462a.5.5 0 00-.707 0l-.646.646L3.02.462zM2.804 1.66l.51.509a.5.5 0 00.706 0l.647-.646.646.646a.5.5 0 00.707 0l.647-.646.646.646a.5.5 0 00.707 0l.647-.646.646.646a.5.5 0 00.707 0l.647-.646.646.646a.5.5 0 00.707 0l.647-.646.646.646a.5.5 0 00.707 0l.51-.51.137.274v12.882h-12V1.933l.137-.273z" fill="#333"/></svg>