<svg width="16" height="16" fill="none" xmlns="http://www.w3.org/2000/svg"><path d="M8 9.167a.504.504 0 01-.5-.5v-3.5c0-.274.227-.5.5-.5s.5.226.5.5v3.5c0 .273-.227.5-.5.5zM8 11.5a.66.66 0 01-.473-.193.972.972 0 01-.146-.22.657.657 0 01-.047-.254c0-.173.073-.346.193-.473a.698.698 0 01.947 0c.12.127.193.3.193.473 0 .087-.02.174-.053.254a.769.769 0 01-.14.22.66.66 0 01-.473.193z" fill="#FF4C13" fill-opacity=".75"/><path d="M8 15.167c-.447 0-.9-.114-1.3-.347l-3.96-2.287a2.618 2.618 0 01-1.3-2.253V5.72c0-.927.5-1.787 1.3-2.253L6.7 1.18a2.59 2.59 0 012.6 0l3.96 2.287c.8.466 1.3 1.326 1.3 2.253v4.56c0 .927-.5 1.787-1.3 2.253L9.3 14.82a2.59 2.59 0 01-1.3.347zM8 1.833c-.274 0-.554.074-.8.214L3.24 4.333c-.494.287-.8.814-.8 1.387v4.56c0 .567.306 1.1.8 1.387l3.96 2.286a1.584 1.584 0 001.593 0l3.96-2.286c.493-.287.8-.814.8-1.387V5.72c0-.567-.307-1.1-.8-1.387l-3.96-2.286a1.59 1.59 0 00-.794-.214z" fill="#FF4C13" fill-opacity=".75"/></svg>