<svg width="32" height="32" fill="none" xmlns="http://www.w3.org/2000/svg"><path opacity=".4" d="M16 29.334c7.364 0 13.333-5.97 13.333-13.334 0-7.363-5.97-13.333-13.333-13.333C8.636 2.667 2.667 8.637 2.667 16c0 7.364 5.97 13.334 13.333 13.334z" fill="#fff"/><path d="M17.413 16l3.067-3.066a1.006 1.006 0 000-1.413 1.006 1.006 0 00-1.413 0L16 14.587l-3.067-3.066a1.006 1.006 0 00-1.413 0 1.006 1.006 0 000 1.413L14.587 16l-3.067 3.067a1.006 1.006 0 000 1.413c.2.2.453.294.707.294a.989.989 0 00.706-.294L16 17.415l3.067 3.066c.2.2.453.294.706.294a.99.99 0 00.707-.294 1.006 1.006 0 000-1.413L17.413 16z" fill="#fff"/></svg>