<svg width="16" height="17" viewBox="0 0 16 17" fill="none" xmlns="http://www.w3.org/2000/svg">
  <path d="M7.99992 15.6668C4.04659 15.6668 0.833252 12.4535 0.833252 8.50016C0.833252 4.54683 4.04659 1.3335 7.99992 1.3335C11.9533 1.3335 15.1666 4.54683 15.1666 8.50016C15.1666 12.4535 11.9533 15.6668 7.99992 15.6668ZM7.99992 2.3335C4.59992 2.3335 1.83325 5.10016 1.83325 8.50016C1.83325 11.9002 4.59992 14.6668 7.99992 14.6668C11.3999 14.6668 14.1666 11.9002 14.1666 8.50016C14.1666 5.10016 11.3999 2.3335 7.99992 2.3335Z" fill="#54555B"/>
  <path d="M10.6666 9H5.33325C5.05992 9 4.83325 8.77333 4.83325 8.5C4.83325 8.22667 5.05992 8 5.33325 8H10.6666C10.9399 8 11.1666 8.22667 11.1666 8.5C11.1666 8.77333 10.9399 9 10.6666 9Z" fill="#54555B"/>
  <path d="M8 11.6668C7.72667 11.6668 7.5 11.4402 7.5 11.1668V5.8335C7.5 5.56016 7.72667 5.3335 8 5.3335C8.27333 5.3335 8.5 5.56016 8.5 5.8335V11.1668C8.5 11.4402 8.27333 11.6668 8 11.6668Z" fill="#54555B"/>
</svg>
