<svg width="24" height="24" viewBox="0 0 24 24" fill="none" xmlns="http://www.w3.org/2000/svg">
<path fill-rule="evenodd" clip-rule="evenodd" d="M6.96912 21.5309C6.89927 21.4612 6.84386 21.3784 6.80605 21.2873C6.76824 21.1962 6.74878 21.0985 6.74878 20.9999C6.74878 20.9012 6.76824 20.8035 6.80605 20.7124C6.84386 20.6213 6.89927 20.5385 6.96912 20.4689L15.4396 11.9999L6.96912 3.53088C6.89939 3.46115 6.84407 3.37837 6.80633 3.28726C6.7686 3.19615 6.74917 3.0985 6.74917 2.99988C6.74917 2.90127 6.7686 2.80362 6.80633 2.71251C6.84407 2.6214 6.89939 2.53861 6.96912 2.46888C7.03885 2.39915 7.12164 2.34384 7.21274 2.3061C7.30385 2.26836 7.4015 2.24894 7.50012 2.24894C7.59874 2.24894 7.69639 2.26836 7.7875 2.3061C7.8786 2.34384 7.96139 2.39915 8.03112 2.46888L17.0311 11.4689C17.101 11.5386 17.1564 11.6213 17.1942 11.7124C17.232 11.8035 17.2515 11.9012 17.2515 11.9999C17.2515 12.0985 17.232 12.1962 17.1942 12.2873C17.1564 12.3784 17.101 12.4612 17.0311 12.5309L8.03112 21.5309C7.96145 21.6007 7.87869 21.6561 7.78757 21.6939C7.69645 21.7318 7.59877 21.7512 7.50012 21.7512C7.40147 21.7512 7.30379 21.7318 7.21267 21.6939C7.12155 21.6561 7.03879 21.6007 6.96912 21.5309Z" fill="white"/>
</svg>
