<svg width="12" height="20" viewBox="0 0 12 20" fill="none" xmlns="http://www.w3.org/2000/svg">
<path fill-rule="evenodd" clip-rule="evenodd" d="M11.0311 0.46912C11.101 0.538789 11.1564 0.621552 11.1942 0.71267C11.232 0.803787 11.2515 0.901469 11.2515 1.00012C11.2515 1.09877 11.232 1.19645 11.1942 1.28757C11.1564 1.37869 11.101 1.46145 11.0311 1.53112L2.56062 10.0001L11.0311 18.4691C11.1009 18.5388 11.1562 18.6216 11.1939 18.7127C11.2316 18.8039 11.2511 18.9015 11.2511 19.0001C11.2511 19.0987 11.2316 19.1964 11.1939 19.2875C11.1562 19.3786 11.1009 19.4614 11.0311 19.5311C10.9614 19.6008 10.8786 19.6562 10.7875 19.6939C10.6964 19.7316 10.5987 19.7511 10.5001 19.7511C10.4015 19.7511 10.3039 19.7316 10.2127 19.6939C10.1216 19.6562 10.0389 19.6008 9.96912 19.5311L0.969125 10.5311C0.899281 10.4614 0.843867 10.3787 0.806057 10.2876C0.768247 10.1964 0.748786 10.0988 0.748786 10.0001C0.748786 9.90147 0.768247 9.80379 0.806058 9.71267C0.843867 9.62155 0.899281 9.53879 0.969125 9.46912L9.96912 0.46912C10.0388 0.399275 10.1216 0.343861 10.2127 0.306051C10.3038 0.268242 10.4015 0.248779 10.5001 0.248779C10.5988 0.248779 10.6965 0.268242 10.7876 0.306051C10.8787 0.343861 10.9615 0.399275 11.0311 0.46912Z" fill="white"/>
</svg>
