<svg width="34" height="34" viewBox="0 0 34 34" fill="none" xmlns="http://www.w3.org/2000/svg">
<path d="M24.7208 32.2292C23.1199 32.2292 21.4341 31.8467 19.6916 31.11C17.9916 30.3875 16.2774 29.3959 14.6058 28.1917C12.9483 26.9734 11.3474 25.6134 9.83159 24.1259C8.32992 22.61 6.96992 21.0092 5.76575 19.3659C4.54742 17.6659 3.56992 15.9659 2.87575 14.3225C2.13909 12.5659 1.77075 10.8659 1.77075 9.26504C1.77075 8.16004 1.96909 7.11171 2.35159 6.13421C2.74825 5.12837 3.38575 4.19337 4.24992 3.38587C5.34075 2.30921 6.58742 1.77087 7.91909 1.77087C8.47159 1.77087 9.03825 1.89837 9.51992 2.12504C10.0724 2.38004 10.5399 2.76254 10.8799 3.27254L14.1666 7.90504C14.4641 8.31587 14.6908 8.71254 14.8466 9.10921C15.0308 9.53421 15.1299 9.95921 15.1299 10.37C15.1299 10.9084 14.9741 11.4325 14.6766 11.9284C14.4641 12.3109 14.1383 12.7217 13.7274 13.1325L12.7641 14.1384C12.7783 14.1809 12.7924 14.2092 12.8066 14.2375C12.9766 14.535 13.3166 15.045 13.9683 15.81C14.6624 16.6034 15.3141 17.3259 15.9658 17.9917C16.8016 18.8134 17.4958 19.465 18.1474 20.0034C18.9549 20.6834 19.4791 21.0234 19.7908 21.1792L19.7624 21.25L20.7966 20.23C21.2358 19.7909 21.6608 19.465 22.0716 19.2525C22.8508 18.7709 23.8424 18.6859 24.8341 19.0967C25.2024 19.2525 25.5991 19.465 26.0241 19.7625L30.7274 23.1059C31.2516 23.46 31.6341 23.9134 31.8608 24.4517C32.0733 24.99 32.1724 25.4859 32.1724 25.9817C32.1724 26.6617 32.0166 27.3417 31.7191 27.9792C31.4216 28.6167 31.0533 29.1692 30.5858 29.6792C29.7783 30.5717 28.8999 31.2092 27.8799 31.62C26.9024 32.0167 25.8399 32.2292 24.7208 32.2292ZM7.91909 3.89587C7.13992 3.89587 6.41742 4.23587 5.72325 4.91587C5.07159 5.52504 4.61825 6.19087 4.33492 6.91337C4.03742 7.65004 3.89575 8.42921 3.89575 9.26504C3.89575 10.5825 4.20742 12.0134 4.83075 13.4867C5.46825 14.9884 6.36075 16.5467 7.49409 18.105C8.62742 19.6634 9.91659 21.1792 11.3333 22.61C12.7499 24.0125 14.2799 25.3159 15.8524 26.4634C17.3824 27.5825 18.9549 28.4892 20.5133 29.1409C22.9358 30.175 25.2024 30.4159 27.0724 29.6367C27.7949 29.3392 28.4324 28.8859 29.0133 28.2342C29.3391 27.88 29.5941 27.4975 29.8066 27.0442C29.9766 26.69 30.0616 26.3217 30.0616 25.9534C30.0616 25.7267 30.0191 25.5 29.9058 25.245C29.8633 25.16 29.7783 25.0042 29.5091 24.82L24.8058 21.4767C24.5224 21.2784 24.2674 21.1367 24.0266 21.0375C23.7149 20.91 23.5874 20.7825 23.1058 21.08C22.8224 21.2217 22.5674 21.4342 22.2841 21.7175L21.2074 22.78C20.6549 23.3184 19.8049 23.4459 19.1533 23.205L18.7708 23.035C18.1899 22.7234 17.5099 22.2417 16.7591 21.6042C16.0791 21.0234 15.3424 20.3434 14.4499 19.465C13.7558 18.7567 13.0616 18.0059 12.3391 17.17C11.6733 16.3909 11.1916 15.725 10.8941 15.1725L10.7241 14.7475C10.6391 14.4217 10.6108 14.2375 10.6108 14.0392C10.6108 13.5292 10.7949 13.0759 11.1491 12.7217L12.2116 11.6167C12.4949 11.3334 12.7074 11.0642 12.8491 10.8234C12.9624 10.6392 13.0049 10.4834 13.0049 10.3417C13.0049 10.2284 12.9624 10.0584 12.8916 9.88837C12.7924 9.66171 12.6366 9.40671 12.4383 9.13754L9.15159 4.49087C9.00992 4.29254 8.83992 4.15087 8.62742 4.05171C8.40075 3.95254 8.15992 3.89587 7.91909 3.89587ZM19.7624 21.2642L19.5358 22.2275L19.9183 21.2359C19.8474 21.2217 19.7908 21.2359 19.7624 21.2642Z" fill="#262626"/>
<path d="M26.2083 13.8125C25.6275 13.8125 25.1458 13.3308 25.1458 12.75C25.1458 12.24 24.6358 11.1775 23.7858 10.2708C22.95 9.37829 22.0292 8.85413 21.25 8.85413C20.6692 8.85413 20.1875 8.37246 20.1875 7.79163C20.1875 7.21079 20.6692 6.72913 21.25 6.72913C22.6242 6.72913 24.0692 7.46579 25.33 8.81163C26.5058 10.0725 27.2708 11.6166 27.2708 12.75C27.2708 13.3308 26.7892 13.8125 26.2083 13.8125Z" fill="#262626"/>
<path d="M31.1667 13.8125C30.5858 13.8125 30.1042 13.3309 30.1042 12.75C30.1042 7.86254 26.1375 3.89587 21.25 3.89587C20.6692 3.89587 20.1875 3.41421 20.1875 2.83337C20.1875 2.25254 20.6692 1.77087 21.25 1.77087C27.2992 1.77087 32.2292 6.70087 32.2292 12.75C32.2292 13.3309 31.7475 13.8125 31.1667 13.8125Z" fill="#262626"/>
</svg>
