<svg width="80" height="80" viewBox="0 0 80 80" fill="none" xmlns="http://www.w3.org/2000/svg">
<path d="M40 75C20.67 75 5 59.33 5 40C5 20.67 20.67 5 40 5C59.33 5 75 20.67 75 40C75 59.33 59.33 75 40 75ZM40 80C62.0914 80 80 62.0914 80 40C80 17.9086 62.0914 0 40 0C17.9086 0 0 17.9086 0 40C0 62.0914 17.9086 80 40 80Z" fill="#26AD60"/>
<path d="M54.8483 24.8483C54.8129 24.8837 54.7797 24.9212 54.7488 24.9605L37.387 47.0837L26.9194 36.6161C25.4549 35.1516 23.0805 35.1516 21.6161 36.6161C20.1516 38.0806 20.1516 40.455 21.6161 41.9194L34.8483 55.1517C36.3128 56.6161 38.6872 56.6161 40.1516 55.1516C40.1842 55.119 40.215 55.0847 40.2438 55.0486L60.2048 30.0974C61.6159 28.6291 61.5981 26.2949 60.1516 24.8483C58.6871 23.3839 56.3128 23.3839 54.8483 24.8483Z" fill="#26AD60"/>
</svg>
