<svg width="24" height="25" viewBox="0 0 24 25" fill="none" xmlns="http://www.w3.org/2000/svg">
<rect x="0.5" y="1.28003" width="23" height="23" rx="11.5" fill="#F0F0F0"/>
<path d="M14 18.655H10C8.175 18.655 7.125 17.605 7.125 15.78V10.78C7.125 8.95503 8.175 7.90503 10 7.90503H14C15.825 7.90503 16.875 8.95503 16.875 10.78V15.78C16.875 17.605 15.825 18.655 14 18.655ZM10 8.65503C8.57 8.65503 7.875 9.35003 7.875 10.78V15.78C7.875 17.21 8.57 17.905 10 17.905H14C15.43 17.905 16.125 17.21 16.125 15.78V10.78C16.125 9.35003 15.43 8.65503 14 8.65503H10Z" fill="#54555B"/>
<path d="M15.25 11.905H14.25C13.49 11.905 12.875 11.29 12.875 10.53V9.53003C12.875 9.32503 13.045 9.15503 13.25 9.15503C13.455 9.15503 13.625 9.32503 13.625 9.53003V10.53C13.625 10.875 13.905 11.155 14.25 11.155H15.25C15.455 11.155 15.625 11.325 15.625 11.53C15.625 11.735 15.455 11.905 15.25 11.905Z" fill="#54555B"/>
<path d="M12 14.155H10C9.795 14.155 9.625 13.985 9.625 13.78C9.625 13.575 9.795 13.405 10 13.405H12C12.205 13.405 12.375 13.575 12.375 13.78C12.375 13.985 12.205 14.155 12 14.155Z" fill="#292D32"/>
<path d="M14 16.155H10C9.795 16.155 9.625 15.985 9.625 15.78C9.625 15.575 9.795 15.405 10 15.405H14C14.205 15.405 14.375 15.575 14.375 15.78C14.375 15.985 14.205 16.155 14 16.155Z" fill="#292D32"/>
<rect x="0.5" y="1.28003" width="23" height="23" rx="11.5" stroke="#E8E8E8"/>
</svg>
