<svg width="81" height="81" viewBox="0 0 81 81" fill="none" xmlns="http://www.w3.org/2000/svg">
<path d="M40.5 75.8154C21.17 75.8154 5.5 60.1454 5.5 40.8154C5.5 21.4855 21.17 5.81543 40.5 5.81543C59.83 5.81543 75.5 21.4855 75.5 40.8154C75.5 60.1454 59.83 75.8154 40.5 75.8154ZM40.5 80.8154C62.5914 80.8154 80.5 62.9068 80.5 40.8154C80.5 18.724 62.5914 0.81543 40.5 0.81543C18.4086 0.81543 0.5 18.724 0.5 40.8154C0.5 62.9068 18.4086 80.8154 40.5 80.8154Z" fill="#E20000"/>
<path d="M35.5077 55.8154C35.5077 53.054 37.7463 50.8154 40.5077 50.8154C43.2691 50.8154 45.5077 53.054 45.5077 55.8154C45.5077 58.5769 43.2691 60.8154 40.5077 60.8154C37.7463 60.8154 35.5077 58.5769 35.5077 55.8154Z" fill="#E20000"/>
<path d="M35.9975 25.7906C35.7311 23.1269 37.8229 20.8154 40.5 20.8154C43.1771 20.8154 45.2689 23.1268 45.0025 25.7906L43.2488 43.3278C43.1075 44.74 41.9192 45.8154 40.5 45.8154C39.0808 45.8154 37.8925 44.74 37.7512 43.3278L35.9975 25.7906Z" fill="#E20000"/>
</svg>
