<svg width="17" height="17" viewBox="0 0 17 17" fill="none" xmlns="http://www.w3.org/2000/svg">
<g id="vuesax/bold/eye">
<path id="Vector" d="M14.4998 6.91587C12.9598 4.49587 10.7065 3.10254 8.33317 3.10254C7.1465 3.10254 5.99317 3.44921 4.93984 4.09587C3.8865 4.74921 2.93984 5.70254 2.1665 6.91587C1.49984 7.96254 1.49984 9.66254 2.1665 10.7092C3.7065 13.1359 5.95984 14.5225 8.33317 14.5225C9.51984 14.5225 10.6732 14.1759 11.7265 13.5292C12.7798 12.8759 13.7265 11.9225 14.4998 10.7092C15.1665 9.66921 15.1665 7.96254 14.4998 6.91587ZM8.33317 11.5092C6.83984 11.5092 5.63984 10.3025 5.63984 8.81587C5.63984 7.32921 6.83984 6.12254 8.33317 6.12254C9.8265 6.12254 11.0265 7.32921 11.0265 8.81587C11.0265 10.3025 9.8265 11.5092 8.33317 11.5092Z" fill="#333333"/>
<path id="Vector_2" d="M8.33335 6.90918C7.28668 6.90918 6.43335 7.76251 6.43335 8.81585C6.43335 9.86251 7.28668 10.7158 8.33335 10.7158C9.38002 10.7158 10.24 9.86251 10.24 8.81585C10.24 7.76918 9.38002 6.90918 8.33335 6.90918Z" fill="#333333"/>
</g>
</svg>
