<svg width="16" height="17" viewBox="0 0 16 17" fill="none" xmlns="http://www.w3.org/2000/svg">
<path d="M11.3334 15.6666H4.66671C1.72671 15.6666 0.833374 14.7733 0.833374 11.8333V10.5C0.833374 7.55996 1.72671 6.66663 4.66671 6.66663H11.3334C14.2734 6.66663 15.1667 7.55996 15.1667 10.5V11.8333C15.1667 14.7733 14.2734 15.6666 11.3334 15.6666ZM4.66671 7.66663C2.28004 7.66663 1.83337 8.11996 1.83337 10.5V11.8333C1.83337 14.2133 2.28004 14.6666 4.66671 14.6666H11.3334C13.72 14.6666 14.1667 14.2133 14.1667 11.8333V10.5C14.1667 8.11996 13.72 7.66663 11.3334 7.66663H4.66671Z" fill="#A4A4A4"/>
<path d="M4 7.66671C3.72667 7.66671 3.5 7.44004 3.5 7.16671V5.83337C3.5 3.90004 3.96667 1.33337 8 1.33337C10.9867 1.33337 12.5 2.62004 12.5 5.16671C12.5 5.44004 12.2733 5.66671 12 5.66671C11.7267 5.66671 11.5 5.44004 11.5 5.16671C11.5 3.84671 11.1 2.33337 8 2.33337C5.09333 2.33337 4.5 3.73337 4.5 5.83337V7.16671C4.5 7.44004 4.27333 7.66671 4 7.66671Z" fill="#A4A4A4"/>
<path d="M8.00004 13.3333C6.80671 13.3333 5.83337 12.36 5.83337 11.1667C5.83337 9.97333 6.80671 9 8.00004 9C9.19337 9 10.1667 9.97333 10.1667 11.1667C10.1667 12.36 9.19337 13.3333 8.00004 13.3333ZM8.00004 10C7.36004 10 6.83337 10.5267 6.83337 11.1667C6.83337 11.8067 7.36004 12.3333 8.00004 12.3333C8.64004 12.3333 9.16671 11.8067 9.16671 11.1667C9.16671 10.5267 8.64004 10 8.00004 10Z" fill="#A4A4A4"/>
</svg>
