<svg width="18" height="18" viewBox="0 0 18 18" fill="none" xmlns="http://www.w3.org/2000/svg">
<path d="M17.6485 7.36875H9.18054V10.8492H14.018C13.8094 11.9742 13.1766 12.9258 12.2227 13.5633C11.4165 14.1023 10.3876 14.4211 9.1782 14.4211C6.83679 14.4211 4.85632 12.8391 4.14851 10.7133C3.97039 10.1742 3.86726 9.59766 3.86726 9.00469C3.86726 8.41172 3.97039 7.83516 4.14851 7.29609C4.85867 5.17266 6.83914 3.59063 9.18054 3.59063C10.5001 3.59063 11.6837 4.04531 12.6165 4.93594L15.1946 2.35547C13.636 0.902344 11.604 0.0117188 9.18054 0.0117188C5.66726 0.0117188 2.62742 2.02734 1.14851 4.96641C0.539136 6.18047 0.192261 7.55391 0.192261 9.00703C0.192261 10.4602 0.539136 11.8312 1.14851 13.0453C2.62742 15.9844 5.66726 18 9.18054 18C11.6087 18 13.643 17.1938 15.129 15.8203C16.8282 14.2547 17.8102 11.9484 17.8102 9.20859C17.8102 8.57109 17.754 7.95937 17.6485 7.36875Z" fill="white"/>
</svg>
