<svg width="30" height="31" viewBox="0 0 30 31" fill="none" xmlns="http://www.w3.org/2000/svg">
<g clip-path="url(#clip0_672_97580)">
<mask id="path-1-inside-1_672_97580" fill="white">
<path d="M15.9644 24.8512C15.9644 25.5348 16.5205 26.091 17.2042 26.091C17.8879 26.091 18.444 25.5348 18.444 24.8512C18.444 24.1676 17.8879 23.6113 17.2042 23.6113C16.5205 23.6113 15.9644 24.1676 15.9644 24.8512ZM17.5633 24.8512C17.5633 25.0493 17.4022 25.2104 17.2041 25.2104C17.006 25.2104 16.845 25.0493 16.845 24.8512C16.845 24.6531 17.0061 24.492 17.2041 24.492C17.4022 24.492 17.5633 24.6531 17.5633 24.8512Z"/>
</mask>
<path d="M15.9644 24.8512C15.9644 25.5348 16.5205 26.091 17.2042 26.091C17.8879 26.091 18.444 25.5348 18.444 24.8512C18.444 24.1676 17.8879 23.6113 17.2042 23.6113C16.5205 23.6113 15.9644 24.1676 15.9644 24.8512ZM17.5633 24.8512C17.5633 25.0493 17.4022 25.2104 17.2041 25.2104C17.006 25.2104 16.845 25.0493 16.845 24.8512C16.845 24.6531 17.0061 24.492 17.2041 24.492C17.4022 24.492 17.5633 24.6531 17.5633 24.8512Z" fill="#54555B"/>
<path d="M14.9644 24.8512C14.9644 26.0871 15.9683 27.091 17.2042 27.091V25.091C17.0728 25.091 16.9644 24.9825 16.9644 24.8512H14.9644ZM17.2042 27.091C18.4402 27.091 19.444 26.087 19.444 24.8512H17.444C17.444 24.9825 17.3356 25.091 17.2042 25.091V27.091ZM19.444 24.8512C19.444 23.6154 18.4402 22.6113 17.2042 22.6113V24.6113C17.3355 24.6113 17.444 24.7198 17.444 24.8512H19.444ZM17.2042 22.6113C15.9682 22.6113 14.9644 23.6153 14.9644 24.8512H16.9644C16.9644 24.7198 17.0728 24.6113 17.2042 24.6113V22.6113ZM16.5633 24.8512C16.5633 24.4971 16.8498 24.2104 17.2041 24.2104V26.2104C17.9546 26.2104 18.5633 25.6015 18.5633 24.8512H16.5633ZM17.2041 24.2104C17.5583 24.2104 17.845 24.497 17.845 24.8512H15.845C15.845 25.6016 16.4538 26.2104 17.2041 26.2104V24.2104ZM17.845 24.8512C17.845 25.2055 17.5583 25.492 17.2041 25.492V23.492C16.4539 23.492 15.845 24.1007 15.845 24.8512H17.845ZM17.2041 25.492C16.8498 25.492 16.5633 25.2052 16.5633 24.8512H18.5633C18.5633 24.1009 17.9546 23.492 17.2041 23.492V25.492Z" fill="#54555B" mask="url(#path-1-inside-1_672_97580)"/>
<mask id="path-3-inside-2_672_97580" fill="white">
<path d="M18.8918 2.77751C19.1351 2.77751 19.3322 2.58041 19.3322 2.33718C19.3322 2.09396 19.1351 1.89685 18.8918 1.89685H17.1112C16.868 1.89685 16.6709 2.09396 16.6709 2.33718C16.6709 2.58041 16.868 2.77751 17.1112 2.77751H18.8918Z"/>
</mask>
<path d="M18.8918 2.77751C19.1351 2.77751 19.3322 2.58041 19.3322 2.33718C19.3322 2.09396 19.1351 1.89685 18.8918 1.89685H17.1112C16.868 1.89685 16.6709 2.09396 16.6709 2.33718C16.6709 2.58041 16.868 2.77751 17.1112 2.77751H18.8918Z" fill="#54555B"/>
<path d="M18.8918 3.77751C19.6873 3.77751 20.3322 3.13269 20.3322 2.33718H18.3322C18.3322 2.02812 18.5828 1.77751 18.8918 1.77751V3.77751ZM20.3322 2.33718C20.3322 1.54168 19.6873 0.896851 18.8918 0.896851V2.89685C18.5828 2.89685 18.3322 2.64624 18.3322 2.33718H20.3322ZM18.8918 0.896851H17.1112V2.89685H18.8918V0.896851ZM17.1112 0.896851C16.3157 0.896851 15.6709 1.54167 15.6709 2.33718H17.6709C17.6709 2.64625 17.4203 2.89685 17.1112 2.89685V0.896851ZM15.6709 2.33718C15.6709 3.13269 16.3157 3.77751 17.1112 3.77751V1.77751C17.4203 1.77751 17.6709 2.02812 17.6709 2.33718H15.6709ZM17.1112 3.77751H18.8918V1.77751H17.1112V3.77751Z" fill="#54555B" mask="url(#path-3-inside-2_672_97580)"/>
<path d="M15.616 2.39685C15.5848 2.39685 15.5596 2.37162 15.5596 2.34046C15.5596 2.30947 15.5847 2.28413 15.616 2.28408C15.616 2.28408 15.616 2.28408 15.6161 2.28408C15.6161 2.28408 15.6161 2.28408 15.6161 2.28408C15.6472 2.28414 15.6724 2.30936 15.6724 2.34046C15.6724 2.3716 15.6472 2.3968 15.6161 2.39685C15.616 2.39685 15.616 2.39685 15.616 2.39685Z" fill="#54555B" stroke="#54555B"/>
<mask id="path-6-inside-3_672_97580" fill="white">
<path d="M25.1232 0.5H9.28466C7.99642 0.5 6.94829 1.54813 6.94829 2.83637V7.83857C6.94829 8.0818 7.1454 8.27891 7.38863 8.27891C7.63185 8.27891 7.82896 8.0818 7.82896 7.83857V2.83637C7.82896 2.03363 8.48199 1.38066 9.28466 1.38066H25.1232C25.9259 1.38066 26.5788 2.03369 26.5788 2.83637V24.9377C26.5788 25.7404 25.9258 26.3934 25.1232 26.3934H10.4807C10.9202 25.4899 11.1205 24.5156 11.0755 23.4939H25.4636C25.7068 23.4939 25.904 23.2968 25.904 23.0536V18.3001C25.904 18.0569 25.7068 17.8597 25.4636 17.8597C25.2204 17.8597 25.0233 18.0569 25.0233 18.3001V22.6133H10.9781C10.942 22.4092 10.8968 22.2037 10.842 21.9967C10.4937 20.6824 9.8645 19.6842 9.59333 19.2944C9.73531 18.7043 10.1601 16.9073 10.4599 15.3195C10.661 14.2544 10.2996 13.5559 9.96107 13.1574C9.80585 12.9747 9.60546 12.8425 9.38456 12.7701V4.19029H25.0233V16.5388C25.0233 16.782 25.2204 16.9791 25.4636 16.9791C25.7068 16.9791 25.904 16.782 25.904 16.5388V3.75002C25.904 3.5068 25.7068 3.30969 25.4636 3.30969H8.94417C8.70095 3.30969 8.50384 3.5068 8.50384 3.75002V12.8008C8.22622 12.9133 7.99314 13.1204 7.85017 13.3925L7.82884 13.4331V9.59984C7.82884 9.35662 7.63173 9.15951 7.38851 9.15951C7.14529 9.15951 6.94818 9.35662 6.94818 9.59984V15.1094L4.70562 19.3783C4.28292 20.1829 4.13451 21.1194 4.28779 22.0153L4.55527 23.579C4.76017 24.7765 4.56593 26.0305 4.00841 27.1099L2.58915 29.8576C2.51867 29.9941 2.52435 30.1575 2.60427 30.2887C2.68413 30.4199 2.82669 30.5 2.98033 30.5H13.2613C13.4066 30.5 13.5427 30.4283 13.6248 30.3083L14.4301 29.1308C15.0253 28.9861 16.9495 28.445 18.0972 27.274H25.1233C26.4115 27.274 27.4596 26.2259 27.4596 24.9376V2.83637C27.4595 1.54813 26.4114 0.5 25.1232 0.5ZM14.0749 28.3089C13.9632 28.3319 13.8648 28.3974 13.8004 28.4915L13.029 29.6194H3.70337L4.79087 27.5141C5.43564 26.2657 5.66029 24.8154 5.42333 23.4305L5.15585 21.8668C5.03503 21.1605 5.15199 20.4222 5.48527 19.7879L8.62988 13.802C8.74976 13.5545 9.11878 13.5117 9.28999 13.7275C9.60177 14.0945 9.70431 14.5751 9.59456 15.156C9.23609 17.0548 8.69538 19.2613 8.68999 19.2833C8.65788 19.4141 8.68771 19.5528 8.77033 19.6591C8.77865 19.6698 9.60611 20.746 9.99798 22.2496C10.5089 24.2104 10.0709 25.9565 8.69609 27.4396C8.53074 27.6179 8.54128 27.8965 8.71964 28.0618C8.89794 28.2271 9.17656 28.2167 9.34185 28.0382C9.5706 27.7914 9.77638 27.5363 9.96048 27.2739H16.6865C15.5274 28 14.0932 28.3051 14.0749 28.3089Z"/>
</mask>
<path d="M25.1232 0.5H9.28466C7.99642 0.5 6.94829 1.54813 6.94829 2.83637V7.83857C6.94829 8.0818 7.1454 8.27891 7.38863 8.27891C7.63185 8.27891 7.82896 8.0818 7.82896 7.83857V2.83637C7.82896 2.03363 8.48199 1.38066 9.28466 1.38066H25.1232C25.9259 1.38066 26.5788 2.03369 26.5788 2.83637V24.9377C26.5788 25.7404 25.9258 26.3934 25.1232 26.3934H10.4807C10.9202 25.4899 11.1205 24.5156 11.0755 23.4939H25.4636C25.7068 23.4939 25.904 23.2968 25.904 23.0536V18.3001C25.904 18.0569 25.7068 17.8597 25.4636 17.8597C25.2204 17.8597 25.0233 18.0569 25.0233 18.3001V22.6133H10.9781C10.942 22.4092 10.8968 22.2037 10.842 21.9967C10.4937 20.6824 9.8645 19.6842 9.59333 19.2944C9.73531 18.7043 10.1601 16.9073 10.4599 15.3195C10.661 14.2544 10.2996 13.5559 9.96107 13.1574C9.80585 12.9747 9.60546 12.8425 9.38456 12.7701V4.19029H25.0233V16.5388C25.0233 16.782 25.2204 16.9791 25.4636 16.9791C25.7068 16.9791 25.904 16.782 25.904 16.5388V3.75002C25.904 3.5068 25.7068 3.30969 25.4636 3.30969H8.94417C8.70095 3.30969 8.50384 3.5068 8.50384 3.75002V12.8008C8.22622 12.9133 7.99314 13.1204 7.85017 13.3925L7.82884 13.4331V9.59984C7.82884 9.35662 7.63173 9.15951 7.38851 9.15951C7.14529 9.15951 6.94818 9.35662 6.94818 9.59984V15.1094L4.70562 19.3783C4.28292 20.1829 4.13451 21.1194 4.28779 22.0153L4.55527 23.579C4.76017 24.7765 4.56593 26.0305 4.00841 27.1099L2.58915 29.8576C2.51867 29.9941 2.52435 30.1575 2.60427 30.2887C2.68413 30.4199 2.82669 30.5 2.98033 30.5H13.2613C13.4066 30.5 13.5427 30.4283 13.6248 30.3083L14.4301 29.1308C15.0253 28.9861 16.9495 28.445 18.0972 27.274H25.1233C26.4115 27.274 27.4596 26.2259 27.4596 24.9376V2.83637C27.4595 1.54813 26.4114 0.5 25.1232 0.5ZM14.0749 28.3089C13.9632 28.3319 13.8648 28.3974 13.8004 28.4915L13.029 29.6194H3.70337L4.79087 27.5141C5.43564 26.2657 5.66029 24.8154 5.42333 23.4305L5.15585 21.8668C5.03503 21.1605 5.15199 20.4222 5.48527 19.7879L8.62988 13.802C8.74976 13.5545 9.11878 13.5117 9.28999 13.7275C9.60177 14.0945 9.70431 14.5751 9.59456 15.156C9.23609 17.0548 8.69538 19.2613 8.68999 19.2833C8.65788 19.4141 8.68771 19.5528 8.77033 19.6591C8.77865 19.6698 9.60611 20.746 9.99798 22.2496C10.5089 24.2104 10.0709 25.9565 8.69609 27.4396C8.53074 27.6179 8.54128 27.8965 8.71964 28.0618C8.89794 28.2271 9.17656 28.2167 9.34185 28.0382C9.5706 27.7914 9.77638 27.5363 9.96048 27.2739H16.6865C15.5274 28 14.0932 28.3051 14.0749 28.3089Z" fill="#54555B"/>
<path d="M10.4807 26.3934L9.5815 25.9559L8.88221 27.3934H10.4807V26.3934ZM11.0755 23.4939V22.4939H10.0304L10.0764 23.538L11.0755 23.4939ZM25.0233 22.6133V23.6133H26.0233V22.6133H25.0233ZM10.9781 22.6133L9.99331 22.7872L10.1392 23.6133H10.9781V22.6133ZM10.842 21.9967L9.87532 22.2528L9.87533 22.2529L10.842 21.9967ZM9.59333 19.2944L8.62107 19.0605L8.51608 19.497L8.77242 19.8655L9.59333 19.2944ZM10.4599 15.3195L11.4426 15.505L11.4426 15.505L10.4599 15.3195ZM9.96107 13.1574L9.19897 13.8049L9.19902 13.8049L9.96107 13.1574ZM9.38456 12.7701H8.38456V13.4946L9.07303 13.7204L9.38456 12.7701ZM9.38456 4.19029V3.19029H8.38456V4.19029H9.38456ZM25.0233 4.19029H26.0233V3.19029H25.0233V4.19029ZM8.50384 12.8008L8.87924 13.7277L9.50384 13.4747V12.8008H8.50384ZM7.85017 13.3925L6.96492 12.9274L6.96486 12.9275L7.85017 13.3925ZM7.82884 13.4331H6.82884L8.71415 13.8981L7.82884 13.4331ZM6.94818 15.1094L7.83346 15.5744L7.94818 15.356V15.1094H6.94818ZM4.70562 19.3783L5.59089 19.8434L5.5909 19.8434L4.70562 19.3783ZM4.28779 22.0153L5.27347 21.8467L5.27346 21.8467L4.28779 22.0153ZM4.55527 23.579L3.56958 23.7476L3.56959 23.7477L4.55527 23.579ZM4.00841 27.1099L4.89688 27.5689L4.8969 27.5688L4.00841 27.1099ZM2.58915 29.8576L1.70068 29.3986L1.7006 29.3988L2.58915 29.8576ZM2.60427 30.2887L3.45845 29.7687L3.45838 29.7686L2.60427 30.2887ZM13.6248 30.3083L14.4501 30.8729L14.4501 30.8728L13.6248 30.3083ZM14.4301 29.1308L14.1937 28.1592L13.8212 28.2498L13.6047 28.5663L14.4301 29.1308ZM18.0972 27.274V26.274H17.6771L17.383 26.574L18.0972 27.274ZM27.4596 2.83637H28.4596V2.83632L27.4596 2.83637ZM14.0749 28.3089L14.2768 29.2883L14.2789 29.2879L14.0749 28.3089ZM13.8004 28.4915L12.9752 27.9268L12.975 27.927L13.8004 28.4915ZM13.029 29.6194V30.6194H13.5565L13.8544 30.184L13.029 29.6194ZM3.70337 29.6194L2.8149 29.1605L2.0613 30.6194H3.70337V29.6194ZM4.79087 27.5141L5.67934 27.973L5.67937 27.9729L4.79087 27.5141ZM5.42333 23.4305L4.43765 23.5991L4.43766 23.5991L5.42333 23.4305ZM5.15585 21.8668L6.14154 21.6982L6.14154 21.6982L5.15585 21.8668ZM5.48527 19.7879L6.3705 20.253L6.37054 20.253L5.48527 19.7879ZM8.62988 13.802L9.51515 14.267L9.52274 14.2526L9.52986 14.2379L8.62988 13.802ZM9.28999 13.7275L8.5066 14.3491L8.51706 14.3622L8.52795 14.3751L9.28999 13.7275ZM9.59456 15.156L8.61195 14.9704L8.61192 14.9705L9.59456 15.156ZM8.68999 19.2833L9.66113 19.5219L9.66134 19.521L8.68999 19.2833ZM8.77033 19.6591L7.98078 20.2728L7.98191 20.2742L8.77033 19.6591ZM9.99798 22.2496L10.9657 21.9974L10.9657 21.9974L9.99798 22.2496ZM8.69609 27.4396L9.42932 28.1196L9.42945 28.1194L8.69609 27.4396ZM8.71964 28.0618L9.39949 27.3284L9.39937 27.3283L8.71964 28.0618ZM9.34185 28.0382L8.60844 27.3585L8.60827 27.3586L9.34185 28.0382ZM9.96048 27.2739V26.2739H9.44053L9.14189 26.6996L9.96048 27.2739ZM16.6865 27.2739L17.2173 28.1214L20.167 26.2739H16.6865V27.2739ZM25.1232 -0.5H9.28466V1.5H25.1232V-0.5ZM9.28466 -0.5C7.44413 -0.5 5.94829 0.99584 5.94829 2.83637H7.94829C7.94829 2.10041 8.5487 1.5 9.28466 1.5V-0.5ZM5.94829 2.83637V7.83857H7.94829V2.83637H5.94829ZM5.94829 7.83857C5.94829 8.63408 6.59312 9.27891 7.38863 9.27891V7.27891C7.69769 7.27891 7.94829 7.52951 7.94829 7.83857H5.94829ZM7.38863 9.27891C8.18413 9.27891 8.82896 8.63408 8.82896 7.83857H6.82896C6.82896 7.52951 7.07957 7.27891 7.38863 7.27891V9.27891ZM8.82896 7.83857V2.83637H6.82896V7.83857H8.82896ZM8.82896 2.83637C8.82896 2.58594 9.03424 2.38066 9.28466 2.38066V0.380664C7.92973 0.380664 6.82896 1.48132 6.82896 2.83637H8.82896ZM9.28466 2.38066H25.1232V0.380664H9.28466V2.38066ZM25.1232 2.38066C25.3735 2.38066 25.5788 2.58592 25.5788 2.83637H27.5788C27.5788 1.48146 26.4782 0.380664 25.1232 0.380664V2.38066ZM25.5788 2.83637V24.9377H27.5788V2.83637H25.5788ZM25.5788 24.9377C25.5788 25.1881 25.3735 25.3934 25.1232 25.3934V27.3934C26.4781 27.3934 27.5788 26.2927 27.5788 24.9377H25.5788ZM25.1232 25.3934H10.4807V27.3934H25.1232V25.3934ZM11.38 26.8309C11.8935 25.7753 12.1268 24.6352 12.0745 23.4499L10.0764 23.538C10.1143 24.396 9.94702 25.2046 9.5815 25.9559L11.38 26.8309ZM11.0755 24.4939H25.4636V22.4939H11.0755V24.4939ZM25.4636 24.4939C26.2591 24.4939 26.904 23.8491 26.904 23.0536H24.904C24.904 22.7446 25.1546 22.4939 25.4636 22.4939V24.4939ZM26.904 23.0536V18.3001H24.904V23.0536H26.904ZM26.904 18.3001C26.904 17.5046 26.2591 16.8597 25.4636 16.8597V18.8597C25.1546 18.8597 24.904 18.6091 24.904 18.3001H26.904ZM25.4636 16.8597C24.6681 16.8597 24.0233 17.5046 24.0233 18.3001H26.0233C26.0233 18.6091 25.7727 18.8597 25.4636 18.8597V16.8597ZM24.0233 18.3001V22.6133H26.0233V18.3001H24.0233ZM25.0233 21.6133H10.9781V23.6133H25.0233V21.6133ZM11.9628 22.4394C11.9219 22.2074 11.8706 21.9744 11.8086 21.7405L9.87533 22.2529C9.92305 22.4329 9.96221 22.611 9.99331 22.7872L11.9628 22.4394ZM11.8086 21.7406C11.4193 20.2711 10.7211 19.1645 10.4142 18.7234L8.77242 19.8655C9.0079 20.204 9.56821 21.0937 9.87532 22.2528L11.8086 21.7406ZM10.5656 19.5283C10.7082 18.9355 11.1379 17.1185 11.4426 15.505L9.4773 15.1339C9.18232 16.6961 8.7624 18.473 8.62107 19.0605L10.5656 19.5283ZM11.4426 15.505C11.7085 14.0966 11.2243 13.0997 10.7231 12.5099L9.19902 13.8049C9.37496 14.012 9.61356 14.4122 9.4773 15.1339L11.4426 15.505ZM10.7232 12.51C10.4465 12.1843 10.0892 11.9488 9.6961 11.8199L9.07303 13.7204C9.12171 13.7363 9.16519 13.7651 9.19897 13.8049L10.7232 12.51ZM10.3846 12.7701V4.19029H8.38456V12.7701H10.3846ZM9.38456 5.19029H25.0233V3.19029H9.38456V5.19029ZM24.0233 4.19029V16.5388H26.0233V4.19029H24.0233ZM24.0233 16.5388C24.0233 17.3343 24.6681 17.9791 25.4636 17.9791V15.9791C25.7727 15.9791 26.0233 16.2297 26.0233 16.5388H24.0233ZM25.4636 17.9791C26.2591 17.9791 26.904 17.3343 26.904 16.5388H24.904C24.904 16.2297 25.1546 15.9791 25.4636 15.9791V17.9791ZM26.904 16.5388V3.75002H24.904V16.5388H26.904ZM26.904 3.75002C26.904 2.95451 26.2591 2.30969 25.4636 2.30969V4.30969C25.1546 4.30969 24.904 4.05908 24.904 3.75002H26.904ZM25.4636 2.30969H8.94417V4.30969H25.4636V2.30969ZM8.94417 2.30969C8.14867 2.30969 7.50384 2.95451 7.50384 3.75002H9.50384C9.50384 4.05908 9.25324 4.30969 8.94417 4.30969V2.30969ZM7.50384 3.75002V12.8008H9.50384V3.75002H7.50384ZM8.12844 11.874C7.63514 12.0738 7.21964 12.4426 6.96492 12.9274L8.73542 13.8576C8.76663 13.7982 8.81731 13.7528 8.87924 13.7277L8.12844 11.874ZM6.96486 12.9275L6.94353 12.9681L8.71415 13.8981L8.73548 13.8575L6.96486 12.9275ZM8.82884 13.4331V9.59984H6.82884V13.4331H8.82884ZM8.82884 9.59984C8.82884 8.80434 8.18402 8.15951 7.38851 8.15951V10.1595C7.07945 10.1595 6.82884 9.90891 6.82884 9.59984H8.82884ZM7.38851 8.15951C6.593 8.15951 5.94818 8.80434 5.94818 9.59984H7.94818C7.94818 9.90891 7.69757 10.1595 7.38851 10.1595V8.15951ZM5.94818 9.59984V15.1094H7.94818V9.59984H5.94818ZM6.06289 14.6443L3.82034 18.9133L5.5909 19.8434L7.83346 15.5744L6.06289 14.6443ZM3.82035 18.9132C3.2955 19.9123 3.11178 21.0715 3.30211 22.184L5.27346 21.8467C5.15723 21.1674 5.27035 20.4536 5.59089 19.8434L3.82035 18.9132ZM3.3021 22.1839L3.56958 23.7476L5.54095 23.4104L5.27347 21.8467L3.3021 22.1839ZM3.56959 23.7477C3.73784 24.731 3.57773 25.7647 3.11993 26.651L4.8969 27.5688C5.55413 26.2964 5.7825 24.8221 5.54094 23.4104L3.56959 23.7477ZM3.11994 26.651L1.70068 29.3986L3.47763 30.3165L4.89688 27.5689L3.11994 26.651ZM1.7006 29.3988C1.47021 29.845 1.48865 30.3793 1.75016 30.8088L3.45838 29.7686C3.56005 29.9356 3.56712 30.1432 3.47771 30.3163L1.7006 29.3988ZM1.75009 30.8087C2.01149 31.2381 2.47784 31.5 2.98033 31.5V29.5C3.17554 29.5 3.35678 29.6017 3.45845 29.7687L1.75009 30.8087ZM2.98033 31.5H13.2613V29.5H2.98033V31.5ZM13.2613 31.5C13.7366 31.5 14.1816 31.2655 14.4501 30.8729L12.7994 29.7437C12.9038 29.5911 13.0766 29.5 13.2613 29.5V31.5ZM14.4501 30.8728L15.2555 29.6954L13.6047 28.5663L12.7994 29.7437L14.4501 30.8728ZM14.6665 30.1025C14.9968 30.0221 15.6839 29.8351 16.4506 29.5063C17.2064 29.1822 18.108 28.6916 18.8114 27.974L17.383 26.574C16.9387 27.0274 16.3044 27.3928 15.6623 27.6682C15.0312 27.9389 14.4586 28.0948 14.1937 28.1592L14.6665 30.1025ZM18.0972 28.274H25.1233V26.274H18.0972V28.274ZM25.1233 28.274C26.9638 28.274 28.4596 26.7782 28.4596 24.9376H26.4596C26.4596 25.6737 25.8592 26.274 25.1233 26.274V28.274ZM28.4596 24.9376V2.83637H26.4596V24.9376H28.4596ZM28.4596 2.83632C28.4595 0.995872 26.9638 -0.5 25.1232 -0.5V1.5C25.8591 1.5 26.4595 2.10038 26.4596 2.83641L28.4596 2.83632ZM13.8731 27.3295C13.5074 27.4048 13.1856 27.6192 12.9752 27.9268L14.6257 29.0563C14.544 29.1757 14.419 29.259 14.2768 29.2883L13.8731 27.3295ZM12.975 27.927L12.2036 29.0548L13.8544 30.184L14.6258 29.0561L12.975 27.927ZM13.029 28.6194H3.70337V30.6194H13.029V28.6194ZM4.59184 30.0783L5.67934 27.973L3.9024 27.0551L2.8149 29.1605L4.59184 30.0783ZM5.67937 27.9729C6.42383 26.5315 6.68261 24.861 6.40901 23.2618L4.43766 23.5991C4.63796 24.7698 4.44744 25.9998 3.90238 27.0552L5.67937 27.9729ZM6.40902 23.2619L6.14154 21.6982L4.17017 22.0354L4.43765 23.5991L6.40902 23.2619ZM6.14154 21.6982C6.05775 21.2084 6.13945 20.6928 6.3705 20.253L4.60003 19.3227C4.16453 20.1516 4.01232 21.1126 4.17017 22.0354L6.14154 21.6982ZM6.37054 20.253L9.51515 14.267L7.7446 13.3369L4.59999 19.3228L6.37054 20.253ZM9.52986 14.2379C9.41676 14.4714 9.20805 14.567 9.05377 14.5846C8.89884 14.6022 8.67029 14.5554 8.5066 14.3491L10.0734 13.106C9.73849 12.6839 9.23982 12.5505 8.8276 12.5974C8.41604 12.6443 7.96288 12.885 7.7299 13.366L9.52986 14.2379ZM8.52795 14.3751C8.59995 14.4598 8.67966 14.6119 8.61195 14.9704L10.5772 15.3416C10.729 14.5382 10.6036 13.7291 10.052 13.08L8.52795 14.3751ZM8.61192 14.9705C8.25892 16.8403 7.72404 19.0236 7.71865 19.0457L9.66134 19.521C9.66105 19.5222 9.66195 19.5185 9.66198 19.5184C9.66235 19.5169 9.66285 19.5149 9.66347 19.5123C9.66472 19.5072 9.66647 19.5 9.6687 19.4909C9.67316 19.4725 9.67955 19.4463 9.68768 19.4126C9.70394 19.3454 9.72718 19.2488 9.75601 19.1278C9.81364 18.8857 9.89366 18.5454 9.98481 18.1459C10.1667 17.3489 10.3946 16.3087 10.5772 15.3415L8.61192 14.9705ZM7.71886 19.0448C7.61348 19.4738 7.71143 19.9263 7.98079 20.2728L9.55987 19.0454C9.66398 19.1794 9.70229 19.3543 9.66113 19.5219L7.71886 19.0448ZM7.98191 20.2742C7.95546 20.2403 8.68844 21.1901 9.03031 22.5018L10.9657 21.9974C10.5238 20.3019 9.60183 19.0992 9.55874 19.044L7.98191 20.2742ZM9.0303 22.5017C9.45537 24.133 9.10496 25.5276 7.96273 26.7597L9.42945 28.1194C11.0369 26.3854 11.5625 24.2877 10.9657 21.9974L9.0303 22.5017ZM7.96286 26.7596C7.42187 27.343 7.45638 28.2545 8.03991 28.7953L9.39937 27.3283C9.62618 27.5385 9.6396 27.8928 9.42932 28.1196L7.96286 26.7596ZM8.03979 28.7951C8.6228 29.3356 9.53433 29.3019 10.0754 28.7179L8.60827 27.3586C8.81878 27.1314 9.17309 27.1186 9.39949 27.3284L8.03979 28.7951ZM10.0753 28.718C10.3344 28.4384 10.5687 28.1481 10.7791 27.8483L9.14189 26.6996C8.98405 26.9245 8.80679 27.1445 8.60844 27.3585L10.0753 28.718ZM9.96048 28.2739H16.6865V26.2739H9.96048V28.2739ZM16.1557 26.4265C15.1561 27.0525 13.8709 27.3299 13.871 27.3299L14.2789 29.2879C14.3155 29.2802 15.8986 28.9474 17.2173 28.1214L16.1557 26.4265Z" fill="#54555B" mask="url(#path-6-inside-3_672_97580)"/>
<mask id="path-8-inside-4_672_97580" fill="white">
<path d="M23.3847 14.3107V7.59986C23.3847 7.03367 22.9241 6.57301 22.3578 6.57301H21.3927C20.5717 6.07748 19.3728 5.60316 18.1311 5.97365C17.724 6.09523 17.415 6.27699 17.2043 6.43168C16.9937 6.27699 16.6847 6.09523 16.2776 5.97365C15.0357 5.60287 13.837 6.07742 13.0159 6.57301H12.0508C11.4846 6.57301 11.0239 7.03361 11.0239 7.59986V14.3107C11.0239 14.8769 11.4845 15.3375 12.0508 15.3375H22.3578C22.9241 15.3375 23.3847 14.8769 23.3847 14.3107ZM13.5808 7.26195C15.3424 6.25004 16.4262 6.92287 16.764 7.20318V12.6645C16.6211 12.5939 16.4595 12.5273 16.2776 12.4729C15.2971 12.1801 14.3431 12.4145 13.5809 12.7701L13.5808 7.26195ZM11.9046 14.3107V7.59986C11.9046 7.51924 11.9702 7.45367 12.0508 7.45367H12.7002V13.5126C12.6896 13.8487 13.0969 14.0732 13.3754 13.885C15.261 12.6955 16.4165 13.4133 16.7639 13.7019V14.4569H12.0508C11.9702 14.4569 11.9046 14.3913 11.9046 14.3107ZM17.6446 13.7025C17.9953 13.4114 19.1502 12.6971 21.0333 13.885C21.3116 14.0734 21.7192 13.8486 21.7085 13.5127V11.1489C21.7085 10.9057 21.5114 10.7086 21.2682 10.7086C21.0249 10.7086 20.8278 10.9057 20.8278 11.1489V12.7701C20.0655 12.4145 19.1115 12.1803 18.1311 12.4729C17.9491 12.5273 17.7875 12.5939 17.6446 12.6645V7.20318C17.9822 6.92287 19.066 6.24986 20.8278 7.26195V9.38762C20.8278 9.63084 21.0249 9.82795 21.2682 9.82795C21.5114 9.82795 21.7085 9.63084 21.7085 9.38762V7.45367H22.3578C22.4385 7.45367 22.504 7.51924 22.504 7.59986V14.3107C22.504 14.3913 22.4385 14.4569 22.3578 14.4569H17.6446V13.7025Z"/>
</mask>
<path d="M23.3847 14.3107V7.59986C23.3847 7.03367 22.9241 6.57301 22.3578 6.57301H21.3927C20.5717 6.07748 19.3728 5.60316 18.1311 5.97365C17.724 6.09523 17.415 6.27699 17.2043 6.43168C16.9937 6.27699 16.6847 6.09523 16.2776 5.97365C15.0357 5.60287 13.837 6.07742 13.0159 6.57301H12.0508C11.4846 6.57301 11.0239 7.03361 11.0239 7.59986V14.3107C11.0239 14.8769 11.4845 15.3375 12.0508 15.3375H22.3578C22.9241 15.3375 23.3847 14.8769 23.3847 14.3107ZM13.5808 7.26195C15.3424 6.25004 16.4262 6.92287 16.764 7.20318V12.6645C16.6211 12.5939 16.4595 12.5273 16.2776 12.4729C15.2971 12.1801 14.3431 12.4145 13.5809 12.7701L13.5808 7.26195ZM11.9046 14.3107V7.59986C11.9046 7.51924 11.9702 7.45367 12.0508 7.45367H12.7002V13.5126C12.6896 13.8487 13.0969 14.0732 13.3754 13.885C15.261 12.6955 16.4165 13.4133 16.7639 13.7019V14.4569H12.0508C11.9702 14.4569 11.9046 14.3913 11.9046 14.3107ZM17.6446 13.7025C17.9953 13.4114 19.1502 12.6971 21.0333 13.885C21.3116 14.0734 21.7192 13.8486 21.7085 13.5127V11.1489C21.7085 10.9057 21.5114 10.7086 21.2682 10.7086C21.0249 10.7086 20.8278 10.9057 20.8278 11.1489V12.7701C20.0655 12.4145 19.1115 12.1803 18.1311 12.4729C17.9491 12.5273 17.7875 12.5939 17.6446 12.6645V7.20318C17.9822 6.92287 19.066 6.24986 20.8278 7.26195V9.38762C20.8278 9.63084 21.0249 9.82795 21.2682 9.82795C21.5114 9.82795 21.7085 9.63084 21.7085 9.38762V7.45367H22.3578C22.4385 7.45367 22.504 7.51924 22.504 7.59986V14.3107C22.504 14.3913 22.4385 14.4569 22.3578 14.4569H17.6446V13.7025Z" fill="#54555B"/>
<path d="M21.3927 6.57301L20.876 7.42916L21.1143 7.57301H21.3927V6.57301ZM18.1311 5.97365L17.8452 5.0154L17.845 5.01547L18.1311 5.97365ZM17.2043 6.43168L16.6124 7.23769L17.2043 7.67235L17.7962 7.23769L17.2043 6.43168ZM16.2776 5.97365L16.5637 5.01547L16.5637 5.01545L16.2776 5.97365ZM13.0159 6.57301V7.57301H13.2943L13.5327 7.42914L13.0159 6.57301ZM22.3578 15.3375L22.3579 14.3375H22.3578V15.3375ZM13.5808 7.26195L13.0827 6.39484L12.5808 6.68315L12.5808 7.26196L13.5808 7.26195ZM16.764 7.20318H17.764V6.73355L17.4026 6.43364L16.764 7.20318ZM16.764 12.6645L16.3208 13.5609L17.764 14.2746V12.6645H16.764ZM16.2776 12.4729L16.5641 11.5148L16.5637 11.5147L16.2776 12.4729ZM13.5809 12.7701L12.5809 12.7701L12.5809 14.3399L14.0036 13.6763L13.5809 12.7701ZM12.7002 7.45367H13.7002V6.45367H12.7002V7.45367ZM12.7002 13.5126L13.6997 13.5442L13.7002 13.5284V13.5126H12.7002ZM13.3754 13.885L12.8419 13.0392L12.8285 13.0476L12.8155 13.0564L13.3754 13.885ZM16.7639 13.7019H17.7639V13.2326L17.4029 12.9327L16.7639 13.7019ZM16.7639 14.4569V15.4569H17.7639V14.4569H16.7639ZM12.0508 14.4569V13.4569L12.0501 13.4569L12.0508 14.4569ZM17.6446 13.7025L17.0059 12.933L16.6446 13.2329V13.7025H17.6446ZM21.0333 13.885L21.5937 13.0568L21.5804 13.0478L21.5668 13.0393L21.0333 13.885ZM21.7085 13.5127H20.7085V13.5285L20.709 13.5444L21.7085 13.5127ZM20.8278 12.7701L20.4051 13.6763L21.8278 14.3399V12.7701H20.8278ZM18.1311 12.4729L17.845 11.5147L17.8447 11.5148L18.1311 12.4729ZM17.6446 12.6645H16.6446V14.274L18.0875 13.5611L17.6446 12.6645ZM17.6446 7.20318L17.0058 6.43375L16.6446 6.73365V7.20318H17.6446ZM20.8278 7.26195H21.8278V6.68315L21.3259 6.39484L20.8278 7.26195ZM21.7085 7.45367V6.45367H20.7085V7.45367H21.7085ZM17.6446 14.4569H16.6446V15.4569H17.6446V14.4569ZM24.3847 14.3107V7.59986H22.3847V14.3107H24.3847ZM24.3847 7.59986C24.3847 6.48142 23.4764 5.57301 22.3578 5.57301V7.57301C22.3627 7.57301 22.3652 7.5738 22.367 7.5746C22.3696 7.57568 22.373 7.57777 22.3765 7.58121C22.3799 7.58465 22.382 7.58809 22.3831 7.59065C22.3839 7.59254 22.3847 7.59502 22.3847 7.59986H24.3847ZM22.3578 5.57301H21.3927V7.57301H22.3578V5.57301ZM21.9095 5.71686C21.0008 5.16844 19.4908 4.52438 17.8452 5.0154L18.417 6.9319C19.2548 6.68194 20.1426 6.98652 20.876 7.42916L21.9095 5.71686ZM17.845 5.01547C17.3083 5.17574 16.8974 5.41642 16.6124 5.62567L17.7962 7.23769C17.9326 7.13756 18.1397 7.01473 18.4173 6.93183L17.845 5.01547ZM17.7962 5.62567C17.5113 5.41642 17.1004 5.17574 16.5637 5.01547L15.9914 6.93183C16.269 7.01473 16.4761 7.13757 16.6124 7.23769L17.7962 5.62567ZM16.5637 5.01545C14.9177 4.524 13.4077 5.16849 12.4992 5.71687L13.5327 7.42914C14.2663 6.98635 15.1538 6.68174 15.9915 6.93185L16.5637 5.01545ZM13.0159 5.57301H12.0508V7.57301H13.0159V5.57301ZM12.0508 5.57301C10.9323 5.57301 10.0239 6.48129 10.0239 7.59986H12.0239C12.0239 7.59501 12.0247 7.59253 12.0255 7.59065C12.0266 7.58809 12.0287 7.58465 12.0321 7.58121C12.0356 7.57777 12.039 7.57568 12.0416 7.5746C12.0435 7.5738 12.0459 7.57301 12.0508 7.57301V5.57301ZM10.0239 7.59986V14.3107H12.0239V7.59986H10.0239ZM10.0239 14.3107C10.0239 15.4292 10.9323 16.3375 12.0508 16.3375V14.3375C12.0459 14.3375 12.0434 14.3367 12.0415 14.3359C12.039 14.3348 12.0355 14.3327 12.0321 14.3293C12.0287 14.3258 12.0266 14.3224 12.0255 14.3198C12.0247 14.318 12.0239 14.3155 12.0239 14.3107H10.0239ZM12.0508 16.3375H22.3578V14.3375H12.0508V16.3375ZM22.3577 16.3375C23.4763 16.3376 24.3847 15.4292 24.3847 14.3107H22.3847C22.3847 14.3156 22.3839 14.318 22.3831 14.3199C22.382 14.3225 22.3799 14.3259 22.3765 14.3293C22.3731 14.3327 22.3697 14.3348 22.3671 14.3359C22.3653 14.3367 22.3628 14.3375 22.3579 14.3375L22.3577 16.3375ZM14.0789 8.12907C14.7895 7.7209 15.2772 7.69653 15.5639 7.73779C15.8656 7.78121 16.0547 7.91402 16.1254 7.97273L17.4026 6.43364C17.1355 6.21203 16.6138 5.86827 15.8488 5.75818C15.0687 5.64592 14.1337 5.79109 13.0827 6.39484L14.0789 8.12907ZM15.764 7.20318V12.6645H17.764V7.20318H15.764ZM17.2072 11.7681C17.0191 11.6751 16.8052 11.5869 16.5641 11.5148L15.9912 13.431C16.1138 13.4677 16.223 13.5126 16.3208 13.5609L17.2072 11.7681ZM16.5637 11.5147C15.2601 11.1255 14.0414 11.4518 13.1582 11.8638L14.0036 13.6763C14.6449 13.3772 15.334 13.2348 15.9915 13.4311L16.5637 11.5147ZM14.5809 12.77L14.5808 7.26194L12.5808 7.26196L12.5809 12.7701L14.5809 12.77ZM12.9046 14.3107V7.59986H10.9046V14.3107H12.9046ZM12.9046 7.59986C12.9046 8.07152 12.5224 8.45367 12.0508 8.45367V6.45367C11.4179 6.45367 10.9046 6.96695 10.9046 7.59986H12.9046ZM12.0508 8.45367H12.7002V6.45367H12.0508V8.45367ZM11.7002 7.45367V13.5126H13.7002V7.45367H11.7002ZM11.7007 13.4811C11.6815 14.0895 12.0433 14.5488 12.4465 14.7711C12.8497 14.9934 13.4311 15.0542 13.9353 14.7135L12.8155 13.0564C13.0412 12.9039 13.2797 12.9466 13.4122 13.0197C13.5448 13.0928 13.7083 13.2718 13.6997 13.5442L11.7007 13.4811ZM13.909 14.7308C14.6879 14.2394 15.2214 14.196 15.5296 14.2323C15.8528 14.2703 16.053 14.4114 16.125 14.4712L17.4029 12.9327C17.1275 12.7039 16.5762 12.3417 15.7634 12.246C14.9355 12.1486 13.9486 12.3411 12.8419 13.0392L13.909 14.7308ZM15.7639 13.7019V14.4569H17.7639V13.7019H15.7639ZM16.7639 13.4569H12.0508V15.4569H16.7639V13.4569ZM12.0501 13.4569C12.5227 13.4565 12.9046 13.8394 12.9046 14.3107H10.9046C10.9046 14.9432 11.4176 15.4573 12.0515 15.4569L12.0501 13.4569ZM18.2833 14.4719C18.3567 14.411 18.5574 14.2701 18.8805 14.2323C19.1887 14.1962 19.7218 14.24 20.4997 14.7308L21.5668 13.0393C20.4617 12.3421 19.4757 12.149 18.648 12.2459C17.8353 12.341 17.2832 12.7029 17.0059 12.933L18.2833 14.4719ZM20.4728 14.7132C20.9773 15.0546 21.5592 14.9934 21.9622 14.7711C22.3652 14.5488 22.7273 14.0895 22.708 13.4809L20.709 13.5444C20.7003 13.2717 20.864 13.0928 20.9963 13.0198C21.1287 12.9468 21.3676 12.9038 21.5937 13.0568L20.4728 14.7132ZM22.7085 13.5127V11.1489H20.7085V13.5127H22.7085ZM22.7085 11.1489C22.7085 10.3534 22.0637 9.70855 21.2682 9.70855V11.7086C20.9591 11.7086 20.7085 11.458 20.7085 11.1489H22.7085ZM21.2682 9.70855C20.4727 9.70855 19.8278 10.3534 19.8278 11.1489H21.8278C21.8278 11.4579 21.5772 11.7086 21.2682 11.7086V9.70855ZM19.8278 11.1489V12.7701H21.8278V11.1489H19.8278ZM21.2505 11.8638C20.3672 11.4518 19.1484 11.1256 17.845 11.5147L18.4171 13.4311C19.0746 13.2349 19.7639 13.3773 20.4051 13.6763L21.2505 11.8638ZM17.8447 11.5148C17.6034 11.5869 17.3894 11.6752 17.2016 11.768L18.0875 13.5611C18.1855 13.5126 18.2949 13.4677 18.4174 13.4311L17.8447 11.5148ZM18.6446 12.6645V7.20318H16.6446V12.6645H18.6446ZM18.2833 7.97262C18.3539 7.91396 18.5429 7.78115 18.8446 7.73772C19.1312 7.69645 19.619 7.7208 20.3297 8.12907L21.3259 6.39484C20.2748 5.79101 19.3398 5.64582 18.5596 5.75812C17.7946 5.86825 17.2728 6.21209 17.0058 6.43375L18.2833 7.97262ZM19.8278 7.26195V9.38762H21.8278V7.26195H19.8278ZM19.8278 9.38762C19.8278 10.1831 20.4727 10.8279 21.2682 10.8279V8.82795C21.5772 8.82795 21.8278 9.07856 21.8278 9.38762H19.8278ZM21.2682 10.8279C22.0637 10.8279 22.7085 10.1831 22.7085 9.38762H20.7085C20.7085 9.07855 20.9591 8.82795 21.2682 8.82795V10.8279ZM22.7085 9.38762V7.45367H20.7085V9.38762H22.7085ZM21.7085 8.45367H22.3578V6.45367H21.7085V8.45367ZM22.3578 8.45367C21.8862 8.45367 21.504 8.07152 21.504 7.59986H23.504C23.504 6.96695 22.9907 6.45367 22.3578 6.45367V8.45367ZM21.504 7.59986V14.3107H23.504V7.59986H21.504ZM21.504 14.3107C21.504 13.839 21.8862 13.4569 22.3578 13.4569V15.4569C22.9907 15.4569 23.504 14.9436 23.504 14.3107H21.504ZM22.3578 13.4569H17.6446V15.4569H22.3578V13.4569ZM18.6446 14.4569V13.7025H16.6446V14.4569H18.6446Z" fill="#54555B" mask="url(#path-8-inside-4_672_97580)"/>
<mask id="path-10-inside-5_672_97580" fill="white">
<path d="M21.7486 17.0303H12.6601C12.4168 17.0303 12.2197 17.2274 12.2197 17.4706C12.2197 17.7138 12.4168 17.9109 12.6601 17.9109H21.7486C21.9918 17.9109 22.1889 17.7138 22.1889 17.4706C22.1889 17.2273 21.9918 17.0303 21.7486 17.0303Z"/>
</mask>
<path d="M21.7486 17.0303H12.6601C12.4168 17.0303 12.2197 17.2274 12.2197 17.4706C12.2197 17.7138 12.4168 17.9109 12.6601 17.9109H21.7486C21.9918 17.9109 22.1889 17.7138 22.1889 17.4706C22.1889 17.2273 21.9918 17.0303 21.7486 17.0303Z" fill="#54555B"/>
<path d="M21.7486 16.0303H12.6601V18.0303H21.7486V16.0303ZM12.6601 16.0303C11.8645 16.0303 11.2197 16.6751 11.2197 17.4706H13.2197C13.2197 17.7797 12.9691 18.0303 12.6601 18.0303V16.0303ZM11.2197 17.4706C11.2197 18.2661 11.8646 18.9109 12.6601 18.9109V16.9109C12.9691 16.9109 13.2197 17.1615 13.2197 17.4706H11.2197ZM12.6601 18.9109H21.7486V16.9109H12.6601V18.9109ZM21.7486 18.9109C22.5441 18.9109 23.1889 18.2661 23.1889 17.4706H21.1889C21.1889 17.1615 21.4395 16.9109 21.7486 16.9109V18.9109ZM23.1889 17.4706C23.1889 16.675 22.544 16.0303 21.7486 16.0303V18.0303C21.4396 18.0303 21.1889 17.7797 21.1889 17.4706H23.1889Z" fill="#54555B" mask="url(#path-10-inside-5_672_97580)"/>
<mask id="path-12-inside-6_672_97580" fill="white">
<path d="M21.7486 19.2893H12.6601C12.4168 19.2893 12.2197 19.4864 12.2197 19.7296C12.2197 19.9729 12.4168 20.17 12.6601 20.17H21.7486C21.9918 20.17 22.1889 19.9729 22.1889 19.7296C22.1889 19.4864 21.9918 19.2893 21.7486 19.2893Z"/>
</mask>
<path d="M21.7486 19.2893H12.6601C12.4168 19.2893 12.2197 19.4864 12.2197 19.7296C12.2197 19.9729 12.4168 20.17 12.6601 20.17H21.7486C21.9918 20.17 22.1889 19.9729 22.1889 19.7296C22.1889 19.4864 21.9918 19.2893 21.7486 19.2893Z" fill="#54555B"/>
<path d="M21.7486 18.2893H12.6601V20.2893H21.7486V18.2893ZM12.6601 18.2893C11.8646 18.2893 11.2197 18.9341 11.2197 19.7296H13.2197C13.2197 20.0387 12.9691 20.2893 12.6601 20.2893V18.2893ZM11.2197 19.7296C11.2197 20.5251 11.8645 21.17 12.6601 21.17V19.17C12.9691 19.17 13.2197 19.4206 13.2197 19.7296H11.2197ZM12.6601 21.17H21.7486V19.17H12.6601V21.17ZM21.7486 21.17C22.5441 21.17 23.1889 20.5251 23.1889 19.7296H21.1889C21.1889 19.4206 21.4395 19.17 21.7486 19.17V21.17ZM23.1889 19.7296C23.1889 18.9341 22.5441 18.2893 21.7486 18.2893V20.2893C21.4395 20.2893 21.1889 20.0387 21.1889 19.7296H23.1889Z" fill="#54555B" mask="url(#path-12-inside-6_672_97580)"/>
</g>
<defs>
<clipPath id="clip0_672_97580">
<rect width="30" height="30" fill="white" transform="translate(0 0.5)"/>
</clipPath>
</defs>
</svg>
