<svg width="30" height="31" viewBox="0 0 30 31" fill="none" xmlns="http://www.w3.org/2000/svg">
<g clip-path="url(#clip0_699_103195)">
<path d="M17.0537 13.7264C17.1439 13.8967 17.3143 13.9969 17.5046 13.9969C17.5848 13.9969 17.6549 13.9769 17.7351 13.9468C17.7652 13.9368 20.7111 12.4338 22.164 11.9829C22.4245 11.9027 22.5748 11.6222 22.4846 11.3516C22.4044 11.0911 22.1239 10.9408 21.8533 11.021C20.3203 11.5019 17.4044 12.9849 17.2742 13.055C17.0237 13.1753 16.9335 13.4859 17.0537 13.7264Z" fill="#6F6F6F"/>
<path d="M17.5046 7.99498C17.5848 7.99498 17.6549 7.97494 17.7351 7.94488C17.7652 7.93486 20.7111 6.43185 22.164 5.98095C22.4245 5.90079 22.5748 5.62023 22.4846 5.34969C22.4044 5.08917 22.1239 4.93887 21.8533 5.01903C20.3203 5.49999 17.4044 6.98296 17.2742 7.0531C17.0237 7.17334 16.9335 7.48396 17.0537 7.72444C17.1439 7.89478 17.3143 7.99498 17.5046 7.99498Z" fill="#6F6F6F"/>
<path d="M29.499 8.00496C29.2184 8.00496 28.998 8.2254 28.998 8.50597V28.005C28.998 28.8366 28.3267 29.508 27.495 29.508H15.501V28.3557C16.2325 28.1052 18.1263 27.504 20 27.504C24.3587 27.504 27.3146 28.4659 27.3447 28.4759C27.495 28.526 27.6653 28.4959 27.7956 28.4058C27.9259 28.3156 28.006 28.1653 28.006 28.005V6.00096C28.006 5.77049 27.8457 5.56007 27.6152 5.50997C27.6152 5.50997 27.2244 5.41979 26.5531 5.29955C26.2826 5.24945 26.022 5.42981 25.9719 5.70035C25.9218 5.9709 26.1022 6.23142 26.3727 6.28152C26.6333 6.33162 26.8437 6.3717 27.004 6.40176V27.3336C25.8717 27.033 23.3567 26.502 20 26.502C17.8257 26.502 15.6814 27.2134 15.02 27.4639C14.4289 27.2034 12.6553 26.502 10.501 26.502C7.05411 26.502 4.21844 27.0731 2.99599 27.3537V6.39174C3.998 6.14124 6.94389 5.49995 10.501 5.49995C12.3246 5.49995 13.8878 6.0711 14.499 6.3216V26.001C14.499 26.1813 14.5992 26.3517 14.7495 26.4318C14.9098 26.522 15.1002 26.522 15.2505 26.4318C15.3006 26.4018 20.2505 23.4458 24.6493 21.9729C24.8497 21.9028 24.99 21.7124 24.99 21.502V1.00096C24.99 0.840634 24.9098 0.680314 24.7695 0.590133C24.6393 0.499953 24.4589 0.479913 24.3086 0.530013C20.3106 2.03302 16.2625 4.54805 16.2224 4.57811C15.992 4.72841 15.9218 5.02901 16.0621 5.26949C16.2124 5.49995 16.513 5.57009 16.7535 5.42981C16.7936 5.40977 20.3106 3.21538 23.988 1.73242V21.1412C20.5711 22.3236 17.014 24.2675 15.491 25.1292V6.00096C15.491 5.81057 15.3808 5.64023 15.2104 5.55005C15.1202 5.50997 13.0762 4.49795 10.491 4.49795C5.97194 4.49795 2.49499 5.47991 2.35471 5.51999C2.14429 5.58011 1.99399 5.78051 1.99399 6.00096V28.005C1.99399 28.1653 2.06413 28.3056 2.19439 28.4058C2.28457 28.4759 2.38477 28.506 2.49499 28.506C2.54509 28.506 2.58517 28.506 2.63527 28.4859C2.66533 28.4859 6.13226 27.504 10.501 27.504C12.3246 27.504 13.8878 28.0751 14.499 28.3256V29.498H2.50501C1.67335 29.498 1.002 28.8266 1.002 27.9949V8.49594C1.002 8.21538 0.781563 7.99494 0.501002 7.99494C0.220441 7.99494 0 8.21538 0 8.49594V28.005C0 29.3877 1.12224 30.51 2.50501 30.51H27.505C28.8878 30.51 30.01 29.3877 30.01 28.005V8.49594C30.01 8.21538 29.7896 7.99494 29.509 7.99494L29.499 8.00496Z" fill="#6F6F6F"/>
<path d="M17.0537 10.7304C17.1439 10.9008 17.3143 11.001 17.5046 11.001C17.5848 11.001 17.6549 10.9809 17.7351 10.9509C17.7652 10.9408 20.7111 9.43783 22.164 8.98693C22.4245 8.90677 22.5748 8.62621 22.4846 8.35567C22.4044 8.09515 22.1239 7.94485 21.8533 8.02501C20.3203 8.50597 17.4044 9.98894 17.2742 10.0591C17.0237 10.1793 16.9335 10.4899 17.0537 10.7304Z" fill="#6F6F6F"/>
<path d="M17.0537 16.7224C17.1439 16.8927 17.3143 16.9929 17.5046 16.9929C17.5848 16.9929 17.6549 16.9729 17.7351 16.9428C17.7652 16.9328 20.7111 15.4298 22.164 14.9789C22.4245 14.8987 22.5748 14.6182 22.4846 14.3476C22.4044 14.0871 22.1239 13.9368 21.8533 14.017C20.3203 14.4979 17.4044 15.9809 17.2742 16.051C17.0237 16.1713 16.9335 16.4819 17.0537 16.7224Z" fill="#6F6F6F"/>
<path d="M12.1143 8.77653C9.02811 8.05509 5.5211 8.97693 5.3708 9.01701C5.10025 9.08715 4.94995 9.35769 5.02009 9.62823C5.08022 9.84867 5.28062 9.99897 5.50106 9.99897C5.54114 9.99897 5.59124 9.99897 5.63132 9.97893C5.66138 9.97893 9.03813 9.07713 11.8838 9.74847C12.1544 9.80859 12.4249 9.64827 12.485 9.37773C12.5451 9.10719 12.3848 8.83665 12.1143 8.77653Z" fill="#6F6F6F"/>
<path d="M12.1143 11.7825C9.02811 11.0611 5.5211 11.9829 5.3708 12.023C5.10025 12.0931 4.94995 12.3637 5.02009 12.6342C5.08022 12.8547 5.28062 13.005 5.50106 13.005C5.54114 13.005 5.59124 13.005 5.63132 12.9849C5.66138 12.9849 9.03813 12.0831 11.8838 12.7545C12.1544 12.8146 12.4249 12.6543 12.485 12.3837C12.5451 12.1132 12.3848 11.8426 12.1143 11.7825Z" fill="#6F6F6F"/>
<path d="M17.0537 19.7285C17.1439 19.8988 17.3143 19.999 17.5046 19.999C17.5848 19.999 17.6549 19.979 17.7351 19.9489C17.7652 19.9389 20.7111 18.4359 22.164 17.985C22.4245 17.9048 22.5748 17.6243 22.4846 17.3537C22.4044 17.0932 22.1239 16.9429 21.8533 17.0231C20.3203 17.504 17.4044 18.987 17.2742 19.0571C17.0237 19.1774 16.9335 19.488 17.0537 19.7285Z" fill="#6F6F6F"/>
<path d="M12.1143 14.7785C9.02811 14.057 5.5211 14.9789 5.3708 15.019C5.10025 15.0891 4.94995 15.3596 5.02009 15.6302C5.08022 15.8506 5.28062 16.0009 5.50106 16.0009C5.54114 16.0009 5.59124 16.0009 5.63132 15.9809C5.66138 15.9809 9.03813 15.0791 11.8838 15.7504C12.1544 15.8105 12.4249 15.6502 12.485 15.3797C12.5451 15.1091 12.3848 14.8386 12.1143 14.7785Z" fill="#6F6F6F"/>
<path d="M12.1143 20.7806C9.02811 20.0591 5.5211 20.981 5.3708 21.021C5.10025 21.0912 4.94995 21.3617 5.02009 21.6323C5.08022 21.8527 5.28062 22.003 5.50106 22.003C5.54114 22.003 5.59124 22.003 5.63132 21.983C5.66138 21.983 9.03813 21.0812 11.8838 21.7525C12.1544 21.8126 12.4249 21.6523 12.485 21.3818C12.5451 21.1112 12.3848 20.8407 12.1143 20.7806Z" fill="#6F6F6F"/>
<path d="M12.1143 17.7745C9.02811 17.053 5.5211 17.9749 5.3708 18.0149C5.10025 18.0851 4.94995 18.3556 5.02009 18.6262C5.08022 18.8466 5.28062 18.9969 5.50106 18.9969C5.54114 18.9969 5.59124 18.9969 5.63132 18.9769C5.66138 18.9769 9.03813 18.0751 11.8838 18.7464C12.1544 18.8065 12.4249 18.6462 12.485 18.3757C12.5451 18.1051 12.3848 17.8346 12.1143 17.7745Z" fill="#6F6F6F"/>
</g>
<defs>
<clipPath id="clip0_699_103195">
<rect width="30" height="30" fill="white" transform="translate(0 0.5)"/>
</clipPath>
</defs>
</svg>
