<svg width="56" height="56" viewBox="0 0 56 56" fill="none" xmlns="http://www.w3.org/2000/svg">
<path fill-rule="evenodd" clip-rule="evenodd" d="M0 28C0 12.536 12.536 0 28 0C43.464 0 56 12.536 56 28C56 43.464 43.464 56 28 56C12.536 56 0 43.464 0 28Z" fill="#2F69FD"/>
<path fill-rule="evenodd" clip-rule="evenodd" d="M30.2191 25.1272V24.3798H32.4713V34.8903H31.1828C30.6524 34.8903 30.222 34.4644 30.2191 33.938C30.2188 33.9383 30.2185 33.9383 30.2182 33.9386C29.3111 34.598 28.1899 34.9898 26.9789 34.9898C23.9458 34.9898 21.4865 32.5463 21.4865 29.5326C21.4865 26.5189 23.9458 24.0757 26.9789 24.0757C28.1899 24.0757 29.3111 24.4671 30.2182 25.1265C30.2185 25.1269 30.2188 25.1269 30.2191 25.1272ZM20.9031 21V21.3406C20.9031 21.9763 20.8175 22.495 20.4023 23.1039L20.3521 23.1608C20.2614 23.2631 20.0485 23.5033 19.9472 23.6335L12.7179 32.655H20.9031V33.9322C20.9031 34.4615 20.4711 34.8903 19.9388 34.8903H9.33325V34.2882C9.33325 33.5504 9.51755 33.2217 9.75042 32.8788L17.4573 23.3949H9.65457V21H20.9031ZM35.2027 34.8903C34.7598 34.8903 34.3995 34.5325 34.3995 34.0928V21H36.8099V34.8903H35.2027ZM43.9372 24.0098C46.9912 24.0098 49.4666 26.4716 49.4666 29.5035C49.4666 32.5383 46.9912 35 43.9372 35C40.8829 35 38.4079 32.5383 38.4079 29.5035C38.4079 26.4716 40.8829 24.0098 43.9372 24.0098ZM26.9789 32.7433C28.7637 32.7433 30.2101 31.3061 30.2101 29.5326C30.2101 27.7619 28.7637 26.3245 26.9789 26.3245C25.1941 26.3245 23.7474 27.7619 23.7474 29.5326C23.7474 31.3061 25.1941 32.7433 26.9789 32.7433ZM43.9372 32.7378C45.7326 32.7378 47.1897 31.2901 47.1897 29.5035C47.1897 27.7197 45.7326 26.272 43.9372 26.272C42.1389 26.272 40.6844 27.7197 40.6844 29.5035C40.6844 31.2901 42.1389 32.7378 43.9372 32.7378Z" fill="white"/>
</svg>
