<svg width="28" height="28" fill="none" xmlns="http://www.w3.org/2000/svg"><path d="M28 2.333A2.333 2.333 0 0025.667 0H2.333A2.333 2.333 0 000 2.333v23.334A2.333 2.333 0 002.333 28h23.334A2.333 2.333 0 0028 25.667V2.333z" fill="#E0E0E0" fill-opacity=".3"/><path fill-rule="evenodd" clip-rule="evenodd" d="M18.324 6.175a1.167 1.167 0 00-1.65 0l-7 7a1.167 1.167 0 000 1.65l7 7a1.167 1.167 0 001.65-1.65L12.15 14l6.175-6.175a1.167 1.167 0 000-1.65z" fill="#E0E0E0"/><path d="M25.667.5H2.333v-1h23.334v1zM.5 2.333v23.334h-1V2.333h1zM2.333 27.5h23.334v1H2.333v-1zM27.5 25.667V2.333h1v23.334h-1zM25.667 27.5c1.012 0 1.833-.82 1.833-1.833h1a2.833 2.833 0 01-2.833 2.833v-1zM.5 25.667c0 1.012.82 1.833 1.833 1.833v1A2.833 2.833 0 01-.5 25.667h1zM2.333.5C1.321.5.5 1.32.5 2.333h-1A2.833 2.833 0 012.333-.5v1zm23.334-1A2.833 2.833 0 0128.5 2.333h-1C27.5 1.321 26.68.5 25.667.5v-1z" fill="#E0E0E0"/></svg>