<svg width="48" height="48" viewBox="0 0 48 48" fill="none" xmlns="http://www.w3.org/2000/svg">
<g opacity="0.1">
<rect width="48" height="48" rx="24" fill="#333333"/>
<path fill-rule="evenodd" clip-rule="evenodd" d="M29.0309 14.4691C29.1007 14.5388 29.1561 14.6216 29.1939 14.7127C29.2318 14.8038 29.2512 14.9015 29.2512 15.0001C29.2512 15.0988 29.2318 15.1965 29.1939 15.2876C29.1561 15.3787 29.1007 15.4615 29.0309 15.5311L20.5604 24.0001L29.0309 32.4691C29.1006 32.5388 29.1559 32.6216 29.1937 32.7127C29.2314 32.8039 29.2508 32.9015 29.2508 33.0001C29.2508 33.0987 29.2314 33.1964 29.1937 33.2875C29.1559 33.3786 29.1006 33.4614 29.0309 33.5311C28.9611 33.6008 28.8784 33.6562 28.7873 33.6939C28.6961 33.7316 28.5985 33.7511 28.4999 33.7511C28.4013 33.7511 28.3036 33.7316 28.2125 33.6939C28.1214 33.6562 28.0386 33.6008 27.9689 33.5311L18.9689 24.5311C18.899 24.4614 18.8436 24.3787 18.8058 24.2876C18.768 24.1964 18.7485 24.0988 18.7485 24.0001C18.7485 23.9015 18.768 23.8038 18.8058 23.7127C18.8436 23.6216 18.899 23.5388 18.9689 23.4691L27.9689 14.4691C28.0385 14.3993 28.1213 14.3439 28.2124 14.3061C28.3035 14.2682 28.4012 14.2488 28.4999 14.2488C28.5985 14.2488 28.6962 14.2682 28.7873 14.3061C28.8784 14.3439 28.9612 14.3993 29.0309 14.4691Z" fill="white"/>
</g>
</svg>
