<svg width="30" height="31" viewBox="0 0 30 31" fill="none" xmlns="http://www.w3.org/2000/svg">
<g clip-path="url(#clip0_635_98097)">
<path d="M27.45 29.6H20.64V26.93C20.64 26.75 20.52 26.63 20.34 26.63C20.16 26.63 20.04 26.75 20.04 26.93V29.6H13.2V24.23H20.07V25.64C20.07 25.82 20.19 25.94 20.37 25.94C20.55 25.94 20.67 25.82 20.67 25.64V23.93C20.67 23.75 20.55 23.63 20.37 23.63H20.1V22.85H28.95C29.13 22.85 29.25 22.73 29.25 22.55V16.34C29.25 16.16 29.13 16.04 28.95 16.04C28.77 16.04 28.65 16.16 28.65 16.34V18.5H20.37V17.21C20.37 17.18 20.37 17.12 20.34 17.09C20.04 16.46 19.53 16.16 18.84 16.25C18.78 16.07 18.66 15.92 18.51 15.8C18.39 15.71 18.21 15.65 18.03 15.62C19.32 14.69 20.16 13.16 20.16 11.42C20.16 8.57005 17.82 6.23005 14.97 6.23005C12.12 6.23005 9.81 8.60005 9.81 11.45C9.81 13.94 11.58 16.01 13.92 16.52V18.17L13.11 17.18C12.93 17 12.72 16.91 12.45 16.88C12.18 16.88 11.97 16.97 11.79 17.15C11.49 17.45 11.43 17.9 11.64 18.26L11.76 18.5H1.35V4.64005H28.65V14.78C28.65 14.96 28.77 15.08 28.95 15.08C29.13 15.08 29.25 14.96 29.25 14.78C29.25 11.72 29.25 5.54005 29.25 2.48005C29.25 1.55005 28.5 0.800049 27.57 0.800049H2.43C1.5 0.800049 0.75 1.55005 0.75 2.48005V22.58C0.75 22.76 0.87 22.88 1.05 22.88H13.23V23.66H12.9C12.72 23.66 12.6 23.78 12.6 23.96V29.6H2.34C2.16 29.6 2.04 29.72 2.04 29.9C2.04 30.08 2.16 30.2 2.34 30.2H27.42C27.6 30.2 27.72 30.08 27.72 29.9C27.72 29.72 27.6 29.6 27.45 29.6ZM28.65 19.1V22.28H19.56L19.95 21.14H24.45C24.63 21.14 24.75 21.02 24.75 20.84C24.75 20.66 24.63 20.54 24.45 20.54H20.16L20.31 20.12C20.34 20 20.37 19.91 20.37 19.79V19.1H28.65ZM10.41 11.45C10.41 8.93005 12.48 6.86005 15 6.86005C17.52 6.86005 19.59 8.93005 19.59 11.45C19.59 13.19 18.6 14.72 17.16 15.5C17.1 15.44 17.01 15.41 16.92 15.38C16.65 15.26 16.32 15.26 15.99 15.38L16.02 12.65C16.02 12.59 16.02 12.53 15.99 12.44L17.25 11.72C17.34 11.66 17.4 11.57 17.4 11.45C17.4 11.33 17.34 11.24 17.25 11.18L13.68 9.14005C13.59 9.08005 13.47 9.08005 13.38 9.14005C13.29 9.20005 13.23 9.29005 13.23 9.41005V13.52C13.23 13.64 13.29 13.73 13.38 13.79C13.47 13.85 13.59 13.85 13.68 13.79L13.89 13.67V15.92C11.91 15.44 10.41 13.61 10.41 11.45ZM14.25 11.87C14.04 12.08 13.95 12.32 13.95 12.62V12.95L13.89 12.98V9.92005L16.56 11.45L15.75 11.9C15.75 11.9 15.75 11.9 15.72 11.87C15.51 11.66 15.27 11.54 14.97 11.54C14.73 11.57 14.46 11.66 14.25 11.87ZM12.24 17.57C12.3 17.51 12.39 17.45 12.48 17.48C12.57 17.48 12.66 17.51 12.69 17.57L14.01 19.22C14.1 19.31 14.22 19.37 14.34 19.31C14.46 19.25 14.55 19.16 14.55 19.04L14.58 12.62C14.58 12.38 14.79 12.17 15.03 12.17C15.27 12.17 15.48 12.38 15.48 12.62L15.42 15.8C15.42 15.92 15.48 16.01 15.57 16.07C15.66 16.13 15.78 16.13 15.87 16.07C16.17 15.89 16.5 15.83 16.74 15.92C16.8 15.95 16.92 16.01 16.95 16.13C17.01 16.28 17.16 16.37 17.31 16.34C17.88 16.19 18.12 16.25 18.21 16.31C18.24 16.34 18.33 16.4 18.36 16.64C18.39 16.82 18.57 16.94 18.75 16.91C19.29 16.76 19.62 16.88 19.83 17.3L19.8 19.82C19.8 19.85 19.8 19.91 19.77 19.94L18.9 22.52H14.61L12.18 17.99C12.12 17.84 12.12 17.69 12.24 17.57ZM1.35 2.48005C1.35 1.88005 1.83 1.40005 2.43 1.40005H27.6C28.2 1.40005 28.68 1.88005 28.68 2.48005V4.04005H1.38V2.48005H1.35ZM1.35 19.1H12.12L12.9 20.54H8.37C8.25 20.09 7.83 19.73 7.32 19.73C6.81 19.73 6.39 20.06 6.27 20.54H5.58C5.4 20.54 5.28 20.66 5.28 20.84C5.28 21.02 5.4 21.14 5.58 21.14H6.27C6.39 21.59 6.81 21.95 7.32 21.95C7.83 21.95 8.25 21.62 8.37 21.14H13.2L13.8 22.28H1.35V19.1ZM7.8 20.84C7.8 21.11 7.59 21.35 7.29 21.35C7.02 21.35 6.78 21.14 6.78 20.84C6.78 20.57 6.99 20.33 7.29 20.33C7.59 20.33 7.8 20.57 7.8 20.84ZM13.83 23.09H19.5V23.63H13.83V23.09Z" fill="#6F6F6F" stroke="#6F6F6F" stroke-width="0.2"/>
<path d="M1.0798 29.6001H0.599805C0.419805 29.6001 0.299805 29.7201 0.299805 29.9001C0.299805 30.0801 0.419805 30.2001 0.599805 30.2001H1.0798C1.2598 30.2001 1.3798 30.0801 1.3798 29.9001C1.3798 29.7201 1.2598 29.6001 1.0798 29.6001Z" fill="#6F6F6F" stroke="#6F6F6F" stroke-width="0.2"/>
<path d="M29.3998 29.6001H28.6198C28.4398 29.6001 28.3198 29.7201 28.3198 29.9001C28.3198 30.0801 28.4398 30.2001 28.6198 30.2001H29.3998C29.5798 30.2001 29.6998 30.0801 29.6998 29.9001C29.6998 29.7201 29.5498 29.6001 29.3998 29.6001Z" fill="#6F6F6F" stroke="#6F6F6F" stroke-width="0.2"/>
<path d="M2.99971 20.12C2.81971 20.12 2.69971 20.24 2.69971 20.42V21.26C2.69971 21.44 2.81971 21.56 2.99971 21.56C3.17971 21.56 3.29971 21.44 3.29971 21.26V20.42C3.29971 20.24 3.14971 20.12 2.99971 20.12Z" fill="#6F6F6F" stroke="#6F6F6F" stroke-width="0.2"/>
<path d="M3.77998 20.12C3.59998 20.12 3.47998 20.24 3.47998 20.42V21.26C3.47998 21.44 3.59998 21.56 3.77998 21.56C3.95998 21.56 4.07998 21.44 4.07998 21.26V20.42C4.07998 20.24 3.92998 20.12 3.77998 20.12Z" fill="#6F6F6F" stroke="#6F6F6F" stroke-width="0.2"/>
</g>
<defs>
<clipPath id="clip0_635_98097">
<rect width="30" height="30" fill="white" transform="translate(0 0.5)"/>
</clipPath>
</defs>
</svg>
