<svg width="17" height="17" viewBox="0 0 17 17" fill="none" xmlns="http://www.w3.org/2000/svg">
<path d="M11.8334 14.6666H5.16671C2.73337 14.6666 1.33337 13.2666 1.33337 10.8333V6.16659C1.33337 3.73325 2.73337 2.33325 5.16671 2.33325H11.8334C14.2667 2.33325 15.6667 3.73325 15.6667 6.16659V10.8333C15.6667 13.2666 14.2667 14.6666 11.8334 14.6666ZM5.16671 3.33325C3.26004 3.33325 2.33337 4.25992 2.33337 6.16659V10.8333C2.33337 12.7399 3.26004 13.6666 5.16671 13.6666H11.8334C13.74 13.6666 14.6667 12.7399 14.6667 10.8333V6.16659C14.6667 4.25992 13.74 3.33325 11.8334 3.33325H5.16671Z" fill="#54555B"/>
<path d="M8.49981 9.07998C7.93981 9.07998 7.37315 8.90665 6.93981 8.55331L4.85314 6.88665C4.63981 6.71331 4.59981 6.39998 4.77315 6.18665C4.94648 5.97331 5.25982 5.93332 5.47315 6.10665L7.55981 7.77332C8.06648 8.17998 8.92647 8.17998 9.43314 7.77332L11.5198 6.10665C11.7331 5.93332 12.0531 5.96665 12.2198 6.18665C12.3931 6.39998 12.3598 6.71998 12.1398 6.88665L10.0531 8.55331C9.62648 8.90665 9.05981 9.07998 8.49981 9.07998Z" fill="#54555B"/>
</svg>
