<svg width="34" height="34" viewBox="0 0 34 34" fill="none" xmlns="http://www.w3.org/2000/svg">
<rect x="1" y="1" width="32" height="32" rx="16" fill="white"/>
<path d="M22.28 19.5332C22.1533 19.5332 22.0267 19.4866 21.9267 19.3866L17.58 15.0399C17.26 14.7199 16.74 14.7199 16.42 15.0399L12.0733 19.3866C11.88 19.5799 11.56 19.5799 11.3667 19.3866C11.1733 19.1932 11.1733 18.8732 11.3667 18.6799L15.7133 14.3332C16.42 13.6266 17.5733 13.6266 18.2867 14.3332L22.6333 18.6799C22.8267 18.8732 22.8267 19.1932 22.6333 19.3866C22.5333 19.4799 22.4067 19.5332 22.28 19.5332Z" fill="#54555B"/>
<rect x="1" y="1" width="32" height="32" rx="16" stroke="#A4A4A4"/>
</svg>
