<svg width="16" height="17" viewBox="0 0 16 17" fill="none" xmlns="http://www.w3.org/2000/svg">
<path d="M4.12009 15.6667C4.05342 15.6667 3.98009 15.66 3.92009 15.6534L2.47342 15.4534C1.78009 15.36 1.15342 14.74 1.04676 14.0334L0.846758 12.5734C0.780091 12.1067 0.980091 11.5 1.31342 11.16L4.24009 8.23336C3.76676 6.34003 4.31343 4.34003 5.70676 2.96003C7.86676 0.806697 11.3801 0.80003 13.5468 2.96003C14.5934 4.0067 15.1668 5.40003 15.1668 6.88003C15.1668 8.36003 14.5934 9.75336 13.5468 10.8C12.1468 12.1867 10.1534 12.7334 8.27342 12.2534L5.34009 15.18C5.06009 15.4734 4.56009 15.6667 4.12009 15.6667ZM9.62009 2.34003C8.45342 2.34003 7.29342 2.78003 6.40676 3.6667C5.20676 4.86003 4.77342 6.6067 5.27342 8.23336C5.32676 8.41336 5.28009 8.60003 5.14676 8.73336L2.01342 11.8667C1.90009 11.98 1.80676 12.2734 1.82676 12.4267L2.02676 13.8867C2.06676 14.14 2.34009 14.4267 2.59342 14.46L4.04676 14.66C4.20676 14.6867 4.50009 14.5934 4.61342 14.48L7.76009 11.34C7.89342 11.2067 8.08676 11.1667 8.26009 11.22C9.86676 11.7267 11.6201 11.2934 12.8201 10.0934C13.6734 9.24003 14.1468 8.09336 14.1468 6.88003C14.1468 5.66003 13.6734 4.52003 12.8201 3.6667C11.9534 2.7867 10.7868 2.34003 9.62009 2.34003Z" fill="#333333"/>
<path d="M6.12688 14.1933C6.00021 14.1933 5.87355 14.1466 5.77355 14.0466L4.24021 12.5133C4.04688 12.32 4.04688 12 4.24021 11.8066C4.43355 11.6133 4.75355 11.6133 4.94688 11.8066L6.48022 13.34C6.67355 13.5333 6.67355 13.8533 6.48022 14.0466C6.38021 14.1466 6.25355 14.1933 6.12688 14.1933Z" fill="#333333"/>
<path d="M9.6665 8.33337C8.83984 8.33337 8.1665 7.66004 8.1665 6.83337C8.1665 6.00671 8.83984 5.33337 9.6665 5.33337C10.4932 5.33337 11.1665 6.00671 11.1665 6.83337C11.1665 7.66004 10.4932 8.33337 9.6665 8.33337ZM9.6665 6.33337C9.39317 6.33337 9.1665 6.56004 9.1665 6.83337C9.1665 7.10671 9.39317 7.33337 9.6665 7.33337C9.93984 7.33337 10.1665 7.10671 10.1665 6.83337C10.1665 6.56004 9.93984 6.33337 9.6665 6.33337Z" fill="#333333"/>
</svg>
