<svg width="48" height="48" viewBox="0 0 48 48" fill="none" xmlns="http://www.w3.org/2000/svg">
<g opacity="0.1">
<rect width="48" height="48" rx="24" fill="#333333"/>
<path fill-rule="evenodd" clip-rule="evenodd" d="M18.969 33.5309C18.8992 33.4612 18.8437 33.3784 18.8059 33.2873C18.7681 33.1962 18.7487 33.0985 18.7487 32.9999C18.7487 32.9012 18.7681 32.8035 18.8059 32.7124C18.8437 32.6213 18.8992 32.5385 18.969 32.4689L27.4395 23.9999L18.969 15.5309C18.8993 15.4612 18.844 15.3784 18.8062 15.2873C18.7685 15.1961 18.7491 15.0985 18.7491 14.9999C18.7491 14.9013 18.7685 14.8036 18.8062 14.7125C18.844 14.6214 18.8993 14.5386 18.969 14.4689C19.0387 14.3992 19.1215 14.3438 19.2126 14.3061C19.3037 14.2684 19.4014 14.2489 19.5 14.2489C19.5986 14.2489 19.6963 14.2684 19.7874 14.3061C19.8785 14.3438 19.9613 14.3992 20.031 14.4689L29.031 23.4689C29.1008 23.5386 29.1563 23.6213 29.1941 23.7124C29.2319 23.8035 29.2513 23.9012 29.2513 23.9999C29.2513 24.0985 29.2319 24.1962 29.1941 24.2873C29.1563 24.3784 29.1008 24.4612 29.031 24.5309L20.031 33.5309C19.9613 33.6007 19.8786 33.6561 19.7874 33.6939C19.6963 33.7318 19.5986 33.7512 19.5 33.7512C19.4013 33.7512 19.3037 33.7318 19.2125 33.6939C19.1214 33.6561 19.0387 33.6007 18.969 33.5309Z" fill="white"/>
</g>
</svg>
