<svg width="16" height="17" viewBox="0 0 16 17" fill="none" xmlns="http://www.w3.org/2000/svg">
<path d="M8.00016 1.83337C4.32016 1.83337 1.3335 4.82004 1.3335 8.50004C1.3335 12.18 4.32016 15.1667 8.00016 15.1667C11.6802 15.1667 14.6668 12.18 14.6668 8.50004C14.6668 4.82004 11.6802 1.83337 8.00016 1.83337ZM5.82016 5.60671C6.36016 5.60671 6.80683 6.04671 6.80683 6.59337C6.80683 7.13337 6.36683 7.58004 5.82016 7.58004C5.28016 7.58004 4.8335 7.14004 4.8335 6.59337C4.8335 6.04671 5.2735 5.60671 5.82016 5.60671ZM5.90016 11.0334C5.80016 11.1334 5.6735 11.18 5.54683 11.18C5.42016 11.18 5.2935 11.1334 5.1935 11.0334C5.00016 10.84 5.00016 10.52 5.1935 10.3267L9.56016 5.96004C9.7535 5.76671 10.0735 5.76671 10.2668 5.96004C10.4602 6.15337 10.4602 6.47337 10.2668 6.66671L5.90016 11.0334ZM10.1802 11.3934C9.64016 11.3934 9.1935 10.9534 9.1935 10.4067C9.1935 9.86671 9.6335 9.42004 10.1802 9.42004C10.7202 9.42004 11.1668 9.86004 11.1668 10.4067C11.1668 10.9534 10.7268 11.3934 10.1802 11.3934Z" fill="#2F69FD"/>
</svg>
