<svg width="32" height="32" viewBox="0 0 32 32" fill="none" xmlns="http://www.w3.org/2000/svg">
<path opacity="0.4" d="M16 29.3337C23.3638 29.3337 29.3333 23.3641 29.3333 16.0003C29.3333 8.63653 23.3638 2.66699 16 2.66699C8.6362 2.66699 2.66667 8.63653 2.66667 16.0003C2.66667 23.3641 8.6362 29.3337 16 29.3337Z" fill="white"/>
<path d="M17.4133 16.0005L20.48 12.9338C20.8667 12.5471 20.8667 11.9071 20.48 11.5205C20.0933 11.1338 19.4533 11.1338 19.0667 11.5205L16 14.5871L12.9333 11.5205C12.5467 11.1338 11.9067 11.1338 11.52 11.5205C11.1333 11.9071 11.1333 12.5471 11.52 12.9338L14.5867 16.0005L11.52 19.0671C11.1333 19.4538 11.1333 20.0938 11.52 20.4805C11.72 20.6805 11.9733 20.7738 12.2267 20.7738C12.48 20.7738 12.7333 20.6805 12.9333 20.4805L16 17.4138L19.0667 20.4805C19.2667 20.6805 19.52 20.7738 19.7733 20.7738C20.0267 20.7738 20.28 20.6805 20.48 20.4805C20.8667 20.0938 20.8667 19.4538 20.48 19.0671L17.4133 16.0005Z" fill="white"/>
</svg>
