<svg width="13" height="13" viewBox="0 0 13 13" fill="none" xmlns="http://www.w3.org/2000/svg">
<path d="M6.5 11.875C3.535 11.875 1.125 9.465 1.125 6.5C1.125 3.535 3.535 1.125 6.5 1.125C9.465 1.125 11.875 3.535 11.875 6.5C11.875 9.465 9.465 11.875 6.5 11.875ZM6.5 1.875C3.95 1.875 1.875 3.95 1.875 6.5C1.875 9.05 3.95 11.125 6.5 11.125C9.05 11.125 11.125 9.05 11.125 6.5C11.125 3.95 9.05 1.875 6.5 1.875Z" fill="#26AD60"/>
<path d="M8.35495 8.465C8.28995 8.465 8.22495 8.45 8.16495 8.41L6.61495 7.485C6.22995 7.255 5.94495 6.75 5.94495 6.305V4.255C5.94495 4.05 6.11495 3.88 6.31995 3.88C6.52495 3.88 6.69495 4.05 6.69495 4.255V6.305C6.69495 6.485 6.84495 6.75001 6.99995 6.84L8.54995 7.765C8.72995 7.87 8.78495 8.10001 8.67995 8.28C8.60495 8.4 8.47995 8.465 8.35495 8.465Z" fill="#26AD60"/>
</svg>
