<svg width="13" height="13" viewBox="0 0 13 13" fill="none" xmlns="http://www.w3.org/2000/svg">
<path d="M9.5 5.875C9.295 5.875 9.125 5.705 9.125 5.5V4.5C9.125 2.925 8.68 1.875 6.5 1.875C4.32 1.875 3.875 2.925 3.875 4.5V5.5C3.875 5.705 3.705 5.875 3.5 5.875C3.295 5.875 3.125 5.705 3.125 5.5V4.5C3.125 3.05 3.475 1.125 6.5 1.125C9.525 1.125 9.875 3.05 9.875 4.5V5.5C9.875 5.705 9.705 5.875 9.5 5.875Z" fill="#E20000"/>
<path d="M9 11.875H4C1.795 11.875 1.125 11.205 1.125 9V8C1.125 5.795 1.795 5.125 4 5.125H9C11.205 5.125 11.875 5.795 11.875 8V9C11.875 11.205 11.205 11.875 9 11.875ZM4 5.875C2.21 5.875 1.875 6.215 1.875 8V9C1.875 10.785 2.21 11.125 4 11.125H9C10.79 11.125 11.125 10.785 11.125 9V8C11.125 6.215 10.79 5.875 9 5.875H4Z" fill="#E20000"/>
<path d="M4.5 8.99994C4.435 8.99994 4.37 8.98494 4.31 8.95994C4.245 8.93494 4.195 8.89993 4.145 8.85493C4.055 8.75993 4 8.63494 4 8.49994C4 8.43494 4.01499 8.36993 4.03999 8.30993C4.06499 8.24493 4.1 8.19494 4.145 8.14494C4.195 8.09994 4.245 8.06493 4.31 8.03993C4.49 7.95993 4.715 8.00494 4.855 8.14494C4.9 8.19494 4.93501 8.24993 4.96001 8.30993C4.98501 8.36993 5 8.43494 5 8.49994C5 8.62994 4.945 8.75993 4.855 8.85493C4.76 8.94493 4.63 8.99994 4.5 8.99994Z" fill="#E20000"/>
<path d="M6.5 8.99996C6.37 8.99996 6.24 8.94495 6.145 8.85495C6.055 8.75995 6 8.63496 6 8.49996C6 8.43496 6.00999 8.36995 6.03999 8.30995C6.06499 8.24995 6.1 8.19496 6.145 8.14496C6.26 8.02996 6.435 7.97495 6.595 8.00995C6.63 8.01495 6.66 8.02495 6.69 8.03995C6.72 8.04995 6.75 8.06496 6.78 8.08496C6.805 8.09996 6.83 8.12496 6.855 8.14496C6.9 8.19496 6.93501 8.24995 6.96001 8.30995C6.98501 8.36995 7 8.43496 7 8.49996C7 8.63496 6.945 8.75995 6.855 8.85495C6.83 8.87495 6.805 8.89495 6.78 8.91495C6.75 8.93495 6.72 8.94996 6.69 8.95996C6.66 8.97496 6.63 8.98496 6.595 8.98996C6.565 8.99496 6.53 8.99996 6.5 8.99996Z" fill="#E20000"/>
<path d="M8.5 8.99996C8.365 8.99996 8.24 8.94495 8.145 8.85495C8.1 8.80495 8.06499 8.74996 8.03999 8.68996C8.01499 8.62996 8 8.56496 8 8.49996C8 8.36996 8.055 8.23996 8.145 8.14496C8.17 8.12496 8.195 8.10496 8.22 8.08496C8.25 8.06496 8.28 8.04995 8.31 8.03995C8.34 8.02495 8.36999 8.01495 8.39999 8.00995C8.56499 7.97495 8.735 8.02996 8.855 8.14496C8.945 8.23996 9 8.36496 9 8.49996C9 8.56496 8.98501 8.62996 8.96001 8.68996C8.93501 8.75496 8.9 8.80495 8.855 8.85495C8.76 8.94495 8.63 8.99996 8.5 8.99996Z" fill="#E20000"/>
</svg>
