<svg width="17" height="17" viewBox="0 0 17 17" fill="none" xmlns="http://www.w3.org/2000/svg">
<path d="M12.1334 15.6668C11.38 15.6668 10.5867 15.4868 9.76671 15.1402C8.96671 14.8002 8.16004 14.3335 7.37337 13.7668C6.59337 13.1935 5.84004 12.5535 5.12671 11.8535C4.42004 11.1402 3.78004 10.3868 3.21337 9.6135C2.64004 8.8135 2.18004 8.0135 1.85337 7.24016C1.50671 6.4135 1.33337 5.6135 1.33337 4.86016C1.33337 4.34016 1.42671 3.84683 1.60671 3.38683C1.79337 2.9135 2.09337 2.4735 2.50004 2.0935C3.01337 1.58683 3.60004 1.3335 4.22671 1.3335C4.48671 1.3335 4.75337 1.3935 4.98004 1.50016C5.24004 1.62016 5.46004 1.80016 5.62004 2.04016L7.16671 4.22016C7.30671 4.4135 7.41337 4.60016 7.48671 4.78683C7.57337 4.98683 7.62004 5.18683 7.62004 5.38016C7.62004 5.6335 7.54671 5.88016 7.40671 6.1135C7.30671 6.2935 7.15337 6.48683 6.96004 6.68016L6.50671 7.1535C6.51337 7.1735 6.52004 7.18683 6.52671 7.20016C6.60671 7.34016 6.76671 7.58016 7.07337 7.94016C7.40004 8.3135 7.70671 8.6535 8.01337 8.96683C8.40671 9.3535 8.73337 9.66016 9.04004 9.9135C9.42004 10.2335 9.66671 10.3935 9.81337 10.4668L9.80004 10.5002L10.2867 10.0202C10.4934 9.8135 10.6934 9.66016 10.8867 9.56016C11.2534 9.3335 11.72 9.2935 12.1867 9.48683C12.36 9.56016 12.5467 9.66016 12.7467 9.80016L14.96 11.3735C15.2067 11.5402 15.3867 11.7535 15.4934 12.0068C15.5934 12.2602 15.64 12.4935 15.64 12.7268C15.64 13.0468 15.5667 13.3668 15.4267 13.6668C15.2867 13.9668 15.1134 14.2268 14.8934 14.4668C14.5134 14.8868 14.1 15.1868 13.62 15.3802C13.16 15.5668 12.66 15.6668 12.1334 15.6668ZM4.22671 2.3335C3.86004 2.3335 3.52004 2.4935 3.19337 2.8135C2.88671 3.10016 2.67337 3.4135 2.54004 3.7535C2.40004 4.10016 2.33337 4.46683 2.33337 4.86016C2.33337 5.48016 2.48004 6.1535 2.77337 6.84683C3.07337 7.5535 3.49337 8.28683 4.02671 9.02016C4.56004 9.7535 5.16671 10.4668 5.83337 11.1402C6.50004 11.8002 7.22004 12.4135 7.96004 12.9535C8.68004 13.4802 9.42004 13.9068 10.1534 14.2135C11.2934 14.7002 12.36 14.8135 13.24 14.4468C13.58 14.3068 13.88 14.0935 14.1534 13.7868C14.3067 13.6202 14.4267 13.4402 14.5267 13.2268C14.6067 13.0602 14.6467 12.8868 14.6467 12.7135C14.6467 12.6068 14.6267 12.5002 14.5734 12.3802C14.5534 12.3402 14.5134 12.2668 14.3867 12.1802L12.1734 10.6068C12.04 10.5135 11.92 10.4468 11.8067 10.4002C11.66 10.3402 11.6 10.2802 11.3734 10.4202C11.24 10.4868 11.12 10.5868 10.9867 10.7202L10.48 11.2202C10.22 11.4735 9.82004 11.5335 9.51337 11.4202L9.33337 11.3402C9.06004 11.1935 8.74004 10.9668 8.38671 10.6668C8.06671 10.3935 7.72004 10.0735 7.30004 9.66016C6.97337 9.32683 6.64671 8.9735 6.30671 8.58016C5.99337 8.2135 5.76671 7.90016 5.62671 7.64016L5.54671 7.44016C5.50671 7.28683 5.49337 7.20016 5.49337 7.10683C5.49337 6.86683 5.58004 6.6535 5.74671 6.48683L6.24671 5.96683C6.38004 5.8335 6.48004 5.70683 6.54671 5.5935C6.60004 5.50683 6.62004 5.4335 6.62004 5.36683C6.62004 5.3135 6.60004 5.2335 6.56671 5.1535C6.52004 5.04683 6.44671 4.92683 6.35337 4.80016L4.80671 2.6135C4.74004 2.52016 4.66004 2.4535 4.56004 2.40683C4.45337 2.36016 4.34004 2.3335 4.22671 2.3335ZM9.80004 10.5068L9.69337 10.9602L9.87337 10.4935C9.84004 10.4868 9.81337 10.4935 9.80004 10.5068Z" fill="#54555B"/>
<path d="M12.8333 7.00008C12.56 7.00008 12.3333 6.77341 12.3333 6.50008C12.3333 6.26008 12.0933 5.76008 11.6933 5.33341C11.3 4.91341 10.8667 4.66675 10.5 4.66675C10.2267 4.66675 10 4.44008 10 4.16675C10 3.89341 10.2267 3.66675 10.5 3.66675C11.1467 3.66675 11.8267 4.01341 12.42 4.64675C12.9733 5.24008 13.3333 5.96675 13.3333 6.50008C13.3333 6.77341 13.1067 7.00008 12.8333 7.00008Z" fill="#54555B"/>
<path d="M15.1667 7.00016C14.8933 7.00016 14.6667 6.7735 14.6667 6.50016C14.6667 4.20016 12.8 2.3335 10.5 2.3335C10.2267 2.3335 10 2.10683 10 1.8335C10 1.56016 10.2267 1.3335 10.5 1.3335C13.3467 1.3335 15.6667 3.6535 15.6667 6.50016C15.6667 6.7735 15.44 7.00016 15.1667 7.00016Z" fill="#54555B"/>
</svg>
