<svg width="13" height="13" viewBox="0 0 13 13" fill="none" xmlns="http://www.w3.org/2000/svg">
<path d="M6.88622 1.26422C6.75801 1.25477 6.62919 1.25 6.5 1.25V0.5C6.64763 0.5 6.79486 0.505446 6.94139 0.516254L6.88622 1.26422ZM8.38945 1.60179C8.14891 1.509 7.90184 1.43405 7.65028 1.37756L7.81461 0.645786C8.10211 0.710347 8.38446 0.795999 8.65937 0.902041L8.38945 1.60179ZM9.41675 2.13478C9.30933 2.06301 9.19957 1.99541 9.08772 1.93204L9.45739 1.27948C9.58523 1.3519 9.71067 1.42916 9.83342 1.51118C9.95618 1.5932 10.0756 1.67952 10.1914 1.76992L9.72997 2.36118C9.62862 2.28209 9.52416 2.20656 9.41675 2.13478ZM10.7923 3.47701C10.6439 3.26622 10.4801 3.06664 10.3023 2.87991L10.8455 2.36276C11.0487 2.57616 11.2358 2.80425 11.4055 3.04515L10.7923 3.47701ZM11.3504 4.49091C11.3009 4.37156 11.2472 4.25437 11.1894 4.13954L11.8594 3.80233C11.9254 3.93357 11.9868 4.0675 12.0433 4.2039C12.0998 4.34029 12.1511 4.47839 12.1972 4.61791L11.485 4.85317C11.4447 4.7311 11.3998 4.61026 11.3504 4.49091ZM11.7484 6.37116C11.7421 6.11342 11.7168 5.85648 11.6727 5.60245L12.4117 5.47423C12.462 5.76455 12.491 6.05819 12.4982 6.35275L11.7484 6.37116ZM11.6491 7.52422C11.6743 7.39752 11.6948 7.27025 11.7105 7.14265L12.4549 7.23447C12.4369 7.38029 12.4135 7.52575 12.3847 7.67054C12.3559 7.81534 12.3218 7.95867 12.2827 8.10028L11.5598 7.90025C11.5941 7.77634 11.6239 7.65093 11.6491 7.52422ZM10.9355 9.30874C11.0734 9.09092 11.1951 8.86322 11.2996 8.62752L11.9853 8.93145C11.8659 9.20082 11.7268 9.46105 11.5691 9.70998L10.9355 9.30874ZM10.2123 10.2123C10.3037 10.121 10.3914 10.0265 10.4754 9.92916L11.0433 10.419C10.9473 10.5303 10.847 10.6382 10.7426 10.7426L10.2123 10.2123Z" fill="#FF4C13"/>
<path d="M6.5 1.25C5.63663 1.25 4.78659 1.46292 4.02517 1.86991C3.26375 2.2769 2.61445 2.86539 2.13479 3.58326C1.65512 4.30112 1.35991 5.1262 1.27528 5.98541C1.19066 6.84462 1.31924 7.71144 1.64963 8.50909C1.98003 9.30674 2.50204 10.0106 3.16944 10.5583C3.83683 11.106 4.629 11.4807 5.47578 11.6491C6.32256 11.8176 7.1978 11.7746 8.024 11.5239C8.85019 11.2733 9.60182 10.8228 10.2123 10.2123L10.7426 10.7426C10.0449 11.4403 9.18593 11.9552 8.24171 12.2416C7.29749 12.5281 6.29721 12.5772 5.32946 12.3847C4.36171 12.1922 3.45638 11.764 2.69364 11.1381C1.93091 10.5121 1.33432 9.7077 0.956724 8.7961C0.579128 7.8845 0.432179 6.89385 0.528893 5.9119C0.625607 4.92994 0.962999 3.98699 1.51118 3.16658C2.05937 2.34616 2.80142 1.6736 3.67162 1.20847C4.54182 0.743342 5.5133 0.5 6.5 0.5V1.25Z" fill="#FF4C13"/>
<path d="M6.125 2.75C6.33211 2.75 6.5 2.91789 6.5 3.125V7.03238L8.93605 8.42441C9.11587 8.52716 9.17835 8.75623 9.07559 8.93605C8.97284 9.11587 8.74377 9.17835 8.56395 9.07559L5.93895 7.57559C5.82211 7.50883 5.75 7.38457 5.75 7.25V3.125C5.75 2.91789 5.91789 2.75 6.125 2.75Z" fill="#FF4C13"/>
</svg>
