<svg width="12" height="13" viewBox="0 0 12 13" fill="none" xmlns="http://www.w3.org/2000/svg">
<path d="M3.53631 5.4068L2.50749 6.43562C1.62881 7.3143 1.62881 8.73892 2.50749 9.6176C3.38617 10.4963 4.8108 10.4963 5.68947 9.6176L7.0608 8.24628C7.93947 7.3676 7.93947 5.94298 7.0608 5.0643C6.87484 4.87835 6.66444 4.73175 6.43993 4.6245L6.00013 5.0643C5.9544 5.11004 5.91581 5.16021 5.88436 5.21343C6.12093 5.28122 6.34412 5.40828 6.53047 5.59463C7.11625 6.18042 7.11625 7.13016 6.53047 7.71595L5.15914 9.08727C4.57336 9.67306 3.62361 9.67306 3.03782 9.08727C2.45204 8.50149 2.45204 7.55174 3.03782 6.96595L3.63228 6.3715C3.54813 6.0564 3.51614 5.73028 3.53631 5.4068Z" fill="white"/>
<path d="M4.93947 4.00364C4.0608 4.88232 4.0608 6.30694 4.93947 7.18562C5.12543 7.37157 5.33583 7.51817 5.56034 7.62542L6.14203 7.04372C5.89578 6.97796 5.663 6.84848 5.4698 6.65529C4.88402 6.0695 4.88402 5.11976 5.4698 4.53397L6.84113 3.16265C7.42691 2.57686 8.37666 2.57686 8.96245 3.16265C9.54823 3.74844 9.54823 4.69818 8.96245 5.28397L8.36799 5.87843C8.45214 6.19352 8.48412 6.51964 8.46396 6.84312L9.49278 5.8143C10.3715 4.93562 10.3715 3.511 9.49278 2.63232C8.6141 1.75364 7.18947 1.75364 6.3108 2.63232L4.93947 4.00364Z" fill="white"/>
</svg>
