<svg width="24" height="25" viewBox="0 0 24 25" fill="none" xmlns="http://www.w3.org/2000/svg">
<rect x="0.5" y="1.0957" width="23" height="23" rx="11.5" fill="#F0F0F0"/>
<path d="M12.0001 18.4757C11.2601 18.4757 10.5151 18.1957 9.93509 17.6407C8.46009 16.2207 6.83009 13.9557 7.44509 11.2607C8.00009 8.8157 10.1351 7.7207 12.0001 7.7207C12.0001 7.7207 12.0001 7.7207 12.0051 7.7207C13.8701 7.7207 16.0051 8.8157 16.5601 11.2657C17.1701 13.9607 15.5401 16.2207 14.0651 17.6407C13.4851 18.1957 12.7401 18.4757 12.0001 18.4757ZM12.0001 8.4707C10.5451 8.4707 8.67509 9.2457 8.18009 11.4257C7.64009 13.7807 9.12009 15.8107 10.4601 17.0957C11.3251 17.9307 12.6801 17.9307 13.5451 17.0957C14.8801 15.8107 16.3601 13.7807 15.8301 11.4257C15.3301 9.2457 13.4551 8.4707 12.0001 8.4707Z" fill="#54555B"/>
<path d="M11.375 13.9704C11.28 13.9704 11.185 13.9354 11.11 13.8604L10.36 13.1104C10.215 12.9654 10.215 12.7254 10.36 12.5804C10.505 12.4354 10.745 12.4354 10.89 12.5804L11.375 13.0654L13.11 11.3304C13.255 11.1854 13.495 11.1854 13.64 11.3304C13.785 11.4754 13.785 11.7154 13.64 11.8604L11.64 13.8604C11.565 13.9354 11.47 13.9704 11.375 13.9704Z" fill="#54555B"/>
<rect x="0.5" y="1.0957" width="23" height="23" rx="11.5" stroke="#E8E8E8"/>
</svg>
