<svg width="30" height="31" viewBox="0 0 30 31" fill="none" xmlns="http://www.w3.org/2000/svg">
<g clip-path="url(#clip0_635_98089)">
<path d="M28.482 15.465H27.8429V14.4215C27.8429 12.1838 27.2617 9.99301 26.1599 8.0624L26.3082 7.9141C26.6902 7.53219 26.7432 6.93295 26.4345 6.48928C23.8252 2.73898 19.5506 0.5 15 0.5C10.4494 0.5 6.17479 2.73898 3.56555 6.48928C3.25682 6.93307 3.30996 7.53236 3.69199 7.91434L3.84012 8.06246C2.73832 9.99301 2.15719 12.1838 2.15719 14.4215V15.4651H1.51799C0.680977 15.465 0 16.146 0 16.983V24.2633C0 25.1004 0.680977 25.7813 1.51799 25.7813H2.191C2.33016 26.398 2.88205 26.8602 3.54018 26.8602H4.88842C5.65125 26.8602 6.27182 26.2396 6.27182 25.4768V24.3781C6.27182 24.1354 6.07506 23.9387 5.83236 23.9387C5.58967 23.9387 5.39291 24.1354 5.39291 24.3781V25.4768C5.39291 25.755 5.16662 25.9813 4.88842 25.9813H3.54023C3.26203 25.9813 3.03574 25.755 3.03574 25.4768L3.03604 15.7639C3.03908 15.4886 3.26396 15.2656 3.54023 15.2656H4.88848C5.16668 15.2656 5.39297 15.4917 5.39297 15.7695V22.3273C5.39297 22.57 5.58973 22.7668 5.83242 22.7668C6.07512 22.7668 6.27187 22.57 6.27187 22.3273V15.7695C6.27187 15.0071 5.65131 14.3867 4.88848 14.3867H3.54023C3.36234 14.3867 3.19236 14.4208 3.03604 14.4822V14.4215C3.03604 12.4041 3.54293 10.4279 4.50551 8.67301C4.7025 8.78615 4.93096 8.83713 5.16299 8.81521C5.49639 8.78351 5.79586 8.60586 5.98453 8.32766C8.0192 5.3273 11.3895 3.53604 15 3.53604C18.6105 3.53604 21.9808 5.3273 24.0155 8.32766C24.2042 8.60586 24.5036 8.78357 24.8371 8.81521C24.8725 8.81861 24.9079 8.82025 24.9431 8.82025C25.1381 8.82025 25.3272 8.76816 25.4941 8.67225C26.457 10.4273 26.964 12.4038 26.964 14.4215V14.4822C26.8077 14.4208 26.6377 14.3867 26.4598 14.3867H25.1116C24.3488 14.3867 23.7282 15.0071 23.7282 15.7695V25.4768C23.7282 26.2392 24.3488 26.8596 25.1116 26.8596H26.4598C27.1179 26.8596 27.6698 26.3977 27.809 25.7813H28.4821C29.3191 25.7813 30.0001 25.1004 30.0001 24.2633V16.983C30 16.146 29.319 15.465 28.482 15.465ZM0.878906 24.2633V16.983C0.878906 16.6306 1.16561 16.3439 1.51799 16.3439H2.15684V24.9024H1.51799C1.16561 24.9024 0.878906 24.6157 0.878906 24.2633ZM24.9202 7.94029C24.8781 7.93631 24.7992 7.91721 24.743 7.83436C22.5444 4.59254 18.9022 2.65713 15 2.65713C11.0978 2.65713 7.45559 4.59254 5.25709 7.83436C5.20096 7.91721 5.12191 7.93625 5.07984 7.94023C5.03918 7.94404 4.96113 7.94047 4.89381 7.8732L4.31338 7.29277C4.2327 7.21209 4.22156 7.08523 4.28701 6.99119C6.73201 3.47697 10.7369 1.37891 15 1.37891C19.2631 1.37891 23.268 3.47697 25.713 6.99125C25.7784 7.08523 25.7674 7.21203 25.6867 7.29266L25.1061 7.87332C25.0388 7.94053 24.9606 7.94416 24.9202 7.94029ZM29.1211 24.2633C29.1211 24.6157 28.8344 24.9024 28.482 24.9024H27.8432V20.8062C27.8432 20.5636 27.6464 20.3668 27.4037 20.3668C27.161 20.3668 26.9643 20.5636 26.9643 20.8062V25.4768C26.9643 25.7546 26.738 25.9807 26.4598 25.9807H25.1115C24.8333 25.9807 24.607 25.7546 24.607 25.4768V15.7695C24.607 15.4917 24.8333 15.2656 25.1115 15.2656H26.4598C26.736 15.2656 26.9609 15.4886 26.964 15.7639L26.9643 18.7555C26.9643 18.9982 27.161 19.1949 27.4037 19.1949C27.6464 19.1949 27.8432 18.9982 27.8432 18.7555V16.3439H28.482C28.8344 16.3439 29.1211 16.6306 29.1211 16.983V24.2633Z" fill="#6F6F6F"/>
<path d="M11.4482 12.3379C11.2055 12.3379 11.0088 12.5346 11.0088 12.7773V16.9206C11.0088 17.1633 11.2055 17.36 11.4482 17.36H19.7347C19.9774 17.36 20.1742 17.1633 20.1742 16.9206V12.7773C20.1742 12.5346 19.9774 12.3379 19.7347 12.3379H11.4482ZM19.2953 16.4811H11.8877V13.2168H19.2953V16.4811Z" fill="#6F6F6F"/>
<path d="M22.7789 14.0809C22.7789 13.8382 22.5821 13.6414 22.3395 13.6414C22.0968 13.6414 21.9 13.8382 21.9 14.0809V23.939H10.5608C9.61318 23.939 8.75859 24.3433 8.15918 24.988V13.1323C8.15918 11.8082 9.2366 10.7311 10.5609 10.7311H21.9V12.0301C21.9 12.2728 22.0968 12.4696 22.3395 12.4696C22.5821 12.4696 22.7789 12.2728 22.7789 12.0301V10.2916C22.7789 10.0489 22.5821 9.85217 22.3395 9.85217H10.5609C8.75197 9.85217 7.28027 11.3236 7.28027 13.1323V27.2194V27.2195C7.28027 29.0284 8.75191 30.5001 10.5608 30.5001H22.3395C22.5821 30.5001 22.7789 30.3033 22.7789 30.0606V14.0809ZM21.9 27.2199V27.727H10.5608C10.281 27.727 10.0532 27.4993 10.0532 27.2194C10.0532 26.9395 10.2809 26.7118 10.5608 26.7118H21.9V27.2192V27.2199ZM10.5608 29.6211C9.23654 29.6211 8.15918 28.5438 8.15918 27.2195C8.15918 25.8952 9.23654 24.8178 10.5608 24.8178H21.9V25.833H10.5608C9.79635 25.833 9.17432 26.4549 9.17432 27.2195C9.17432 27.984 9.79629 28.606 10.5608 28.606H21.9V29.6211H10.5608Z" fill="#6F6F6F"/>
</g>
<defs>
<clipPath id="clip0_635_98089">
<rect width="30" height="30" fill="white" transform="translate(0 0.5)"/>
</clipPath>
</defs>
</svg>
