<svg width="16" height="17" viewBox="0 0 16 17" fill="none" xmlns="http://www.w3.org/2000/svg">
<path d="M8.00016 1.83331C4.32683 1.83331 1.3335 4.82665 1.3335 8.49998C1.3335 12.1733 4.32683 15.1666 8.00016 15.1666C11.6735 15.1666 14.6668 12.1733 14.6668 8.49998C14.6668 4.82665 11.6735 1.83331 8.00016 1.83331ZM11.1868 6.96665L7.40683 10.7466C7.3135 10.84 7.18683 10.8933 7.0535 10.8933C6.92016 10.8933 6.7935 10.84 6.70016 10.7466L4.8135 8.85998C4.62016 8.66665 4.62016 8.34665 4.8135 8.15331C5.00683 7.95998 5.32683 7.95998 5.52016 8.15331L7.0535 9.68665L10.4802 6.25998C10.6735 6.06665 10.9935 6.06665 11.1868 6.25998C11.3802 6.45331 11.3802 6.76665 11.1868 6.96665Z" fill="#0075FF"/>
</svg>
