<svg width="16" height="17" viewBox="0 0 16 17" fill="none" xmlns="http://www.w3.org/2000/svg">
<path d="M10.1602 15.3467H10.0735C7.11351 15.3467 5.68684 14.18 5.44017 11.5667C5.41351 11.2933 5.61351 11.0467 5.89351 11.02C6.16684 10.9933 6.41351 11.2 6.44017 11.4733C6.63351 13.5667 7.62017 14.3467 10.0802 14.3467H10.1668C12.8802 14.3467 13.8402 13.3867 13.8402 10.6733V6.32665C13.8402 3.61332 12.8802 2.65332 10.1668 2.65332H10.0802C7.60684 2.65332 6.62017 3.44665 6.44017 5.57999C6.40684 5.85332 6.18017 6.05999 5.89351 6.03332C5.61351 6.01332 5.41351 5.76665 5.43351 5.49332C5.66017 2.83999 7.09351 1.65332 10.0735 1.65332H10.1602C13.4335 1.65332 14.8335 3.05332 14.8335 6.32665V10.6733C14.8335 13.9467 13.4335 15.3467 10.1602 15.3467Z" fill="#333333"/>
<path d="M9.92016 9H1.3335C1.06016 9 0.833496 8.77333 0.833496 8.5C0.833496 8.22667 1.06016 8 1.3335 8H9.92016C10.1935 8 10.4202 8.22667 10.4202 8.5C10.4202 8.77333 10.2002 9 9.92016 9Z" fill="#333333"/>
<path d="M8.43339 11.2333C8.30673 11.2333 8.18006 11.1866 8.08006 11.0866C7.88673 10.8933 7.88673 10.5733 8.08006 10.38L9.96006 8.49998L8.08006 6.61998C7.88673 6.42664 7.88673 6.10664 8.08006 5.91331C8.27339 5.71998 8.59339 5.71998 8.78673 5.91331L11.0201 8.14664C11.2134 8.33998 11.2134 8.65998 11.0201 8.85331L8.78673 11.0866C8.68673 11.1866 8.56006 11.2333 8.43339 11.2333Z" fill="#333333"/>
</svg>
