<svg width="56" height="56" viewBox="0 0 56 56" fill="none" xmlns="http://www.w3.org/2000/svg">
<g clip-path="url(#clip0_548_106129)">
<path d="M28 0C12.229 0 0 11.557 0 27.16C0 35.322 3.346 42.378 8.792 47.25C9.247 47.656 9.527 48.23 9.541 48.846L9.695 53.83C9.70621 54.1967 9.80733 54.5551 9.98947 54.8735C10.1716 55.192 10.4292 55.4609 10.7396 55.6565C11.0499 55.8522 11.4036 55.9686 11.7695 55.9955C12.1354 56.0224 12.5023 55.9591 12.838 55.811L18.396 53.361C18.865 53.151 19.397 53.116 19.894 53.249C22.449 53.949 25.165 54.327 28 54.327C43.771 54.327 56 42.77 56 27.167C56 11.564 43.771 0 28 0Z" fill="url(#paint0_radial_548_106129)"/>
<path d="M11.1859 35.1049L19.4109 22.0569C19.7203 21.5656 20.1282 21.1439 20.6089 20.8182C21.0895 20.4926 21.6324 20.2701 22.2034 20.1648C22.7743 20.0596 23.3609 20.0739 23.926 20.2068C24.4912 20.3396 25.0227 20.5883 25.4869 20.9369L32.0319 25.8439C32.3241 26.0626 32.6796 26.1803 33.0446 26.179C33.4096 26.1778 33.7642 26.0577 34.0549 25.8369L42.8889 19.1309C44.0649 18.2349 45.6049 19.6489 44.8209 20.9019L36.5889 33.9429C36.2795 34.4341 35.8716 34.8559 35.391 35.1816C34.9103 35.5072 34.3674 35.7297 33.7964 35.8349C33.2255 35.9402 32.6389 35.9259 32.0738 35.793C31.5086 35.6601 30.9771 35.4115 30.5129 35.0629L23.9679 30.1559C23.6757 29.9371 23.3202 29.8195 22.9552 29.8208C22.5902 29.822 22.2356 29.9421 21.9449 30.1629L13.1109 36.8689C11.9349 37.7649 10.3949 36.3579 11.1859 35.1049Z" fill="white"/>
</g>
<defs>
<radialGradient id="paint0_radial_548_106129" cx="0" cy="0" r="1" gradientUnits="userSpaceOnUse" gradientTransform="translate(9.38 56) scale(61.6 61.6)">
<stop stop-color="#0099FF"/>
<stop offset="0.6" stop-color="#A033FF"/>
<stop offset="0.9" stop-color="#FF5280"/>
<stop offset="1" stop-color="#FF7061"/>
</radialGradient>
<clipPath id="clip0_548_106129">
<rect width="56" height="56" fill="white"/>
</clipPath>
</defs>
</svg>
