<svg width="24" height="25" viewBox="0 0 24 25" fill="none" xmlns="http://www.w3.org/2000/svg">
<rect x="0.5" y="0.780029" width="23" height="23" rx="11.5" fill="#F0F0F0"/>
<path d="M11.9998 18.16C11.2598 18.16 10.5148 17.88 9.93484 17.325C8.45984 15.905 6.82984 13.64 7.44484 10.945C7.99984 8.50003 10.1348 7.40503 11.9998 7.40503C11.9998 7.40503 11.9998 7.40503 12.0048 7.40503C13.8698 7.40503 16.0048 8.50003 16.5598 10.95C17.1698 13.645 15.5398 15.905 14.0648 17.325C13.4848 17.88 12.7398 18.16 11.9998 18.16ZM11.9998 8.15503C10.5448 8.15503 8.67484 8.93003 8.17984 11.11C7.63984 13.465 9.11984 15.495 10.4598 16.78C11.3248 17.615 12.6798 17.615 13.5448 16.78C14.8798 15.495 16.3598 13.465 15.8298 11.11C15.3298 8.93003 13.4548 8.15503 11.9998 8.15503Z" fill="#54555B"/>
<path d="M11.3752 13.655C11.2802 13.655 11.1852 13.62 11.1102 13.545L10.3602 12.795C10.2152 12.65 10.2152 12.41 10.3602 12.265C10.5052 12.12 10.7452 12.12 10.8902 12.265L11.3752 12.75L13.1102 11.015C13.2552 10.87 13.4952 10.87 13.6402 11.015C13.7852 11.16 13.7852 11.4 13.6402 11.545L11.6402 13.545C11.5652 13.62 11.4702 13.655 11.3752 13.655Z" fill="#54555B"/>
<rect x="0.5" y="0.780029" width="23" height="23" rx="11.5" stroke="#E8E8E8"/>
</svg>
