<svg width="24" height="24" viewBox="0 0 24 24" fill="none" xmlns="http://www.w3.org/2000/svg">
<path d="M11.9999 14.1701C9.86988 14.1701 8.12988 12.4401 8.12988 10.3001C8.12988 8.16006 9.86988 6.44006 11.9999 6.44006C14.1299 6.44006 15.8699 8.17006 15.8699 10.3101C15.8699 12.4501 14.1299 14.1701 11.9999 14.1701ZM11.9999 7.94006C10.6999 7.94006 9.62988 9.00006 9.62988 10.3101C9.62988 11.6201 10.6899 12.6801 11.9999 12.6801C13.3099 12.6801 14.3699 11.6201 14.3699 10.3101C14.3699 9.00006 13.2999 7.94006 11.9999 7.94006Z" fill="#A4A4A4"/>
<path d="M11.9997 22.7601C10.5197 22.7601 9.02969 22.2001 7.86969 21.0901C4.91969 18.2501 1.65969 13.7201 2.88969 8.33012C3.99969 3.44012 8.26969 1.25012 11.9997 1.25012C11.9997 1.25012 11.9997 1.25012 12.0097 1.25012C15.7397 1.25012 20.0097 3.44012 21.1197 8.34012C22.3397 13.7301 19.0797 18.2501 16.1297 21.0901C14.9697 22.2001 13.4797 22.7601 11.9997 22.7601ZM11.9997 2.75012C9.08969 2.75012 5.34969 4.30012 4.35969 8.66012C3.27969 13.3701 6.23969 17.4301 8.91969 20.0001C10.6497 21.6701 13.3597 21.6701 15.0897 20.0001C17.7597 17.4301 20.7197 13.3701 19.6597 8.66012C18.6597 4.30012 14.9097 2.75012 11.9997 2.75012Z" fill="#A4A4A4"/>
</svg>
