<svg width="17" height="17" viewBox="0 0 17 17" fill="none" xmlns="http://www.w3.org/2000/svg">
<path d="M8.5 15.6733C7.51333 15.6733 6.51999 15.2999 5.74666 14.5599C3.78 12.6666 1.60666 9.64659 2.42666 6.05325C3.16666 2.79325 6.01333 1.33325 8.5 1.33325C8.5 1.33325 8.5 1.33325 8.50666 1.33325C10.9933 1.33325 13.84 2.79325 14.58 6.05992C15.3933 9.65325 13.22 12.6666 11.2533 14.5599C10.48 15.2999 9.48666 15.6733 8.5 15.6733ZM8.5 2.33325C6.56 2.33325 4.06666 3.36659 3.40666 6.27325C2.68666 9.41325 4.66 12.1199 6.44666 13.8333C7.6 14.9466 9.40666 14.9466 10.56 13.8333C12.34 12.1199 14.3133 9.41325 13.6067 6.27325C12.94 3.36659 10.44 2.33325 8.5 2.33325Z" fill="#54555B"/>
<path d="M7.66667 9.66671C7.54 9.66671 7.41334 9.62004 7.31334 9.52004L6.31333 8.52004C6.12 8.32671 6.12 8.00671 6.31333 7.81338C6.50667 7.62004 6.82667 7.62004 7.02 7.81338L7.66667 8.46004L9.98 6.14671C10.1733 5.95338 10.4933 5.95338 10.6867 6.14671C10.88 6.34004 10.88 6.66004 10.6867 6.85338L8.02 9.52004C7.92 9.62004 7.79333 9.66671 7.66667 9.66671Z" fill="#54555B"/>
</svg>
