<svg width="24" height="25" viewBox="0 0 24 25" fill="none" xmlns="http://www.w3.org/2000/svg">
<rect x="0.5" y="1.28003" width="23" height="23" rx="11.5" fill="#F0F0F0"/>
<path d="M14.5 17.905H9.5C7.675 17.905 6.625 16.855 6.625 15.03V11.53C6.625 9.70503 7.675 8.65503 9.5 8.65503H14.5C16.325 8.65503 17.375 9.70503 17.375 11.53V15.03C17.375 16.855 16.325 17.905 14.5 17.905ZM9.5 9.40503C8.07 9.40503 7.375 10.1 7.375 11.53V15.03C7.375 16.46 8.07 17.155 9.5 17.155H14.5C15.93 17.155 16.625 16.46 16.625 15.03V11.53C16.625 10.1 15.93 9.40503 14.5 9.40503H9.5Z" fill="#54555B"/>
<path d="M11.9999 13.715C11.5799 13.715 11.1549 13.585 10.8299 13.32L9.26489 12.07C9.10489 11.94 9.07489 11.705 9.20489 11.545C9.33489 11.385 9.56989 11.355 9.72989 11.485L11.2949 12.735C11.6749 13.04 12.3199 13.04 12.6999 12.735L14.2649 11.485C14.4249 11.355 14.6649 11.38 14.7899 11.545C14.9199 11.705 14.8949 11.945 14.7299 12.07L13.1649 13.32C12.8449 13.585 12.4199 13.715 11.9999 13.715Z" fill="#54555B"/>
<rect x="0.5" y="1.28003" width="23" height="23" rx="11.5" stroke="#E8E8E8"/>
</svg>
