<svg width="24" height="25" viewBox="0 0 24 25" fill="none" xmlns="http://www.w3.org/2000/svg">
<path d="M20.3795 21.6301C20.1795 21.6301 19.9895 21.5501 19.8495 21.4101L13.4695 15.0301C13.1795 14.7401 13.1795 14.2601 13.4695 13.9701L21.1995 6.24013C21.3895 6.05013 21.6795 5.98013 21.9395 6.05013C22.1995 6.13013 22.3994 6.34013 22.4594 6.60013C22.6494 7.45013 22.7495 8.40013 22.7495 9.50013V15.5001C22.7495 18.2701 22.1695 20.1401 20.9095 21.4101C20.7695 21.5501 20.5595 21.5801 20.3795 21.6301ZM15.0594 14.5001L20.3195 19.7601C20.9495 18.7901 21.2495 17.4101 21.2495 15.5001V9.50013C21.2495 9.09013 21.2394 8.71013 21.2094 8.35013L15.0594 14.5001Z" fill="#A4A4A4"/>
<path d="M6.26999 22.9801C6.20999 22.9801 6.16001 22.9701 6.10001 22.9601C2.79001 22.2001 1.25 19.8301 1.25 15.5001V9.50012C1.25 4.07012 3.57 1.75012 9 1.75012H15C19.33 1.75012 21.7 3.29013 22.46 6.60013C22.52 6.85013 22.44 7.12013 22.26 7.30013L6.79999 22.7601C6.65999 22.9001 6.46999 22.9801 6.26999 22.9801ZM9 3.25012C4.39 3.25012 2.75 4.89012 2.75 9.50012V15.5001C2.75 18.9701 3.71001 20.7101 6.04001 21.4001L20.89 6.55013C20.21 4.22013 18.46 3.26012 14.99 3.26012H9V3.25012Z" fill="#A4A4A4"/>
<path d="M15.0004 23.2502H9.00037C7.90037 23.2502 6.96038 23.1602 6.10038 22.9602C5.83038 22.9002 5.62036 22.7002 5.55036 22.4402C5.47036 22.1802 5.55036 21.9002 5.74036 21.7002L13.4704 13.9702C13.7604 13.6802 14.2404 13.6802 14.5304 13.9702L20.9104 20.3502C21.0504 20.4902 21.1304 20.6802 21.1304 20.8802C21.1304 21.0802 21.0504 21.2702 20.9104 21.4102C19.6404 22.6702 17.7704 23.2502 15.0004 23.2502ZM7.85038 21.7102C8.21038 21.7402 8.59037 21.7502 9.00037 21.7502H15.0004C16.9204 21.7502 18.2904 21.4502 19.2604 20.8202L14.0004 15.5602L7.85038 21.7102Z" fill="#A4A4A4"/>
<path d="M9.11994 13.81C8.48994 13.81 7.85993 13.58 7.35993 13.11C5.76993 11.6 5.12996 9.94005 5.50996 8.32005C5.88996 6.66005 7.33994 5.54004 9.11994 5.54004C10.8999 5.54004 12.35 6.66005 12.73 8.32005C13.1 9.95005 12.4599 11.6 10.8699 13.11C10.3799 13.57 9.74994 13.81 9.11994 13.81ZM6.96995 8.65004C6.64995 10.01 7.56994 11.2301 8.39994 12.0201C8.80994 12.41 9.43994 12.41 9.83994 12.0201C10.6599 11.2401 11.5799 10.02 11.2699 8.65004C10.9999 7.46004 9.93994 7.03004 9.11994 7.03004C8.29994 7.03004 7.24995 7.46004 6.96995 8.65004Z" fill="#A4A4A4"/>
<path d="M9.15039 9.99011C8.60039 9.99011 8.15039 9.54011 8.15039 8.99011C8.15039 8.44011 8.59039 7.99011 9.15039 7.99011H9.1604C9.7104 7.99011 10.1604 8.44011 10.1604 8.99011C10.1604 9.54011 9.70039 9.99011 9.15039 9.99011Z" fill="#A4A4A4"/>
</svg>
