<svg width="16" height="17" viewBox="0 0 16 17" fill="none" xmlns="http://www.w3.org/2000/svg">
<path d="M14 5.66663H2C1.72667 5.66663 1.5 5.43996 1.5 5.16663C1.5 4.89329 1.72667 4.66663 2 4.66663H14C14.2733 4.66663 14.5 4.89329 14.5 5.16663C14.5 5.43996 14.2733 5.66663 14 5.66663Z" fill="#062233"/>
<path d="M14 9H2C1.72667 9 1.5 8.77333 1.5 8.5C1.5 8.22667 1.72667 8 2 8H14C14.2733 8 14.5 8.22667 14.5 8.5C14.5 8.77333 14.2733 9 14 9Z" fill="#292D32"/>
<path d="M14 12.3334H2C1.72667 12.3334 1.5 12.1067 1.5 11.8334C1.5 11.56 1.72667 11.3334 2 11.3334H14C14.2733 11.3334 14.5 11.56 14.5 11.8334C14.5 12.1067 14.2733 12.3334 14 12.3334Z" fill="#292D32"/>
</svg>
