<svg width="24" height="25" viewBox="0 0 24 25" fill="none" xmlns="http://www.w3.org/2000/svg">
<path d="M12 17.0654C9.38 17.0654 7.25 14.9354 7.25 12.3154V6.81543C7.25 4.19543 9.38 2.06543 12 2.06543C14.62 2.06543 16.75 4.19543 16.75 6.81543V12.3154C16.75 14.9354 14.62 17.0654 12 17.0654ZM12 3.56543C10.21 3.56543 8.75 5.02543 8.75 6.81543V12.3154C8.75 14.1054 10.21 15.5654 12 15.5654C13.79 15.5654 15.25 14.1054 15.25 12.3154V6.81543C15.25 5.02543 13.79 3.56543 12 3.56543Z" fill="#333333"/>
<path d="M12.0001 20.5658C7.3701 20.5658 3.6001 16.7958 3.6001 12.1658V10.4658C3.6001 10.0558 3.9401 9.71582 4.3501 9.71582C4.7601 9.71582 5.1001 10.0558 5.1001 10.4658V12.1658C5.1001 15.9658 8.2001 19.0658 12.0001 19.0658C15.8001 19.0658 18.9001 15.9658 18.9001 12.1658V10.4658C18.9001 10.0558 19.2401 9.71582 19.6501 9.71582C20.0601 9.71582 20.4001 10.0558 20.4001 10.4658V12.1658C20.4001 16.7958 16.6301 20.5658 12.0001 20.5658Z" fill="#333333"/>
<path d="M13.3899 7.99574C13.3099 7.99574 13.2199 7.98574 13.1299 7.95574C12.3999 7.68574 11.5999 7.68574 10.8699 7.95574C10.4799 8.09574 10.0499 7.89574 9.90988 7.50574C9.76988 7.11574 9.96988 6.68574 10.3599 6.54574C11.4199 6.16574 12.5899 6.16574 13.6499 6.54574C14.0399 6.68574 14.2399 7.11574 14.0999 7.50574C13.9799 7.80574 13.6899 7.99574 13.3899 7.99574Z" fill="#333333"/>
<path d="M12.8001 10.1157C12.7301 10.1157 12.6701 10.1057 12.6001 10.0857C12.2001 9.97574 11.7901 9.97574 11.3901 10.0857C10.9901 10.1957 10.5801 9.95574 10.4701 9.55574C10.3601 9.16574 10.6001 8.75574 11.0001 8.64574C11.6501 8.46574 12.3501 8.46574 13.0001 8.64574C13.4001 8.75574 13.6401 9.16574 13.5301 9.56574C13.4401 9.89574 13.1301 10.1157 12.8001 10.1157Z" fill="#333333"/>
<path d="M12 23.5654C11.59 23.5654 11.25 23.2254 11.25 22.8154V19.8154C11.25 19.4054 11.59 19.0654 12 19.0654C12.41 19.0654 12.75 19.4054 12.75 19.8154V22.8154C12.75 23.2254 12.41 23.5654 12 23.5654Z" fill="#333333"/>
</svg>
