<svg width="16" height="17" viewBox="0 0 16 17" fill="none" xmlns="http://www.w3.org/2000/svg">
<path d="M7.9467 15.6668C4.00003 15.6668 0.780029 12.4535 0.780029 8.50016C0.780029 4.54683 4.00003 1.3335 7.9467 1.3335C11.8934 1.3335 15.1134 4.54683 15.1134 8.50016C15.1134 12.4535 11.9 15.6668 7.9467 15.6668ZM7.9467 2.3335C4.5467 2.3335 1.78003 5.10016 1.78003 8.50016C1.78003 11.9002 4.5467 14.6668 7.9467 14.6668C11.3467 14.6668 14.1134 11.9002 14.1134 8.50016C14.1134 5.10016 11.3467 2.3335 7.9467 2.3335Z" fill="#54555B"/>
<path d="M10.6134 9H5.28003C5.0067 9 4.78003 8.77333 4.78003 8.5C4.78003 8.22667 5.0067 8 5.28003 8H10.6134C10.8867 8 11.1134 8.22667 11.1134 8.5C11.1134 8.77333 10.8934 9 10.6134 9Z" fill="#54555B"/>
</svg>
