<svg width="24" height="25" viewBox="0 0 24 25" fill="none" xmlns="http://www.w3.org/2000/svg">
<rect x="0.5" y="1.28003" width="23" height="23" rx="11.5" fill="#F0F0F0"/>
<path d="M14.725 18.655C14.16 18.655 13.565 18.52 12.95 18.26C12.35 18.005 11.745 17.655 11.155 17.23C10.57 16.8 10.005 16.32 9.47 15.795C8.94 15.26 8.46 14.695 8.035 14.115C7.605 13.515 7.26 12.915 7.015 12.335C6.755 11.715 6.625 11.115 6.625 10.55C6.625 10.16 6.695 9.79003 6.83 9.44503C6.97 9.09003 7.195 8.76003 7.5 8.47503C7.885 8.09503 8.325 7.90503 8.795 7.90503C8.99 7.90503 9.19 7.95003 9.36 8.03003C9.555 8.12003 9.72 8.25503 9.84 8.43503L11 10.07C11.105 10.215 11.185 10.355 11.24 10.495C11.305 10.645 11.34 10.795 11.34 10.94C11.34 11.13 11.285 11.315 11.18 11.49C11.105 11.625 10.99 11.77 10.845 11.915L10.505 12.27C10.51 12.285 10.515 12.295 10.52 12.305C10.58 12.41 10.7 12.59 10.93 12.86C11.175 13.14 11.405 13.395 11.635 13.63C11.93 13.92 12.175 14.15 12.405 14.34C12.69 14.58 12.875 14.7 12.985 14.755L12.975 14.78L13.34 14.42C13.495 14.265 13.645 14.15 13.79 14.075C14.065 13.905 14.415 13.875 14.765 14.02C14.895 14.075 15.035 14.15 15.185 14.255L16.845 15.435C17.03 15.56 17.165 15.72 17.245 15.91C17.32 16.1 17.355 16.275 17.355 16.45C17.355 16.69 17.3 16.93 17.195 17.155C17.09 17.38 16.96 17.575 16.795 17.755C16.51 18.07 16.2 18.295 15.84 18.44C15.495 18.58 15.12 18.655 14.725 18.655ZM8.795 8.65503C8.52 8.65503 8.265 8.77503 8.02 9.01503C7.79 9.23003 7.63 9.46503 7.53 9.72003C7.425 9.98003 7.375 10.255 7.375 10.55C7.375 11.015 7.485 11.52 7.705 12.04C7.93 12.57 8.245 13.12 8.645 13.67C9.045 14.22 9.5 14.755 10 15.26C10.5 15.755 11.04 16.215 11.595 16.62C12.135 17.015 12.69 17.335 13.24 17.565C14.095 17.93 14.895 18.015 15.555 17.74C15.81 17.635 16.035 17.475 16.24 17.245C16.355 17.12 16.445 16.985 16.52 16.825C16.58 16.7 16.61 16.57 16.61 16.44C16.61 16.36 16.595 16.28 16.555 16.19C16.54 16.16 16.51 16.105 16.415 16.04L14.755 14.86C14.655 14.79 14.565 14.74 14.48 14.705C14.37 14.66 14.325 14.615 14.155 14.72C14.055 14.77 13.965 14.845 13.865 14.945L13.485 15.32C13.29 15.51 12.99 15.555 12.76 15.47L12.625 15.41C12.42 15.3 12.18 15.13 11.915 14.905C11.675 14.7 11.415 14.46 11.1 14.15C10.855 13.9 10.61 13.635 10.355 13.34C10.12 13.065 9.95 12.83 9.845 12.635L9.785 12.485C9.755 12.37 9.745 12.305 9.745 12.235C9.745 12.055 9.81 11.895 9.935 11.77L10.31 11.38C10.41 11.28 10.485 11.185 10.535 11.1C10.575 11.035 10.59 10.98 10.59 10.93C10.59 10.89 10.575 10.83 10.55 10.77C10.515 10.69 10.46 10.6 10.39 10.505L9.23 8.86503C9.18 8.79503 9.12 8.74503 9.045 8.71003C8.965 8.67503 8.88 8.65503 8.795 8.65503ZM12.975 14.785L12.895 15.125L13.03 14.775C13.005 14.77 12.985 14.775 12.975 14.785Z" fill="#54555B"/>
<path d="M15.25 12.155C15.045 12.155 14.875 11.985 14.875 11.78C14.875 11.6 14.695 11.225 14.395 10.905C14.1 10.59 13.775 10.405 13.5 10.405C13.295 10.405 13.125 10.235 13.125 10.03C13.125 9.82503 13.295 9.65503 13.5 9.65503C13.985 9.65503 14.495 9.91503 14.94 10.39C15.355 10.835 15.625 11.38 15.625 11.78C15.625 11.985 15.455 12.155 15.25 12.155Z" fill="#54555B"/>
<path d="M17 12.155C16.795 12.155 16.625 11.985 16.625 11.78C16.625 10.055 15.225 8.65503 13.5 8.65503C13.295 8.65503 13.125 8.48503 13.125 8.28003C13.125 8.07503 13.295 7.90503 13.5 7.90503C15.635 7.90503 17.375 9.64503 17.375 11.78C17.375 11.985 17.205 12.155 17 12.155Z" fill="#292D32"/>
<rect x="0.5" y="1.28003" width="23" height="23" rx="11.5" stroke="#E8E8E8"/>
</svg>
