<svg width="24" height="25" viewBox="0 0 24 25" fill="none" xmlns="http://www.w3.org/2000/svg">
<path d="M17.45 23.2501C16.32 23.2501 15.13 22.9801 13.9 22.4601C12.7 21.9501 11.49 21.2501 10.31 20.4001C9.14 19.5401 8.01 18.5801 6.94 17.5301C5.88 16.4601 4.92 15.3301 4.07 14.1701C3.21 12.9701 2.52 11.7701 2.03 10.6101C1.51 9.37012 1.25 8.17012 1.25 7.04012C1.25 6.26012 1.39 5.52012 1.66 4.83012C1.94 4.12012 2.39 3.46012 3 2.89012C3.77 2.13012 4.65 1.75012 5.59 1.75012C5.98 1.75012 6.38 1.84012 6.72 2.00012C7.11 2.18012 7.44 2.45012 7.68 2.81012L10 6.08012C10.21 6.37012 10.37 6.65012 10.48 6.93012C10.61 7.23012 10.68 7.53012 10.68 7.82012C10.68 8.20012 10.57 8.57012 10.36 8.92012C10.21 9.19012 9.98 9.48012 9.69 9.77012L9.01 10.4801C9.02 10.5101 9.03 10.5301 9.04 10.5501C9.16 10.7601 9.4 11.1201 9.86 11.6601C10.35 12.2201 10.81 12.7301 11.27 13.2001C11.86 13.7801 12.35 14.2401 12.81 14.6201C13.38 15.1001 13.75 15.3401 13.97 15.4501L13.95 15.5001L14.68 14.7801C14.99 14.4701 15.29 14.2401 15.58 14.0901C16.13 13.7501 16.83 13.6901 17.53 13.9801C17.79 14.0901 18.07 14.2401 18.37 14.4501L21.69 16.8101C22.06 17.0601 22.33 17.3801 22.49 17.7601C22.64 18.1401 22.71 18.4901 22.71 18.8401C22.71 19.3201 22.6 19.8001 22.39 20.2501C22.18 20.7001 21.92 21.0901 21.59 21.4501C21.02 22.0801 20.4 22.5301 19.68 22.8201C18.99 23.1001 18.24 23.2501 17.45 23.2501ZM5.59 3.25012C5.04 3.25012 4.53 3.49012 4.04 3.97012C3.58 4.40012 3.26 4.87012 3.06 5.38012C2.85 5.90012 2.75 6.45012 2.75 7.04012C2.75 7.97012 2.97 8.98012 3.41 10.0201C3.86 11.0801 4.49 12.1801 5.29 13.2801C6.09 14.3801 7 15.4501 8 16.4601C9 17.4501 10.08 18.3701 11.19 19.1801C12.27 19.9701 13.38 20.6101 14.48 21.0701C16.19 21.8001 17.79 21.9701 19.11 21.4201C19.62 21.2101 20.07 20.8901 20.48 20.4301C20.71 20.1801 20.89 19.9101 21.04 19.5901C21.16 19.3401 21.22 19.0801 21.22 18.8201C21.22 18.6601 21.19 18.5001 21.11 18.3201C21.08 18.2601 21.02 18.1501 20.83 18.0201L17.51 15.6601C17.31 15.5201 17.13 15.4201 16.96 15.3501C16.74 15.2601 16.65 15.1701 16.31 15.3801C16.11 15.4801 15.93 15.6301 15.73 15.8301L14.97 16.5801C14.58 16.9601 13.98 17.0501 13.52 16.8801L13.25 16.7601C12.84 16.5401 12.36 16.2001 11.83 15.7501C11.35 15.3401 10.83 14.8601 10.2 14.2401C9.71 13.7401 9.22 13.2101 8.71 12.6201C8.24 12.0701 7.9 11.6001 7.69 11.2101L7.57 10.9101C7.51 10.6801 7.49 10.5501 7.49 10.4101C7.49 10.0501 7.62 9.73012 7.87 9.48012L8.62 8.70012C8.82 8.50012 8.97 8.31012 9.07 8.14012C9.15 8.01012 9.18 7.90012 9.18 7.80012C9.18 7.72012 9.15 7.60012 9.1 7.48012C9.03 7.32012 8.92 7.14012 8.78 6.95012L6.46 3.67012C6.36 3.53012 6.24 3.43012 6.09 3.36012C5.93 3.29012 5.76 3.25012 5.59 3.25012ZM13.95 15.5101L13.79 16.1901L14.06 15.4901C14.01 15.4801 13.97 15.4901 13.95 15.5101Z" fill="#A4A4A4"/>
<path d="M18.5 10.2501C18.09 10.2501 17.75 9.91012 17.75 9.50012C17.75 9.14012 17.39 8.39012 16.79 7.75012C16.2 7.12012 15.55 6.75012 15 6.75012C14.59 6.75012 14.25 6.41012 14.25 6.00012C14.25 5.59012 14.59 5.25012 15 5.25012C15.97 5.25012 16.99 5.77012 17.88 6.72012C18.71 7.61012 19.25 8.70012 19.25 9.50012C19.25 9.91012 18.91 10.2501 18.5 10.2501Z" fill="#A4A4A4"/>
<path d="M22 10.2501C21.59 10.2501 21.25 9.91012 21.25 9.50012C21.25 6.05012 18.45 3.25012 15 3.25012C14.59 3.25012 14.25 2.91012 14.25 2.50012C14.25 2.09012 14.59 1.75012 15 1.75012C19.27 1.75012 22.75 5.23012 22.75 9.50012C22.75 9.91012 22.41 10.2501 22 10.2501Z" fill="#A4A4A4"/>
</svg>
