<svg width="24" height="25" viewBox="0 0 24 25" fill="none" xmlns="http://www.w3.org/2000/svg">
<path d="M5.46967 11.2501C4.75967 11.2501 4.03967 10.9901 3.48967 10.4601C1.64967 8.71012 0.909667 6.80012 1.33967 4.93012C1.84967 2.73012 3.77967 1.75012 5.46967 1.75012C7.15967 1.75012 9.09967 2.74012 9.59967 4.93012C10.0297 6.80012 9.27967 8.71012 7.44967 10.4601C6.89967 10.9901 6.18967 11.2501 5.46967 11.2501ZM2.79967 5.27012C2.41967 6.94012 3.52967 8.42012 4.52967 9.37012C5.05967 9.88012 5.88967 9.87012 6.41967 9.37012C7.41967 8.42012 8.52967 6.94012 8.13967 5.26012C7.79967 3.78012 6.48967 3.25012 5.47967 3.25012C4.45967 3.25012 3.14967 3.78012 2.79967 5.27012Z" fill="#A4A4A4"/>
<path d="M5.50977 6.70007C4.95977 6.70007 4.50977 6.25007 4.50977 5.70007C4.50977 5.15007 4.94977 4.70007 5.50977 4.70007H5.51977C6.06977 4.70007 6.51977 5.15007 6.51977 5.70007C6.51977 6.25007 6.06977 6.70007 5.50977 6.70007Z" fill="#A4A4A4"/>
<path d="M18.4904 23.2501C17.7804 23.2501 17.0604 22.9901 16.5004 22.4601C14.6504 20.7101 13.9004 18.8001 14.3404 16.9201C14.8504 14.7301 16.7904 13.7401 18.4904 13.7401C20.1904 13.7401 22.1304 14.7301 22.6404 16.9201C23.0704 18.7901 22.3204 20.7101 20.4704 22.4501C19.9204 22.9901 19.2104 23.2501 18.4904 23.2501ZM18.4904 15.2501C17.4704 15.2501 16.1504 15.7801 15.8004 17.2701C15.4104 18.9401 16.5304 20.4301 17.5304 21.3801C18.0604 21.8901 18.9004 21.8901 19.4404 21.3801C20.4404 20.4301 21.5604 18.9501 21.1704 17.2801C20.8404 15.7801 19.5204 15.2501 18.4904 15.2501Z" fill="#A4A4A4"/>
<path d="M18.5303 18.7001C17.9803 18.7001 17.5303 18.2501 17.5303 17.7001C17.5303 17.1501 17.9703 16.7001 18.5303 16.7001H18.5403C19.0903 16.7001 19.5403 17.1501 19.5403 17.7001C19.5403 18.2501 19.0803 18.7001 18.5303 18.7001Z" fill="#A4A4A4"/>
<path d="M12.0004 20.2501H9.32043C8.16043 20.2501 7.15043 19.5501 6.75043 18.4701C6.34043 17.3901 6.64043 16.2001 7.51043 15.4301L15.5004 8.44012C15.9804 8.02012 15.9904 7.45012 15.8504 7.06012C15.7004 6.67012 15.3204 6.25012 14.6804 6.25012H12.0004C11.5904 6.25012 11.2504 5.91012 11.2504 5.50012C11.2504 5.09012 11.5904 4.75012 12.0004 4.75012H14.6804C15.8404 4.75012 16.8504 5.45012 17.2504 6.53012C17.6604 7.61012 17.3604 8.80012 16.4904 9.57012L8.50043 16.5601C8.02043 16.9801 8.01043 17.5501 8.15043 17.9401C8.30043 18.3301 8.68043 18.7501 9.32043 18.7501H12.0004C12.4104 18.7501 12.7504 19.0901 12.7504 19.5001C12.7504 19.9101 12.4104 20.2501 12.0004 20.2501Z" fill="#A4A4A4"/>
<path d="M12.0004 20.2501H9.32043C8.16043 20.2501 7.15043 19.5501 6.75043 18.4701C6.34043 17.3901 6.64043 16.2001 7.51043 15.4301L15.5004 8.44012C15.9804 8.02012 15.9904 7.45012 15.8504 7.06012C15.7004 6.67012 15.3204 6.25012 14.6804 6.25012H12.0004C11.5904 6.25012 11.2504 5.91012 11.2504 5.50012C11.2504 5.09012 11.5904 4.75012 12.0004 4.75012H14.6804C15.8404 4.75012 16.8504 5.45012 17.2504 6.53012C17.6604 7.61012 17.3604 8.80012 16.4904 9.57012L8.50043 16.5601C8.02043 16.9801 8.01043 17.5501 8.15043 17.9401C8.30043 18.3301 8.68043 18.7501 9.32043 18.7501H12.0004C12.4104 18.7501 12.7504 19.0901 12.7504 19.5001C12.7504 19.9101 12.4104 20.2501 12.0004 20.2501Z" fill="#A4A4A4"/>
</svg>
