<svg width="17" height="16" viewBox="0 0 17 16" fill="none" xmlns="http://www.w3.org/2000/svg">
<path d="M8.16668 14.5C4.40001 14.5 1.33334 11.4333 1.33334 7.66665C1.33334 3.89998 4.40001 0.833313 8.16668 0.833313C11.9333 0.833313 15 3.89998 15 7.66665C15 11.4333 11.9333 14.5 8.16668 14.5ZM8.16668 1.83331C4.94668 1.83331 2.33334 4.45331 2.33334 7.66665C2.33334 10.88 4.94668 13.5 8.16668 13.5C11.3867 13.5 14 10.88 14 7.66665C14 4.45331 11.3867 1.83331 8.16668 1.83331Z" fill="white"/>
<path d="M15.1667 15.1667C15.04 15.1667 14.9133 15.12 14.8133 15.02L13.48 13.6867C13.2867 13.4934 13.2867 13.1734 13.48 12.98C13.6733 12.7867 13.9933 12.7867 14.1867 12.98L15.52 14.3134C15.7133 14.5067 15.7133 14.8267 15.52 15.02C15.42 15.12 15.2933 15.1667 15.1667 15.1667Z" fill="white"/>
</svg>
