<svg width="25" height="24" viewBox="0 0 25 24" fill="none" xmlns="http://www.w3.org/2000/svg">
<path d="M12.4375 21.75C6.7875 21.75 2.1875 17.15 2.1875 11.5C2.1875 5.85 6.7875 1.25 12.4375 1.25C18.0875 1.25 22.6875 5.85 22.6875 11.5C22.6875 17.15 18.0875 21.75 12.4375 21.75ZM12.4375 2.75C7.6075 2.75 3.6875 6.68 3.6875 11.5C3.6875 16.32 7.6075 20.25 12.4375 20.25C17.2675 20.25 21.1875 16.32 21.1875 11.5C21.1875 6.68 17.2675 2.75 12.4375 2.75Z" fill="#333333"/>
<path d="M22.9379 22.7499C22.7479 22.7499 22.5579 22.6799 22.4079 22.5299L20.4079 20.5299C20.1179 20.2399 20.1179 19.7599 20.4079 19.4699C20.6979 19.1799 21.1779 19.1799 21.4679 19.4699L23.4679 21.4699C23.7579 21.7599 23.7579 22.2399 23.4679 22.5299C23.3179 22.6799 23.1279 22.7499 22.9379 22.7499Z" fill="#333333"/>
</svg>
