<svg width="24" height="25" viewBox="0 0 24 25" fill="none" xmlns="http://www.w3.org/2000/svg">
<path d="M11.5 22.5654C5.85 22.5654 1.25 17.9654 1.25 12.3154C1.25 6.66543 5.85 2.06543 11.5 2.06543C17.15 2.06543 21.75 6.66543 21.75 12.3154C21.75 17.9654 17.15 22.5654 11.5 22.5654ZM11.5 3.56543C6.67 3.56543 2.75 7.49543 2.75 12.3154C2.75 17.1354 6.67 21.0654 11.5 21.0654C16.33 21.0654 20.25 17.1354 20.25 12.3154C20.25 7.49543 16.33 3.56543 11.5 3.56543Z" fill="#54555B"/>
<path d="M21.9999 23.5659C21.8099 23.5659 21.6199 23.4959 21.4699 23.3459L19.4699 21.3459C19.1799 21.0559 19.1799 20.5759 19.4699 20.2859C19.7599 19.9959 20.2399 19.9959 20.5299 20.2859L22.5299 22.2859C22.8199 22.5759 22.8199 23.0559 22.5299 23.3459C22.3799 23.4959 22.1899 23.5659 21.9999 23.5659Z" fill="#54555B"/>
</svg>
