<svg width="17" height="17" viewBox="0 0 17 17" fill="none" xmlns="http://www.w3.org/2000/svg">
<path d="M8.16659 15.3151C4.39992 15.3151 1.33325 12.2484 1.33325 8.48177C1.33325 4.7151 4.39992 1.64844 8.16659 1.64844C11.9333 1.64844 14.9999 4.7151 14.9999 8.48177C14.9999 12.2484 11.9333 15.3151 8.16659 15.3151ZM8.16659 2.64844C4.94659 2.64844 2.33325 5.26844 2.33325 8.48177C2.33325 11.6951 4.94659 14.3151 8.16659 14.3151C11.3866 14.3151 13.9999 11.6951 13.9999 8.48177C13.9999 5.26844 11.3866 2.64844 8.16659 2.64844Z" fill="#54555B"/>
<path d="M15.1666 15.9821C15.04 15.9821 14.9133 15.9354 14.8133 15.8354L13.48 14.5021C13.2866 14.3087 13.2866 13.9887 13.48 13.7954C13.6733 13.6021 13.9933 13.6021 14.1866 13.7954L15.52 15.1287C15.7133 15.3221 15.7133 15.6421 15.52 15.8354C15.42 15.9354 15.2933 15.9821 15.1666 15.9821Z" fill="#54555B"/>
</svg>
