<svg width="20" height="21" viewBox="0 0 20 21" fill="none" xmlns="http://www.w3.org/2000/svg">
<path d="M15.1584 15.2916H6.28341C5.45841 15.2916 4.66674 14.9416 4.10841 14.3333C3.55008 13.725 3.26675 12.9083 3.33341 12.0833L4.02508 3.78329C4.05008 3.52496 3.95841 3.27496 3.78341 3.0833C3.60841 2.89163 3.36674 2.79163 3.10841 2.79163H1.66675C1.32508 2.79163 1.04175 2.50829 1.04175 2.16663C1.04175 1.82496 1.32508 1.54163 1.66675 1.54163H3.11675C3.72509 1.54163 4.30008 1.79996 4.70841 2.24162C4.93341 2.49162 5.10008 2.7833 5.19174 3.1083H15.6001C16.4417 3.1083 17.2167 3.44163 17.7834 4.04163C18.3417 4.64996 18.6251 5.44163 18.5584 6.28329L18.1084 12.5333C18.0167 14.0583 16.6834 15.2916 15.1584 15.2916ZM5.23341 4.34996L4.58341 12.1833C4.54175 12.6666 4.70008 13.1249 5.02508 13.4833C5.35008 13.8416 5.80008 14.0333 6.28341 14.0333H15.1584C16.0251 14.0333 16.8084 13.3 16.8751 12.4333L17.3251 6.1833C17.3584 5.69163 17.2001 5.22497 16.8751 4.8833C16.5501 4.5333 16.1001 4.34161 15.6084 4.34161H5.23341V4.34996Z" fill="#262626"/>
<path d="M13.5417 19.4583C12.625 19.4583 11.875 18.7083 11.875 17.7917C11.875 16.875 12.625 16.125 13.5417 16.125C14.4583 16.125 15.2083 16.875 15.2083 17.7917C15.2083 18.7083 14.4583 19.4583 13.5417 19.4583ZM13.5417 17.375C13.3083 17.375 13.125 17.5583 13.125 17.7917C13.125 18.025 13.3083 18.2083 13.5417 18.2083C13.775 18.2083 13.9583 18.025 13.9583 17.7917C13.9583 17.5583 13.775 17.375 13.5417 17.375Z" fill="#262626"/>
<path d="M6.87492 19.4583C5.95825 19.4583 5.20825 18.7083 5.20825 17.7917C5.20825 16.875 5.95825 16.125 6.87492 16.125C7.79159 16.125 8.54159 16.875 8.54159 17.7917C8.54159 18.7083 7.79159 19.4583 6.87492 19.4583ZM6.87492 17.375C6.64159 17.375 6.45825 17.5583 6.45825 17.7917C6.45825 18.025 6.64159 18.2083 6.87492 18.2083C7.10825 18.2083 7.29159 18.025 7.29159 17.7917C7.29159 17.5583 7.10825 17.375 6.87492 17.375Z" fill="#262626"/>
<path d="M17.5 7.79163H7.5C7.15833 7.79163 6.875 7.50829 6.875 7.16663C6.875 6.82496 7.15833 6.54163 7.5 6.54163H17.5C17.8417 6.54163 18.125 6.82496 18.125 7.16663C18.125 7.50829 17.8417 7.79163 17.5 7.79163Z" fill="#262626"/>
</svg>
