<svg width="25" height="25" viewBox="0 0 25 25" fill="none" xmlns="http://www.w3.org/2000/svg">
<path d="M17.5 21.7501H7.5C3.85 21.7501 1.75 19.6501 1.75 16.0001V9.00012C1.75 5.35012 3.85 3.25012 7.5 3.25012H17.5C21.15 3.25012 23.25 5.35012 23.25 9.00012V16.0001C23.25 19.6501 21.15 21.7501 17.5 21.7501ZM7.5 4.75012C4.64 4.75012 3.25 6.14012 3.25 9.00012V16.0001C3.25 18.8601 4.64 20.2501 7.5 20.2501H17.5C20.36 20.2501 21.75 18.8601 21.75 16.0001V9.00012C21.75 6.14012 20.36 4.75012 17.5 4.75012H7.5Z" fill="#A4A4A4"/>
<path d="M12.4998 13.3701C11.6598 13.3701 10.8098 13.1101 10.1598 12.5801L7.02978 10.0801C6.70978 9.82009 6.64978 9.35009 6.90978 9.03009C7.16978 8.71009 7.63978 8.6501 7.95978 8.9101L11.0898 11.4101C11.8498 12.0201 13.1398 12.0201 13.8998 11.4101L17.0298 8.9101C17.3498 8.6501 17.8298 8.70009 18.0798 9.03009C18.3398 9.35009 18.2898 9.83009 17.9598 10.0801L14.8298 12.5801C14.1898 13.1101 13.3398 13.3701 12.4998 13.3701Z" fill="#A4A4A4"/>
</svg>
