<svg width="17" height="16" viewBox="0 0 17 16" fill="none" xmlns="http://www.w3.org/2000/svg">
<path d="M3.66675 4.31544C3.66675 4.03929 3.89061 3.81544 4.16675 3.81544H10.1667C10.4429 3.81544 10.6667 4.03929 10.6667 4.31544C10.6667 4.59158 10.4429 4.81544 10.1667 4.81544H4.16675C3.89061 4.81544 3.66675 4.59158 3.66675 4.31544Z" fill="#333333"/>
<path d="M3.66675 6.31544C3.66675 6.03929 3.89061 5.81544 4.16675 5.81544H10.1667C10.4429 5.81544 10.6667 6.03929 10.6667 6.31544C10.6667 6.59158 10.4429 6.81544 10.1667 6.81544H4.16675C3.89061 6.81544 3.66675 6.59158 3.66675 6.31544Z" fill="#333333"/>
<path d="M3.66675 8.31544C3.66675 8.03929 3.89061 7.81544 4.16675 7.81544H10.1667C10.4429 7.81544 10.6667 8.03929 10.6667 8.31544C10.6667 8.59158 10.4429 8.81544 10.1667 8.81544H4.16675C3.89061 8.81544 3.66675 8.59158 3.66675 8.31544Z" fill="#333333"/>
<path d="M3.66675 10.3154C3.66675 10.0393 3.89061 9.81544 4.16675 9.81544H10.1667C10.4429 9.81544 10.6667 10.0393 10.6667 10.3154C10.6667 10.5916 10.4429 10.8154 10.1667 10.8154H4.16675C3.89061 10.8154 3.66675 10.5916 3.66675 10.3154Z" fill="#333333"/>
<path d="M3.66675 12.3154C3.66675 12.0393 3.89061 11.8154 4.16675 11.8154H10.1667C10.4429 11.8154 10.6667 12.0393 10.6667 12.3154C10.6667 12.5916 10.4429 12.8154 10.1667 12.8154H4.16675C3.89061 12.8154 3.66675 12.5916 3.66675 12.3154Z" fill="#333333"/>
<path d="M12.1667 3.81544C11.8906 3.81544 11.6667 4.03929 11.6667 4.31544C11.6667 4.59158 11.8906 4.81544 12.1667 4.81544H13.1667C13.4429 4.81544 13.6667 4.59158 13.6667 4.31544C13.6667 4.03929 13.4429 3.81544 13.1667 3.81544H12.1667Z" fill="#333333"/>
<path d="M12.1667 5.81544C11.8906 5.81544 11.6667 6.03929 11.6667 6.31544C11.6667 6.59158 11.8906 6.81544 12.1667 6.81544H13.1667C13.4429 6.81544 13.6667 6.59158 13.6667 6.31544C13.6667 6.03929 13.4429 5.81544 13.1667 5.81544H12.1667Z" fill="#333333"/>
<path d="M12.1667 7.81544C11.8906 7.81544 11.6667 8.03929 11.6667 8.31544C11.6667 8.59158 11.8906 8.81544 12.1667 8.81544H13.1667C13.4429 8.81544 13.6667 8.59158 13.6667 8.31544C13.6667 8.03929 13.4429 7.81544 13.1667 7.81544H12.1667Z" fill="#333333"/>
<path d="M12.1667 9.81544C11.8906 9.81544 11.6667 10.0393 11.6667 10.3154C11.6667 10.5916 11.8906 10.8154 12.1667 10.8154H13.1667C13.4429 10.8154 13.6667 10.5916 13.6667 10.3154C13.6667 10.0393 13.4429 9.81544 13.1667 9.81544H12.1667Z" fill="#333333"/>
<path d="M12.1667 11.8154C11.8906 11.8154 11.6667 12.0393 11.6667 12.3154C11.6667 12.5916 11.8906 12.8154 12.1667 12.8154H13.1667C13.4429 12.8154 13.6667 12.5916 13.6667 12.3154C13.6667 12.0393 13.4429 11.8154 13.1667 11.8154H12.1667Z" fill="#333333"/>
<path d="M3.0203 0.461882C2.90665 0.348235 2.7453 0.296147 2.58666 0.321892C2.42801 0.347637 2.29141 0.448075 2.21953 0.591829L1.71953 1.59183C1.68482 1.66126 1.66675 1.73781 1.66675 1.81544V14.8154H1.16675C0.890606 14.8154 0.666748 15.0393 0.666748 15.3154C0.666748 15.5916 0.890606 15.8154 1.16675 15.8154H16.1667C16.4429 15.8154 16.6667 15.5916 16.6667 15.3154C16.6667 15.0393 16.4429 14.8154 16.1667 14.8154H15.6667V1.81544C15.6667 1.73781 15.6487 1.66126 15.614 1.59183L15.114 0.591829C15.0421 0.448075 14.9055 0.347637 14.7468 0.321892C14.5882 0.296147 14.4268 0.348235 14.3132 0.461882L13.6667 1.10833L13.0203 0.461882C12.825 0.26662 12.5085 0.26662 12.3132 0.461882L11.6667 1.10833L11.0203 0.461882C10.825 0.26662 10.5085 0.26662 10.3132 0.461882L9.66675 1.10833L9.0203 0.461882C8.82504 0.26662 8.50846 0.26662 8.31319 0.461882L7.66675 1.10833L7.0203 0.461882C6.82504 0.26662 6.50846 0.26662 6.31319 0.461882L5.66675 1.10833L5.0203 0.461882C4.82504 0.26662 4.50846 0.26662 4.31319 0.461882L3.66675 1.10833L3.0203 0.461882ZM2.80372 1.65952L3.31319 2.16899C3.50846 2.36425 3.82504 2.36425 4.0203 2.16899L4.66675 1.52254L5.31319 2.16899C5.50846 2.36425 5.82504 2.36425 6.0203 2.16899L6.66675 1.52254L7.31319 2.16899C7.50846 2.36425 7.82504 2.36425 8.0203 2.16899L8.66675 1.52254L9.31319 2.16899C9.50846 2.36425 9.82504 2.36425 10.0203 2.16899L10.6667 1.52254L11.3132 2.16899C11.5085 2.36425 11.825 2.36425 12.0203 2.16899L12.6667 1.52254L13.3132 2.16899C13.5085 2.36425 13.825 2.36425 14.0203 2.16899L14.5298 1.65952L14.6667 1.93347V14.8154H2.66675V1.93347L2.80372 1.65952Z" fill="#333333"/>
</svg>
