<svg width="16" height="16" viewBox="0 0 16 16" fill="none" xmlns="http://www.w3.org/2000/svg">
<path d="M8 9.16663C7.72667 9.16663 7.5 8.93996 7.5 8.66663V5.16663C7.5 4.89329 7.72667 4.66663 8 4.66663C8.27333 4.66663 8.5 4.89329 8.5 5.16663V8.66663C8.5 8.93996 8.27333 9.16663 8 9.16663Z" fill="#2F69FD"/>
<path d="M7.99967 11.4999C7.81967 11.4999 7.65299 11.4333 7.52633 11.3066C7.46633 11.24 7.41968 11.1666 7.37968 11.0866C7.34635 11.0066 7.33301 10.9199 7.33301 10.8333C7.33301 10.6599 7.40633 10.4866 7.52633 10.3599C7.77299 10.1133 8.22636 10.1133 8.47302 10.3599C8.59302 10.4866 8.66634 10.6599 8.66634 10.8333C8.66634 10.9199 8.64633 11.0066 8.613 11.0866C8.57966 11.1666 8.53302 11.24 8.47302 11.3066C8.34636 11.4333 8.17967 11.4999 7.99967 11.4999Z" fill="#2F69FD"/>
<path d="M8.00045 15.1666C7.55378 15.1666 7.10044 15.0533 6.70044 14.8199L2.74044 12.5333C1.94044 12.0666 1.44043 11.2066 1.44043 10.2799V5.71995C1.44043 4.79329 1.94044 3.93328 2.74044 3.46662L6.70044 1.17996C7.50044 0.713289 8.49379 0.713289 9.30046 1.17996L13.2605 3.46662C14.0605 3.93328 14.5605 4.79329 14.5605 5.71995V10.2799C14.5605 11.2066 14.0605 12.0666 13.2605 12.5333L9.30046 14.8199C8.90046 15.0533 8.44711 15.1666 8.00045 15.1666ZM8.00045 1.83328C7.72711 1.83328 7.44711 1.90661 7.20044 2.04661L3.24044 4.33328C2.7471 4.61994 2.44043 5.14662 2.44043 5.71995V10.2799C2.44043 10.8466 2.7471 11.3799 3.24044 11.6666L7.20044 13.9533C7.69377 14.2399 8.30712 14.2399 8.79378 13.9533L12.7538 11.6666C13.2471 11.3799 13.5538 10.8533 13.5538 10.2799V5.71995C13.5538 5.15329 13.2471 4.61994 12.7538 4.33328L8.79378 2.04661C8.55378 1.90661 8.27378 1.83328 8.00045 1.83328Z" fill="#2F69FD"/>
</svg>
