<svg width="20" height="21" fill="none" xmlns="http://www.w3.org/2000/svg"><path d="M15.158 15.292H6.283a2.96 2.96 0 01-2.175-.959 2.978 2.978 0 01-.775-2.25l.692-8.3a.907.907 0 00-.242-.7.902.902 0 00-.675-.291H1.667a.63.63 0 01-.625-.625.63.63 0 01.625-.625h1.45a2.17 2.17 0 011.591.7c.225.25.392.541.484.866H15.6a2.97 2.97 0 012.183.934c.559.608.842 1.4.775 2.241l-.45 6.25c-.091 1.525-1.425 2.759-2.95 2.759zM5.233 4.35l-.65 7.833c-.041.484.117.942.442 1.3.325.359.775.55 1.258.55h8.875c.867 0 1.65-.733 1.717-1.6l.45-6.25a1.7 1.7 0 00-1.717-1.841H5.233v.008zm8.309 15.108c-.917 0-1.667-.75-1.667-1.666 0-.917.75-1.667 1.667-1.667.916 0 1.666.75 1.666 1.667 0 .916-.75 1.666-1.666 1.666zm0-2.083a.413.413 0 00-.417.417c0 .233.183.416.417.416a.413.413 0 00.416-.416.413.413 0 00-.416-.417zm-6.667 2.083c-.917 0-1.667-.75-1.667-1.666 0-.917.75-1.667 1.667-1.667s1.667.75 1.667 1.667c0 .916-.75 1.666-1.667 1.666zm0-2.083a.413.413 0 00-.417.417c0 .233.184.416.417.416a.413.413 0 00.417-.416.413.413 0 00-.417-.417z" fill="#262626"/><path d="M17.5 7.792h-10a.63.63 0 01-.625-.625.63.63 0 01.625-.625h10a.63.63 0 01.625.625.63.63 0 01-.625.625z" fill="#262626"/></svg>